<?xml version="1.0" encoding="UTF-8" standalone="no"?><!DOCTYPE svg PUBLIC "-//W3C//DTD SVG 1.1//EN" "http://www.w3.org/Graphics/SVG/1.1/DTD/svg11.dtd"><svg width="100%" height="100%" viewBox="0 0 468 594" version="1.1" xmlns="http://www.w3.org/2000/svg" xmlns:xlink="http://www.w3.org/1999/xlink" xml:space="preserve" xmlns:serif="http://www.serif.com/" style="fill-rule:evenodd;clip-rule:evenodd;stroke-linejoin:round;stroke-miterlimit:2;"><g><g><path d="M10.417,120.833l-0,387.084c-0,41.666 100,75 222.916,75c122.917,-0 222.917,-33.75 222.917,-75l0,-387.084l-445.833,0Z" style="fill:#474952;fill-rule:nonzero;"/><g><path d="M454.583,138.333c-0.833,0.834 -0.833,2.084 -0.833,3.334c0,0.833 0,1.666 0.417,2.5c0.416,1.25 1.25,2.083 2.5,2.916l-0,-10c-1.25,0 -1.667,0.834 -2.084,1.25Z" style="fill:#3c3b40;fill-rule:nonzero;"/><path d="M402.917,137.083c-0.834,-0.833 -2.084,-0.833 -3.334,-0.833c-2.083,-0 -3.75,1.25 -5,2.5c-0.833,0.833 -0.833,2.083 -0.833,3.333c0,0.834 0,1.667 0.417,2.5c0.833,2.084 2.916,3.75 5.416,3.75c1.25,0 2.5,-0.416 3.334,-0.833c0.833,-0.417 1.666,-1.667 2.083,-2.5c0.417,-0.833 0.417,-1.667 0.417,-2.5c-0,-1.25 -0.417,-2.5 -0.834,-3.333c-0.833,-1.25 -1.25,-1.667 -1.666,-2.084Z" style="fill:#3c3b40;fill-rule:nonzero;"/><path d="M453.333,260.833l0,1.25c0,2.084 1.25,4.167 2.917,5l0,-10c-1.25,0.417 -2.5,2.084 -2.917,3.75Z" style="fill:#3c3b40;fill-rule:nonzero;"/><path d="M453.333,202.083c0,2.084 1.25,4.167 2.917,5l0,-10.416c-1.667,1.25 -2.917,2.916 -2.917,5.416Z" style="fill:#3c3b40;fill-rule:nonzero;"/><circle cx="429.583" cy="232.083" r="5.833" style="fill:#3c3b40;"/><circle cx="429.583" cy="172.083" r="5.833" style="fill:#3c3b40;"/><path d="M402.917,257.083c-0.834,-0.833 -2.084,-0.833 -3.334,-0.833c-2.916,-0 -5.416,2.083 -5.833,4.583l0,1.25c0,3.334 2.5,5.834 5.833,5.834c1.25,-0 2.5,-0.417 3.334,-0.834c1.666,-1.25 2.5,-2.916 2.5,-5l-0,-1.25c-0.417,-1.666 -1.25,-2.916 -2.5,-3.75Z" style="fill:#3c3b40;fill-rule:nonzero;"/><path d="M402.917,197.083c-0.834,-0.833 -2.084,-0.833 -3.334,-0.833c-3.333,0 -5.833,2.5 -5.833,5.833c0,3.334 2.5,5.834 5.833,5.834c1.25,-0 2.5,-0.417 3.334,-0.834c1.666,-1.25 2.5,-2.916 2.5,-5c-0,-2.083 -1.25,-4.166 -2.5,-5Z" style="fill:#3c3b40;fill-rule:nonzero;"/><path d="M454.583,378.333c-0.833,0.834 -0.833,2.084 -0.833,3.334c0,0.833 0,1.666 0.417,2.5c0.416,1.25 1.25,2.083 2.5,2.916l-0,-10c-1.25,0 -1.667,0.834 -2.084,1.25Z" style="fill:#3c3b40;fill-rule:nonzero;"/><path d="M453.333,322.083c0,2.084 1.25,4.167 2.917,5l0,-10.416c-1.667,1.25 -2.917,2.916 -2.917,5.416Z" style="fill:#3c3b40;fill-rule:nonzero;"/><circle cx="429.583" cy="352.083" r="5.833" style="fill:#3c3b40;"/><circle cx="429.583" cy="292.083" r="5.833" style="fill:#3c3b40;"/><path d="M402.917,377.083c-0.834,-0.833 -2.084,-0.833 -3.334,-0.833c-2.083,-0 -3.75,1.25 -5,2.5c-0.833,0.833 -0.833,2.083 -0.833,3.333c0,0.834 0,1.667 0.417,2.5c0.833,2.084 2.916,3.75 5.416,3.75c1.25,0 2.5,-0.416 3.334,-0.833c0.833,-0.417 1.666,-1.667 2.083,-2.5c0.417,-0.833 0.417,-1.667 0.417,-2.5c-0,-1.25 -0.417,-2.5 -0.834,-3.333c-0.833,-1.25 -1.25,-1.667 -1.666,-2.084Z" style="fill:#3c3b40;fill-rule:nonzero;"/><path d="M402.917,317.083c-0.834,-0.833 -2.084,-0.833 -3.334,-0.833c-3.333,0 -5.833,2.5 -5.833,5.833c0,3.334 2.5,5.834 5.833,5.834c1.25,-0 2.5,-0.417 3.334,-0.834c1.666,-1.25 2.5,-2.916 2.5,-5c-0,-2.083 -1.25,-4.166 -2.5,-5Z" style="fill:#3c3b40;fill-rule:nonzero;"/><path d="M455,497.5c-0.833,0.833 -1.25,1.667 -1.667,2.917l0,1.25c0,2.083 1.25,4.166 2.917,5l0,-10l-0.417,-0c0,0.416 -0.416,0.833 -0.833,0.833Z" style="fill:#3c3b40;fill-rule:nonzero;"/><path d="M453.333,442.083c0,2.084 1.25,4.167 2.917,5l0,-10.416c-1.667,1.25 -2.917,2.916 -2.917,5.416Z" style="fill:#3c3b40;fill-rule:nonzero;"/><circle cx="429.583" cy="472.083" r="5.833" style="fill:#3c3b40;"/><circle cx="429.583" cy="412.083" r="5.833" style="fill:#3c3b40;"/><path d="M403.75,497.5c-0.417,-0.417 -0.417,-0.417 -0.833,-0.833c-0.834,-0.417 -1.25,-0.834 -2.084,-0.834l-2.5,0c-0.833,0 -1.666,0.417 -2.083,0.834c-0.417,0.416 -0.417,0.416 -0.833,0.833c-0.834,0.833 -1.25,1.667 -1.667,2.917l0,1.25c0,3.333 2.5,5.833 5.833,5.833c1.25,-0 2.5,-0.417 3.334,-0.833c1.666,-1.25 2.5,-2.917 2.5,-5l-0,-1.25c-0.417,-0.834 -0.834,-2.084 -1.667,-2.917Z" style="fill:#3c3b40;fill-rule:nonzero;"/><path d="M402.917,437.083c-0.834,-0.833 -2.084,-0.833 -3.334,-0.833c-3.333,-0 -5.833,2.5 -5.833,5.833c0,3.334 2.5,5.834 5.833,5.834c1.25,-0 2.5,-0.417 3.334,-0.834c1.666,-1.25 2.5,-2.916 2.5,-5c-0,-2.083 -1.25,-4.166 -2.5,-5Z" style="fill:#3c3b40;fill-rule:nonzero;"/><circle cx="429.583" cy="532.083" r="5.833" style="fill:#3c3b40;"/><path d="M399.583,555.833c-2.916,0 -5,2.084 -5.833,4.584c2.083,-0.834 3.75,-1.25 5.833,-2.084c1.25,-0.416 2.084,-0.833 3.334,-1.25c-1.25,-0.833 -2.084,-1.25 -3.334,-1.25Z" style="fill:#3c3b40;fill-rule:nonzero;"/><path d="M339.583,135.833c-2.083,0 -3.75,1.25 -5,2.5c-0.833,0.834 -0.833,2.084 -0.833,3.334c0,0.833 0,1.666 0.417,2.5c0.833,2.083 2.916,3.75 5.416,3.75c2.5,-0 4.584,-1.667 5.417,-3.75c0.417,-0.834 0.417,-1.667 0.417,-2.5c-0,-1.25 -0.417,-2.5 -0.834,-3.334c-1.25,-1.25 -2.916,-2.5 -5,-2.5Z" style="fill:#3c3b40;fill-rule:nonzero;"/><path d="M280.417,135.833l-1.25,0c-0.834,0 -1.667,0 -2.5,0.417c-1.25,0.417 -2.084,1.25 -2.5,2.083c-0.834,0.834 -0.834,2.084 -0.834,3.334c0,0.833 0,1.666 0.417,2.5c0.417,1.25 1.667,2.5 3.333,3.333c0.834,0.417 1.667,0.417 2.5,0.417l1.25,-0c2.084,-0.417 3.75,-1.667 4.167,-3.334c0.417,-0.833 0.417,-1.666 0.417,-2.5c-0,-1.25 -0.417,-2.5 -0.834,-3.333c-1.25,-1.667 -2.5,-2.5 -4.166,-2.917Z" style="fill:#3c3b40;fill-rule:nonzero;"/><path d="M339.583,255.833c-2.916,0 -5.416,2.084 -5.833,4.584l0,1.25c0,3.333 2.5,5.833 5.833,5.833c3.334,-0 5.834,-2.5 5.834,-5.833l-0,-1.25c-0.834,-2.5 -2.917,-4.584 -5.834,-4.584Z" style="fill:#3c3b40;fill-rule:nonzero;"/><circle cx="339.583" cy="202.083" r="5.833" style="fill:#3c3b40;"/><circle cx="309.583" cy="232.083" r="5.833" style="fill:#3c3b40;"/><circle cx="369.583" cy="232.083" r="5.833" style="fill:#3c3b40;"/><circle cx="309.583" cy="172.083" r="5.833" style="fill:#3c3b40;"/><circle cx="369.583" cy="172.083" r="5.833" style="fill:#3c3b40;"/><path d="M280.417,255.833l-1.25,0c-0.834,0 -1.667,0 -2.5,0.417c-1.667,0.833 -3.334,2.5 -3.75,4.167l-0,1.25c-0,2.5 1.666,4.583 3.75,5.416c0.833,0.417 1.666,0.417 2.5,0.417l1.25,0c2.916,-0.417 4.583,-2.917 4.583,-5.833l0,-1.25c0,-2.084 -2.083,-3.75 -4.583,-4.584Z" style="fill:#3c3b40;fill-rule:nonzero;"/><path d="M280.417,195.833l-1.25,0c-0.834,0 -1.667,0 -2.5,0.417c-2.084,0.833 -3.75,2.917 -3.75,5.417c-0,2.5 1.666,4.583 3.75,5.416c0.833,0.417 1.666,0.417 2.5,0.417l1.25,0c2.916,-0.417 4.583,-2.917 4.583,-5.833c0.417,-2.5 -1.667,-5 -4.583,-5.834Z" style="fill:#3c3b40;fill-rule:nonzero;"/><path d="M339.583,375.833c-2.083,0 -3.75,1.25 -5,2.5c-0.833,0.834 -0.833,2.084 -0.833,3.334c0,0.833 0,1.666 0.417,2.5c0.833,2.083 2.916,3.75 5.416,3.75c2.5,-0 4.584,-1.667 5.417,-3.75c0.417,-0.834 0.417,-1.667 0.417,-2.5c-0,-1.25 -0.417,-2.5 -0.834,-3.334c-1.25,-1.25 -2.916,-2.5 -5,-2.5Z" style="fill:#3c3b40;fill-rule:nonzero;"/><circle cx="339.583" cy="322.083" r="5.833" style="fill:#3c3b40;"/><circle cx="309.583" cy="352.083" r="5.833" style="fill:#3c3b40;"/><circle cx="369.583" cy="352.083" r="5.833" style="fill:#3c3b40;"/><circle cx="309.583" cy="292.083" r="5.833" style="fill:#3c3b40;"/><circle cx="369.583" cy="292.083" r="5.833" style="fill:#3c3b40;"/><path d="M280.417,375.833l-1.25,0c-0.834,0 -1.667,0 -2.5,0.417c-1.25,0.417 -2.084,1.25 -2.5,2.083c-0.834,0.834 -0.834,2.084 -0.834,3.334c0,0.833 0,1.666 0.417,2.5c0.417,1.25 1.667,2.5 3.333,3.333c0.834,0.417 1.667,0.417 2.5,0.417l1.25,-0c2.084,-0.417 3.75,-1.667 4.167,-3.334c0.417,-0.833 0.417,-1.666 0.417,-2.5c-0,-1.25 -0.417,-2.5 -0.834,-3.333c-1.25,-1.667 -2.5,-2.5 -4.166,-2.917Z" style="fill:#3c3b40;fill-rule:nonzero;"/><path d="M280.417,315.833l-1.25,0c-0.834,0 -1.667,0 -2.5,0.417c-2.084,0.833 -3.75,2.917 -3.75,5.417c-0,2.5 1.666,4.583 3.75,5.416c0.833,0.417 1.666,0.417 2.5,0.417l1.25,0c2.916,-0.417 4.583,-2.917 4.583,-5.833c0.417,-2.5 -1.667,-5 -4.583,-5.834Z" style="fill:#3c3b40;fill-rule:nonzero;"/><path d="M343.75,497.5c-0.417,-0.417 -0.417,-0.417 -0.833,-0.833c-0.834,-0.417 -1.25,-0.834 -2.084,-0.834l-2.5,0c-0.833,0 -1.666,0.417 -2.083,0.834c-0.417,0.416 -0.417,0.416 -0.833,0.833c-0.834,0.833 -1.25,1.667 -1.667,2.917l0,1.25c0,3.333 2.5,5.833 5.833,5.833c3.334,-0 5.834,-2.5 5.834,-5.833l-0,-1.25c-0.417,-0.834 -0.834,-2.084 -1.667,-2.917Z" style="fill:#3c3b40;fill-rule:nonzero;"/><circle cx="339.583" cy="442.083" r="5.833" style="fill:#3c3b40;"/><circle cx="309.583" cy="472.083" r="5.833" style="fill:#3c3b40;"/><circle cx="369.583" cy="472.083" r="5.833" style="fill:#3c3b40;"/><circle cx="309.583" cy="412.083" r="5.833" style="fill:#3c3b40;"/><circle cx="369.583" cy="412.083" r="5.833" style="fill:#3c3b40;"/><path d="M283.75,497.5c-0.417,-0.417 -0.417,-0.417 -0.833,-0.833c-0.834,-0.417 -1.25,-0.834 -2.084,-0.834l-2.5,0c-0.416,0 -0.833,0 -1.25,0.417c-0.416,0 -0.833,0.417 -0.833,0.417c-0.417,0.416 -0.417,0.416 -0.833,0.833c-0.834,0.833 -1.25,1.667 -1.667,2.917l0,1.25c0,2.5 1.667,4.583 3.75,5.416c0.833,0.417 1.667,0.417 2.5,0.417l1.25,0c2.917,-0.417 4.583,-2.917 4.583,-5.833l0,-1.25c-0.833,-0.834 -1.25,-2.084 -2.083,-2.917Z" style="fill:#3c3b40;fill-rule:nonzero;"/><path d="M280.417,435.833l-1.25,0c-0.834,0 -1.667,0 -2.5,0.417c-2.084,0.833 -3.75,2.917 -3.75,5.417c-0,2.5 1.666,4.583 3.75,5.416c0.833,0.417 1.666,0.417 2.5,0.417l1.25,0c2.916,-0.417 4.583,-2.917 4.583,-5.833c0.417,-2.5 -1.667,-5 -4.583,-5.834Z" style="fill:#3c3b40;fill-rule:nonzero;"/><circle cx="339.583" cy="562.083" r="5.833" style="fill:#3c3b40;"/><circle cx="309.583" cy="532.083" r="5.833" style="fill:#3c3b40;"/><circle cx="369.583" cy="532.083" r="5.833" style="fill:#3c3b40;"/><path d="M280.417,555.833l-1.25,0c-0.834,0 -1.667,0 -2.5,0.417c-2.084,0.833 -3.75,2.917 -3.75,5.417c-0,2.5 1.666,4.583 3.75,5.416c0.833,0.417 1.666,0.417 2.5,0.417l1.25,-0c2.916,-0.417 4.583,-2.917 4.583,-5.833c0.417,-2.5 -1.667,-5 -4.583,-5.834Z" style="fill:#3c3b40;fill-rule:nonzero;"/><path d="M219.583,135.833c-2.083,0 -3.75,1.25 -5,2.5c-0.833,0.834 -0.833,2.084 -0.833,3.334c0,0.833 0,1.666 0.417,2.5c0.833,2.083 2.916,3.75 5.416,3.75c2.5,-0 4.584,-1.667 5.417,-3.75c0.417,-0.834 0.417,-1.667 0.417,-2.5c-0,-1.25 -0.417,-2.5 -0.834,-3.334c-1.25,-1.25 -2.916,-2.5 -5,-2.5Z" style="fill:#3c3b40;fill-rule:nonzero;"/><path d="M162.917,137.083c-0.834,-0.833 -2.084,-0.833 -3.334,-0.833c-0.833,-0 -1.666,-0 -2.5,0.417c-1.25,0.416 -2.083,1.25 -2.5,2.083c-0.833,0.833 -0.833,2.083 -0.833,3.333c0,0.834 0,1.667 0.417,2.5c0.416,1.25 1.666,2.5 3.333,3.334c0.833,0.416 1.667,0.416 2.5,0.416c1.25,0 2.5,-0.416 3.333,-0.833c0.834,-0.417 1.667,-1.667 2.084,-2.5c0.416,-0.833 0.416,-1.667 0.416,-2.5c0,-1.25 -0.416,-2.5 -0.833,-3.333c-1.25,-1.25 -1.667,-1.667 -2.083,-2.084Z" style="fill:#3c3b40;fill-rule:nonzero;"/><path d="M219.583,255.833c-2.916,0 -5.416,2.084 -5.833,4.584l0,1.25c0,3.333 2.5,5.833 5.833,5.833c3.334,-0 5.834,-2.5 5.834,-5.833l-0,-1.25c-0.834,-2.5 -2.917,-4.584 -5.834,-4.584Z" style="fill:#3c3b40;fill-rule:nonzero;"/><circle cx="219.583" cy="202.083" r="5.833" style="fill:#3c3b40;"/><circle cx="189.583" cy="232.083" r="5.833" style="fill:#3c3b40;"/><circle cx="249.583" cy="232.083" r="5.833" style="fill:#3c3b40;"/><circle cx="189.583" cy="172.083" r="5.833" style="fill:#3c3b40;"/><circle cx="249.583" cy="172.083" r="5.833" style="fill:#3c3b40;"/><path d="M162.917,257.083c-0.834,-0.833 -2.084,-0.833 -3.334,-0.833c-0.833,-0 -1.666,-0 -2.5,0.417c-1.666,0.833 -3.333,2.5 -3.75,4.166l0,1.25c0,2.5 1.667,4.584 3.75,5.417c0.834,0.417 1.667,0.417 2.5,0.417c1.25,-0 2.5,-0.417 3.334,-0.834c1.666,-1.25 2.5,-2.916 2.5,-5l-0,-1.25c-0.417,-1.666 -1.25,-2.916 -2.5,-3.75Z" style="fill:#3c3b40;fill-rule:nonzero;"/><path d="M162.917,197.083c-0.834,-0.833 -2.084,-0.833 -3.334,-0.833c-0.833,0 -1.666,0 -2.5,0.417c-2.083,0.833 -3.75,2.916 -3.75,5.416c0,2.5 1.667,4.584 3.75,5.417c0.834,0.417 1.667,0.417 2.5,0.417c1.25,-0 2.5,-0.417 3.334,-0.834c1.666,-1.25 2.5,-2.916 2.5,-5c-0,-2.083 -1.25,-4.166 -2.5,-5Z" style="fill:#3c3b40;fill-rule:nonzero;"/><path d="M219.583,375.833c-2.083,0 -3.75,1.25 -5,2.5c-0.833,0.834 -0.833,2.084 -0.833,3.334c0,0.833 0,1.666 0.417,2.5c0.833,2.083 2.916,3.75 5.416,3.75c2.5,-0 4.584,-1.667 5.417,-3.75c0.417,-0.834 0.417,-1.667 0.417,-2.5c-0,-1.25 -0.417,-2.5 -0.834,-3.334c-1.25,-1.25 -2.916,-2.5 -5,-2.5Z" style="fill:#3c3b40;fill-rule:nonzero;"/><circle cx="219.583" cy="322.083" r="5.833" style="fill:#3c3b40;"/><circle cx="189.583" cy="352.083" r="5.833" style="fill:#3c3b40;"/><circle cx="249.583" cy="352.083" r="5.833" style="fill:#3c3b40;"/><circle cx="189.583" cy="292.083" r="5.833" style="fill:#3c3b40;"/><circle cx="249.583" cy="292.083" r="5.833" style="fill:#3c3b40;"/><path d="M162.917,377.083c-0.834,-0.833 -2.084,-0.833 -3.334,-0.833c-0.833,-0 -1.666,-0 -2.5,0.417c-1.25,0.416 -2.083,1.25 -2.5,2.083c-0.833,0.833 -0.833,2.083 -0.833,3.333c0,0.834 0,1.667 0.417,2.5c0.416,1.25 1.666,2.5 3.333,3.334c0.833,0.416 1.667,0.416 2.5,0.416c1.25,0 2.5,-0.416 3.333,-0.833c0.834,-0.417 1.667,-1.667 2.084,-2.5c0.416,-0.833 0.416,-1.667 0.416,-2.5c0,-1.25 -0.416,-2.5 -0.833,-3.333c-1.25,-1.25 -1.667,-1.667 -2.083,-2.084Z" style="fill:#3c3b40;fill-rule:nonzero;"/><path d="M162.917,317.083c-0.834,-0.833 -2.084,-0.833 -3.334,-0.833c-0.833,0 -1.666,0 -2.5,0.417c-2.083,0.833 -3.75,2.916 -3.75,5.416c0,2.5 1.667,4.584 3.75,5.417c0.834,0.417 1.667,0.417 2.5,0.417c1.25,-0 2.5,-0.417 3.334,-0.834c1.666,-1.25 2.5,-2.916 2.5,-5c-0,-2.083 -1.25,-4.166 -2.5,-5Z" style="fill:#3c3b40;fill-rule:nonzero;"/><path d="M223.75,497.5c-0.417,-0.417 -0.417,-0.417 -0.833,-0.833c-0.834,-0.417 -1.25,-0.834 -2.084,-0.834l-2.5,0c-0.833,0 -1.666,0.417 -2.083,0.834c-0.417,0.416 -0.417,0.416 -0.833,0.833c-0.834,0.833 -1.25,1.667 -1.667,2.917l0,1.25c0,3.333 2.5,5.833 5.833,5.833c3.334,-0 5.834,-2.5 5.834,-5.833l-0,-1.25c-0.417,-0.834 -0.834,-2.084 -1.667,-2.917Z" style="fill:#3c3b40;fill-rule:nonzero;"/><circle cx="219.583" cy="442.083" r="5.833" style="fill:#3c3b40;"/><circle cx="189.583" cy="472.083" r="5.833" style="fill:#3c3b40;"/><circle cx="249.583" cy="472.083" r="5.833" style="fill:#3c3b40;"/><circle cx="189.583" cy="412.083" r="5.833" style="fill:#3c3b40;"/><circle cx="249.583" cy="412.083" r="5.833" style="fill:#3c3b40;"/><path d="M163.75,497.5c-0.417,-0.417 -0.417,-0.417 -0.833,-0.833c-0.834,-0.417 -1.25,-0.834 -2.084,-0.834l-2.5,0c-0.416,0 -0.833,0 -1.25,0.417c-0.416,0 -0.833,0.417 -0.833,0.417c-0.417,0.416 -0.417,0.416 -0.833,0.833c-0.834,0.833 -1.25,1.667 -1.667,2.917l0,1.25c0,2.5 1.667,4.583 3.75,5.416c0.833,0.417 1.667,0.417 2.5,0.417c1.25,0 2.5,-0.417 3.333,-0.833c1.667,-1.25 2.5,-2.917 2.5,-5l0,-1.25c-0.833,-0.834 -1.25,-2.084 -2.083,-2.917Z" style="fill:#3c3b40;fill-rule:nonzero;"/><path d="M162.917,437.083c-0.834,-0.833 -2.084,-0.833 -3.334,-0.833c-0.833,-0 -1.666,-0 -2.5,0.417c-2.083,0.833 -3.75,2.916 -3.75,5.416c0,2.5 1.667,4.584 3.75,5.417c0.834,0.417 1.667,0.417 2.5,0.417c1.25,-0 2.5,-0.417 3.334,-0.834c1.666,-1.25 2.5,-2.916 2.5,-5c-0,-2.083 -1.25,-4.166 -2.5,-5Z" style="fill:#3c3b40;fill-rule:nonzero;"/><circle cx="219.583" cy="562.083" r="5.833" style="fill:#3c3b40;"/><circle cx="189.583" cy="532.083" r="5.833" style="fill:#3c3b40;"/><circle cx="249.583" cy="532.083" r="5.833" style="fill:#3c3b40;"/><path d="M162.917,557.083c-0.834,-0.833 -2.084,-0.833 -3.334,-0.833c-0.833,-0 -1.666,-0 -2.5,0.417c-2.083,0.833 -3.75,2.916 -3.75,5.416c0,2.5 1.667,4.584 3.75,5.417c0.834,0.417 1.667,0.417 2.5,0.417c1.25,-0 2.5,-0.417 3.334,-0.834c1.666,-1.25 2.5,-2.916 2.5,-5c-0,-2.083 -1.25,-4.166 -2.5,-5Z" style="fill:#3c3b40;fill-rule:nonzero;"/><path d="M99.583,135.833c-2.083,0 -3.75,1.25 -5,2.5c-0.833,0.834 -0.833,2.084 -0.833,3.334c0,0.833 0,1.666 0.417,2.5c0.833,2.083 2.916,3.75 5.416,3.75c2.5,-0 4.584,-1.667 5.417,-3.75c0.417,-0.834 0.417,-1.667 0.417,-2.5c-0,-1.25 -0.417,-2.5 -0.834,-3.334c-1.25,-1.25 -2.916,-2.5 -5,-2.5Z" style="fill:#3c3b40;fill-rule:nonzero;"/><path d="M39.583,135.833c-2.083,0 -3.75,1.25 -5,2.5c-0.833,0.834 -0.833,2.084 -0.833,3.334c0,0.833 0,1.666 0.417,2.5c0.833,2.083 2.916,3.75 5.416,3.75c2.5,-0 4.584,-1.667 5.417,-3.75c0.417,-0.834 0.417,-1.667 0.417,-2.5c-0,-1.25 -0.417,-2.5 -0.834,-3.334c-1.25,-1.25 -2.916,-2.5 -5,-2.5Z" style="fill:#3c3b40;fill-rule:nonzero;"/><path d="M99.583,255.833c-2.916,0 -5.416,2.084 -5.833,4.584l0,1.25c0,3.333 2.5,5.833 5.833,5.833c3.334,-0 5.834,-2.5 5.834,-5.833l-0,-1.25c-0.834,-2.5 -2.917,-4.584 -5.834,-4.584Z" style="fill:#3c3b40;fill-rule:nonzero;"/><circle cx="99.583" cy="202.083" r="5.833" style="fill:#3c3b40;"/><circle cx="69.583" cy="232.083" r="5.833" style="fill:#3c3b40;"/><circle cx="129.583" cy="232.083" r="5.833" style="fill:#3c3b40;"/><circle cx="69.583" cy="172.083" r="5.833" style="fill:#3c3b40;"/><circle cx="129.583" cy="172.083" r="5.833" style="fill:#3c3b40;"/><path d="M39.583,255.833c-2.916,0 -5.416,2.084 -5.833,4.584l0,1.25c0,3.333 2.5,5.833 5.833,5.833c3.334,-0 5.834,-2.5 5.834,-5.833l-0,-1.25c-0.834,-2.5 -2.917,-4.584 -5.834,-4.584Z" style="fill:#3c3b40;fill-rule:nonzero;"/><circle cx="39.583" cy="202.083" r="5.833" style="fill:#3c3b40;"/><path d="M99.583,375.833c-2.083,0 -3.75,1.25 -5,2.5c-0.833,0.834 -0.833,2.084 -0.833,3.334c0,0.833 0,1.666 0.417,2.5c0.833,2.083 2.916,3.75 5.416,3.75c2.5,-0 4.584,-1.667 5.417,-3.75c0.417,-0.834 0.417,-1.667 0.417,-2.5c-0,-1.25 -0.417,-2.5 -0.834,-3.334c-1.25,-1.25 -2.916,-2.5 -5,-2.5Z" style="fill:#3c3b40;fill-rule:nonzero;"/><circle cx="99.583" cy="322.083" r="5.833" style="fill:#3c3b40;"/><circle cx="69.583" cy="352.083" r="5.833" style="fill:#3c3b40;"/><circle cx="129.583" cy="352.083" r="5.833" style="fill:#3c3b40;"/><circle cx="69.583" cy="292.083" r="5.833" style="fill:#3c3b40;"/><circle cx="129.583" cy="292.083" r="5.833" style="fill:#3c3b40;"/><path d="M39.583,375.833c-2.083,0 -3.75,1.25 -5,2.5c-0.833,0.834 -0.833,2.084 -0.833,3.334c0,0.833 0,1.666 0.417,2.5c0.833,2.083 2.916,3.75 5.416,3.75c2.5,-0 4.584,-1.667 5.417,-3.75c0.417,-0.834 0.417,-1.667 0.417,-2.5c-0,-1.25 -0.417,-2.5 -0.834,-3.334c-1.25,-1.25 -2.916,-2.5 -5,-2.5Z" style="fill:#3c3b40;fill-rule:nonzero;"/><circle cx="39.583" cy="322.083" r="5.833" style="fill:#3c3b40;"/><path d="M103.75,497.5c-0.417,-0.417 -0.417,-0.417 -0.833,-0.833c-0.834,-0.417 -1.25,-0.834 -2.084,-0.834l-2.5,0c-0.833,0 -1.666,0.417 -2.083,0.834c-0.417,0.416 -0.417,0.416 -0.833,0.833c-0.834,0.833 -1.25,1.667 -1.667,2.917l0,1.25c0,3.333 2.5,5.833 5.833,5.833c3.334,-0 5.834,-2.5 5.834,-5.833l-0,-1.25c-0.417,-0.834 -0.834,-2.084 -1.667,-2.917Z" style="fill:#3c3b40;fill-rule:nonzero;"/><circle cx="99.583" cy="442.083" r="5.833" style="fill:#3c3b40;"/><circle cx="69.583" cy="472.083" r="5.833" style="fill:#3c3b40;"/><circle cx="129.583" cy="472.083" r="5.833" style="fill:#3c3b40;"/><circle cx="69.583" cy="412.083" r="5.833" style="fill:#3c3b40;"/><circle cx="129.583" cy="412.083" r="5.833" style="fill:#3c3b40;"/><path d="M43.75,497.5c-0.417,-0.417 -0.417,-0.417 -0.833,-0.833c-0.834,-0.417 -1.25,-0.834 -2.084,-0.834l-2.5,0c-0.833,0 -1.666,0.417 -2.083,0.834c-0.417,0.416 -0.417,0.416 -0.833,0.833c-0.834,0.833 -1.25,1.667 -1.667,2.917l0,1.25c0,3.333 2.5,5.833 5.833,5.833c3.334,-0 5.834,-2.5 5.834,-5.833l-0,-1.25c-0.417,-0.834 -0.834,-2.084 -1.667,-2.917Z" style="fill:#3c3b40;fill-rule:nonzero;"/><circle cx="39.583" cy="442.083" r="5.833" style="fill:#3c3b40;"/><circle cx="99.583" cy="562.083" r="5.833" style="fill:#3c3b40;"/><circle cx="69.583" cy="532.083" r="5.833" style="fill:#3c3b40;"/><circle cx="129.583" cy="532.083" r="5.833" style="fill:#3c3b40;"/><path d="M10.417,225.833l-0,11.667c2.916,-0.417 5,-2.917 5,-5.833c-0,-2.917 -2.084,-5 -5,-5.834Z" style="fill:#3c3b40;fill-rule:nonzero;"/><path d="M10.417,165.833l-0,11.667c2.916,-0.417 5,-2.917 5,-5.833c-0,-2.917 -2.084,-5 -5,-5.834Z" style="fill:#3c3b40;fill-rule:nonzero;"/><path d="M10.417,345.833l-0,11.667c2.916,-0.417 5,-2.917 5,-5.833c-0,-2.917 -2.084,-5 -5,-5.834Z" style="fill:#3c3b40;fill-rule:nonzero;"/><path d="M10.417,285.833l-0,11.667c2.916,-0.417 5,-2.917 5,-5.833c-0,-2.917 -2.084,-5 -5,-5.834Z" style="fill:#3c3b40;fill-rule:nonzero;"/><path d="M10.417,465.833l-0,11.667c2.916,-0.417 5,-2.917 5,-5.833c-0,-2.917 -2.084,-5 -5,-5.834Z" style="fill:#3c3b40;fill-rule:nonzero;"/><path d="M10.417,405.833l-0,11.667c2.916,-0.417 5,-2.917 5,-5.833c-0,-2.917 -2.084,-5 -5,-5.834Z" style="fill:#3c3b40;fill-rule:nonzero;"/></g><path d="M10.417,460c29.583,85.833 198.333,75 277.5,-6.25c82.5,-85 134.583,-179.167 105.833,-332.917l-383.333,0l-0,339.167Z" style="fill:#616169;fill-rule:nonzero;"/><path d="M233.333,593.75c-113.333,-0 -233.333,-30 -233.333,-85.417l0,-397.5l466.667,0l-0,397.5c-0,55.417 -120,85.417 -233.334,85.417Zm-212.5,-462.5l0,376.667c0,30.833 87.084,64.583 212.5,64.583c125.417,-0 212.5,-34.167 212.5,-64.583l0,-376.667l-425,-0Z" style="fill:#282f39;fill-rule:nonzero;"/><path d="M52.5,381.667c-7.917,-55.417 -9.167,-185.417 18.333,-165.834c31.667,22.5 -2.916,275.834 -18.333,165.834Z" style="fill:#fff;fill-rule:nonzero;"/><path d="M456.667,89.167c-0,-17.5 -14.167,-31.25 -31.25,-31.25l-1.25,-0c-3.334,-10.834 -12.5,-19.167 -24.167,-21.667c-4.167,-12.917 -15.833,-22.083 -30,-22.083c-10,-0 -19.167,5 -25,12.5c-1.25,-0 -2.5,-0.417 -4.167,-0.417c-2.083,-0 -4.166,0.417 -6.25,0.833c-5.833,-7.5 -15,-12.5 -25,-12.5c-7.916,0 -15.416,2.917 -20.833,7.917c-3.333,-1.25 -7.083,-2.083 -10.833,-2.083c-9.584,-0 -17.917,4.166 -23.75,10.833c-4.167,-12.083 -15.834,-20.833 -29.584,-20.833c-11.666,-0 -22.083,6.666 -27.5,16.25c-5,-3.75 -11.666,-5.834 -18.333,-5.834c-7.917,0 -15,2.917 -20.833,7.917c-5.834,-8.333 -15,-13.75 -25.834,-13.75c-12.916,-0 -24.166,7.917 -28.75,19.167c-5.416,-4.584 -12.5,-7.084 -20,-7.084c-17.5,0 -31.25,14.167 -31.25,31.25l0,2.084c-3.333,-1.25 -7.083,-2.084 -10.833,-2.084c-17.5,0 -31.25,14.167 -31.25,31.25c0,5.834 1.667,11.667 4.583,16.25c-2.916,5 -4.583,10 -4.583,15.417c0,41.667 100,75 222.917,75c122.916,-0 222.916,-33.75 222.916,-75c0,-5 -1.666,-10 -4.166,-14.583c3.333,-5.417 5,-11.25 5,-17.5Z" style="fill:#f37452;fill-rule:nonzero;"/><path d="M456.667,89.167c-0,-17.5 -14.167,-31.25 -31.25,-31.25l-1.25,-0c-3.334,-10.834 -12.5,-19.167 -24.167,-21.667c-4.167,-12.917 -15.833,-22.083 -30,-22.083c-9.583,-0 -18.333,4.583 -24.167,11.666c0.417,0.834 0.417,1.667 0.834,2.917c-12.084,4.167 -21.25,15.833 -21.25,29.583c-0,3.75 0.416,7.084 1.666,10c-8.333,1.667 -15,6.667 -19.583,13.75c-5.417,-3.75 -11.667,-6.25 -18.75,-6.25c-17.5,0 -31.25,14.167 -31.25,31.25c0,2.084 0.417,4.167 0.833,6.25c-5.833,-6.25 -14.166,-10.416 -23.333,-10.416c-15,-0 -27.5,10.833 -30.833,25c-5.417,-9.584 -15.417,-15.834 -27.084,-15.834c-5,0 -9.583,1.25 -13.75,3.334c-5.833,-7.5 -14.583,-12.5 -25,-12.5c-11.666,-0 -21.666,6.25 -27.083,15.833c-4.167,-2.083 -9.167,-3.333 -14.167,-3.333c-12.083,-0 -22.083,6.666 -27.5,16.25c-26.25,-5 -45,-12.084 -57.916,-19.167c-0.834,2.5 -1.25,5 -1.25,7.917c-0,41.666 100,75 222.916,75c122.917,-0 222.917,-33.75 222.917,-75c-0,-5 -1.667,-10 -4.167,-14.584c2.917,-4.583 4.584,-10.416 4.584,-16.666Z" style="fill:#ef4223;fill-rule:nonzero;"/><g><path d="M454.583,77.917c-0.833,0.833 -1.25,2.5 -1.25,3.75c0,2.5 1.25,4.583 3.334,5.416c-0,-2.916 -0.834,-6.25 -2.084,-9.166Z" style="fill:#cf391e;fill-rule:nonzero;"/><circle cx="429.583" cy="112.083" r="5.833" style="fill:#cf391e;"/><path d="M402.917,137.083c-0.834,-0.833 -2.084,-0.833 -3.334,-0.833c-2.083,-0 -3.75,1.25 -5,2.5c-0.833,0.833 -0.833,2.083 -0.833,3.333c0,0.834 0,1.667 0.417,2.5c0.833,2.084 2.916,3.75 5.416,3.75c1.25,0 2.5,-0.416 3.334,-0.833c0.833,-0.417 1.666,-1.667 2.083,-2.5c0.417,-0.833 0.417,-1.667 0.417,-2.5c-0,-1.25 -0.417,-2.5 -0.834,-3.333c-0.833,-1.25 -1.25,-1.667 -1.666,-2.084Z" style="fill:#cf391e;fill-rule:nonzero;"/><path d="M402.917,77.083c-0.834,-0.833 -2.084,-0.833 -3.334,-0.833c-3.333,-0 -5.833,2.5 -5.833,5.833c0,3.334 2.5,5.834 5.833,5.834c1.25,-0 2.5,-0.417 3.334,-0.834c1.666,-1.25 2.5,-2.916 2.5,-5c-0,-2.083 -1.25,-4.166 -2.5,-5Z" style="fill:#cf391e;fill-rule:nonzero;"/><path d="M339.583,135.833c-2.083,0 -3.75,1.25 -5,2.5c-0.833,0.834 -0.833,2.084 -0.833,3.334c0,0.833 0,1.666 0.417,2.5c0.833,2.083 2.916,3.75 5.416,3.75c2.5,-0 4.584,-1.667 5.417,-3.75c0.417,-0.834 0.417,-1.667 0.417,-2.5c-0,-1.25 -0.417,-2.5 -0.834,-3.334c-1.25,-1.25 -2.916,-2.5 -5,-2.5Z" style="fill:#cf391e;fill-rule:nonzero;"/><circle cx="339.583" cy="82.083" r="5.833" style="fill:#cf391e;"/><circle cx="309.583" cy="112.083" r="5.833" style="fill:#cf391e;"/><circle cx="369.583" cy="112.083" r="5.833" style="fill:#cf391e;"/><circle cx="369.583" cy="52.083" r="5.833" style="fill:#cf391e;"/><path d="M280.417,135.833l-1.25,0c-0.834,0 -1.667,0 -2.5,0.417c-1.25,0.417 -2.084,1.25 -2.5,2.083c-0.834,0.834 -0.834,2.084 -0.834,3.334c0,0.833 0,1.666 0.417,2.5c0.417,1.25 1.667,2.5 3.333,3.333c0.834,0.417 1.667,0.417 2.5,0.417l1.25,-0c2.084,-0.417 3.75,-1.667 4.167,-3.334c0.417,-0.833 0.417,-1.666 0.417,-2.5c-0,-1.25 -0.417,-2.5 -0.834,-3.333c-1.25,-1.667 -2.5,-2.5 -4.166,-2.917Z" style="fill:#cf391e;fill-rule:nonzero;"/><path d="M282.083,76.667c-0.833,0.416 -2.083,0.416 -2.916,0.833c-2.084,0.833 -3.75,1.667 -5.834,2.5c-0.416,0.833 -0.416,1.25 -0.416,2.083c-0,2.5 1.666,4.584 3.75,5.417c0.833,0.417 1.666,0.417 2.5,0.417l1.25,-0c2.916,-0.417 4.583,-2.917 4.583,-5.834c0.417,-2.5 -0.833,-4.583 -2.917,-5.416Z" style="fill:#cf391e;fill-rule:nonzero;"/><circle cx="309.583" cy="172.083" r="5.833" style="fill:#cf391e;"/><circle cx="369.583" cy="172.083" r="5.833" style="fill:#cf391e;"/><path d="M219.583,135.833c-2.083,0 -3.75,1.25 -5,2.5c-0.833,0.834 -0.833,2.084 -0.833,3.334c0,0.833 0,1.666 0.417,2.5c0.833,2.083 2.916,3.75 5.416,3.75c2.5,-0 4.584,-1.667 5.417,-3.75c0.417,-0.834 0.417,-1.667 0.417,-2.5c-0,-1.25 -0.417,-2.5 -0.834,-3.334c-1.25,-1.25 -2.916,-2.5 -5,-2.5Z" style="fill:#cf391e;fill-rule:nonzero;"/><path d="M189.583,117.917c1.25,-0 2.5,-0.417 3.75,-1.25c-2.916,-1.667 -6.25,-2.917 -9.583,-3.75c0.417,2.916 2.5,5 5.833,5Z" style="fill:#cf391e;fill-rule:nonzero;"/><path d="M247.917,106.25c-2.5,0.417 -4.584,2.917 -4.584,5.833c0,3.334 2.5,5.834 5.834,5.834c3.333,-0 5.833,-2.5 5.833,-5.834l0,-1.25c-2.083,-2.083 -4.167,-3.75 -7.083,-4.583Z" style="fill:#cf391e;fill-rule:nonzero;"/><path d="M162.917,137.083c-0.834,-0.833 -2.084,-0.833 -3.334,-0.833c-0.833,-0 -1.666,-0 -2.5,0.417c-1.25,0.416 -2.083,1.25 -2.5,2.083c-0.833,0.833 -0.833,2.083 -0.833,3.333c0,0.834 0,1.667 0.417,2.5c0.416,1.25 1.666,2.5 3.333,3.334c0.833,0.416 1.667,0.416 2.5,0.416c1.25,0 2.5,-0.416 3.333,-0.833c0.834,-0.417 1.667,-1.667 2.084,-2.5c0.416,-0.833 0.416,-1.667 0.416,-2.5c0,-1.25 -0.416,-2.5 -0.833,-3.333c-1.25,-1.25 -1.667,-1.667 -2.083,-2.084Z" style="fill:#cf391e;fill-rule:nonzero;"/><circle cx="189.583" cy="172.083" r="5.833" style="fill:#cf391e;"/><circle cx="249.583" cy="172.083" r="5.833" style="fill:#cf391e;"/><path d="M99.583,135.833c-2.083,0 -3.75,1.25 -5,2.5c-0.833,0.834 -0.833,2.084 -0.833,3.334c0,0.833 0,1.666 0.417,2.5c0.833,2.083 2.916,3.75 5.416,3.75c2.5,-0 4.584,-1.667 5.417,-3.75c0.417,-0.834 0.417,-1.667 0.417,-2.5c-0,-1.25 -0.417,-2.5 -0.834,-3.334c-1.25,-1.25 -2.916,-2.5 -5,-2.5Z" style="fill:#cf391e;fill-rule:nonzero;"/><circle cx="129.583" cy="112.083" r="5.833" style="fill:#cf391e;"/><path d="M39.583,135.833c-2.083,0 -3.75,1.25 -5,2.5c-0.833,0.834 -0.833,2.084 -0.833,3.334c0,0.833 0,1.666 0.417,2.5c0.833,2.083 2.916,3.75 5.416,3.75c2.5,-0 4.584,-1.667 5.417,-3.75c0.417,-0.834 0.417,-1.667 0.417,-2.5c-0,-1.25 -0.417,-2.5 -0.834,-3.334c-1.25,-1.25 -2.916,-2.5 -5,-2.5Z" style="fill:#cf391e;fill-rule:nonzero;"/><path d="M69.583,165.833c-2.5,0 -4.583,1.667 -5.416,3.75c3.75,1.25 7.5,2.917 11.25,4.167c-0,-0.417 0.416,-1.25 0.416,-1.667c-0.416,-3.333 -2.916,-6.25 -6.25,-6.25Z" style="fill:#cf391e;fill-rule:nonzero;"/><circle cx="129.583" cy="172.083" r="5.833" style="fill:#cf391e;"/><path d="M10.833,117.917c1.667,-0.417 3.334,-1.667 4.167,-3.334c-1.25,-0.416 -2.083,-1.25 -2.917,-1.666c-0.833,1.666 -1.25,3.333 -1.25,5Z" style="fill:#cf391e;fill-rule:nonzero;"/></g><path d="M233.333,206.25c-113.333,-0 -233.333,-30 -233.333,-85.417c0,-5 1.25,-10.416 3.333,-15.416c-2.083,-5 -3.333,-10.834 -3.333,-16.25c0,-23.75 19.583,-42.5 43.333,-41.667c4.584,-17.917 20.834,-31.25 40.417,-31.25c5.833,0 11.25,1.25 16.667,3.333c7.916,-9.583 19.583,-15.416 32.5,-15.416c10.416,-0 20,3.75 27.916,10.416c10.417,-5.416 23.334,-5.833 34.584,-1.666c7.916,-8.334 18.75,-12.917 30.416,-12.917c12.917,0 24.584,5.833 32.5,15.417c8.75,-5 19.167,-6.667 29.167,-4.584c6.667,-4.583 14.583,-7.083 22.917,-7.083c11.25,0 21.666,4.167 29.166,12.083l1.667,0c7.917,-7.5 18.333,-12.083 29.167,-12.083c16.25,0 30.833,9.167 37.916,23.75c10,3.333 18.334,10.833 23.334,20c20.416,2.917 36.25,20.417 36.25,41.25c-0,5.833 -1.25,11.667 -3.75,17.083c2.083,5 2.916,9.584 2.916,14.584c-0.416,55.833 -120.416,85.833 -233.75,85.833Zm-191.666,-137.917c-11.667,0 -20.834,9.584 -20.834,20.834c0,3.75 1.25,7.5 2.917,10.833l3.333,5.417l-3.333,5.416c-2.083,3.334 -2.917,6.667 -2.917,9.584c0,30.833 87.084,64.583 212.5,64.583c125.417,0 212.5,-34.167 212.5,-64.583c0,-2.917 -0.833,-6.25 -2.916,-9.584l-3.334,-5.416l3.334,-5.417c2.083,-3.333 3.333,-7.083 3.333,-11.25c0,-11.667 -9.583,-20.833 -20.833,-20.833l-9.167,0.416l-2.5,-7.5c-2.5,-7.5 -8.333,-12.916 -15.833,-14.166l-6.25,-1.25l-1.667,-5.834c-2.917,-8.75 -10.833,-14.583 -20,-14.583c-6.667,0 -12.5,2.917 -16.667,8.333l-3.75,4.584l-5.833,-0.834c-2.083,-0.416 -4.583,-0.416 -7.083,0.417l-6.667,1.25l-3.333,-5.417c-4.167,-5.416 -10,-8.333 -16.667,-8.333c-5,-0 -10,1.667 -13.75,5.417l-4.583,4.166l-5.834,-2.083c-8.333,-2.917 -17.083,-0.417 -22.916,5.833l-11.667,13.334l-5.833,-16.667c-2.917,-8.333 -10.834,-13.75 -19.584,-13.75c-7.5,-0 -14.583,4.167 -18.333,10.833l-5.833,10.417l-9.584,-7.083c-7.916,-5.834 -18.75,-5 -26.25,1.25l-8.75,7.916l-6.666,-9.583c-3.75,-5.833 -10.417,-9.167 -17.5,-9.167c-8.334,0 -16.25,5 -19.167,12.917l-5.417,12.917l-10.833,-9.167c-3.75,-3.333 -8.333,-5 -13.333,-5c-11.667,0 -20.834,9.583 -20.834,20.833l0,0.834l0.834,16.25l-15,-5.417c-2.5,-1.25 -5,-1.667 -7.5,-1.667Z" style="fill:#282f39;fill-rule:nonzero;"/><g><ellipse cx="32.5" cy="89.583" rx="5" ry="9.583" style="fill:#fff;"/><path d="M69.155,54.569c0.962,-5.201 3.946,-9.016 6.66,-8.514c2.713,0.502 4.135,5.132 3.173,10.333c-0.962,5.201 -3.946,9.016 -6.66,8.514c-2.713,-0.502 -4.135,-5.132 -3.173,-10.333Z" style="fill:#fff;"/><path d="M119.803,39.924c1.737,-4.996 5.263,-8.317 7.869,-7.411c2.607,0.906 3.314,5.698 1.577,10.694c-1.736,4.996 -5.262,8.317 -7.869,7.411c-2.607,-0.906 -3.313,-5.698 -1.577,-10.694Z" style="fill:#fff;"/><path d="M181.949,47.439c-4.053,-3.399 -5.903,-7.875 -4.13,-9.99c1.773,-2.114 6.503,-1.071 10.556,2.328c4.052,3.398 5.903,7.874 4.13,9.989c-1.774,2.114 -6.504,1.071 -10.556,-2.327Z" style="fill:#fff;"/><path d="M227.974,38.031c-4.052,-3.399 -5.903,-7.875 -4.13,-9.99c1.774,-2.114 6.504,-1.071 10.556,2.328c4.053,3.398 5.903,7.874 4.13,9.989c-1.773,2.114 -6.503,1.071 -10.556,-2.327Z" style="fill:#fff;"/><path d="M277.136,46.086c-4.786,2.253 -9.625,2.056 -10.8,-0.441c-1.176,-2.496 1.754,-6.353 6.54,-8.606c4.785,-2.253 9.624,-2.055 10.8,0.441c1.175,2.497 -1.755,6.353 -6.54,8.606Z" style="fill:#fff;"/><path d="M310.009,41.033c-5.196,-0.991 -8.994,-3.996 -8.477,-6.707c0.517,-2.711 5.155,-4.107 10.351,-3.116c5.195,0.991 8.993,3.997 8.476,6.708c-0.517,2.71 -5.155,4.106 -10.35,3.115Z" style="fill:#fff;"/><path d="M368.457,41.684c-4.454,2.852 -9.279,3.28 -10.766,0.956c-1.488,-2.324 0.921,-6.526 5.375,-9.378c4.455,-2.851 9.279,-3.279 10.767,-0.955c1.488,2.324 -0.921,6.526 -5.376,9.377Z" style="fill:#fff;"/><path d="M396.818,62.773c-4.63,-2.557 -7.306,-6.593 -5.972,-9.009c1.333,-2.416 6.175,-2.302 10.805,0.255c4.63,2.556 7.307,6.593 5.973,9.008c-1.334,2.416 -6.176,2.302 -10.806,-0.254Z" style="fill:#fff;"/><path d="M425.02,84.439c-5.248,-0.661 -9.229,-3.421 -8.884,-6.159c0.345,-2.738 4.886,-4.424 10.134,-3.763c5.248,0.661 9.228,3.421 8.883,6.159c-0.345,2.738 -4.885,4.424 -10.133,3.763Z" style="fill:#fff;"/></g></g></g></svg>