<?xml version="1.0" encoding="UTF-8" standalone="no"?><!DOCTYPE svg PUBLIC "-//W3C//DTD SVG 1.1//EN" "http://www.w3.org/Graphics/SVG/1.1/DTD/svg11.dtd"><svg width="100%" height="100%" viewBox="0 0 467 583" version="1.1" xmlns="http://www.w3.org/2000/svg" xmlns:xlink="http://www.w3.org/1999/xlink" xml:space="preserve" xmlns:serif="http://www.serif.com/" style="fill-rule:evenodd;clip-rule:evenodd;stroke-linejoin:round;stroke-miterlimit:2;"><g><g><path d="M10,110l0,387.083c0,41.667 100,75 222.917,75c123.333,0 222.916,-33.75 222.916,-75l0,-387.083l-445.833,0Z" style="fill:#474952;fill-rule:nonzero;"/><g><path d="M422.917,201.25c-2.084,0 -3.75,1.25 -5,2.5c-0.834,0.833 -0.834,2.083 -0.834,3.333c0,0.834 0,1.667 0.417,2.5c0.833,2.084 2.917,3.75 5.417,3.75c2.5,0 4.583,-1.666 5.416,-3.75c0.417,-0.833 0.417,-1.666 0.417,-2.5c0,-1.25 -0.417,-2.5 -0.833,-3.333c-0.834,-1.25 -2.917,-2.5 -5,-2.5Z" style="fill:#3c3b40;fill-rule:nonzero;"/><circle cx="422.917" cy="147.5" r="5.833" style="fill:#3c3b40;"/><circle cx="392.917" cy="177.5" r="5.833" style="fill:#3c3b40;"/><path d="M447.083,177.5c0,3.333 2.5,5.833 5.834,5.833c1.25,0 2.083,-0.416 2.916,-0.833l0,-10.417c-0.833,-0.416 -2.083,-0.833 -2.916,-0.833c-2.917,0 -5.834,2.917 -5.834,6.25Z" style="fill:#3c3b40;fill-rule:nonzero;"/><circle cx="392.917" cy="117.5" r="5.833" style="fill:#3c3b40;"/><path d="M452.917,111.25c-3.334,0 -5.834,2.5 -5.834,5.833c0,3.334 2.5,5.834 5.834,5.834c1.25,-0 2.083,-0.417 2.916,-0.834l0,-10.416c-0.416,-0 -1.666,-0.417 -2.916,-0.417Z" style="fill:#3c3b40;fill-rule:nonzero;"/><path d="M364.167,201.667l-1.25,-0c-0.834,-0 -1.667,-0 -2.5,0.416c-1.25,0.417 -2.084,1.25 -2.5,2.084c-0.834,0.833 -0.834,2.083 -0.834,3.333c0,0.833 0,1.667 0.417,2.5c0.417,1.25 1.667,2.5 3.333,3.333c0.834,0.417 1.667,0.417 2.5,0.417l1.25,0c2.084,-0.417 3.75,-1.667 4.167,-3.333c0.417,-0.834 0.417,-1.667 0.417,-2.5c-0,-1.25 -0.417,-2.5 -0.834,-3.334c-1.25,-1.666 -2.5,-2.916 -4.166,-2.916Z" style="fill:#3c3b40;fill-rule:nonzero;"/><path d="M364.167,141.667l-1.25,-0c-0.834,-0 -1.667,-0 -2.5,0.416c-2.084,0.834 -3.75,2.917 -3.75,5.417c-0,2.5 1.666,4.583 3.75,5.417c0.833,0.416 1.666,0.416 2.5,0.416l1.25,0c2.916,-0.416 4.583,-2.916 4.583,-5.833c0.417,-2.917 -1.667,-5.417 -4.583,-5.833Z" style="fill:#3c3b40;fill-rule:nonzero;"/><path d="M422.917,321.25c-2.917,0 -5.417,2.083 -5.834,4.583l0,1.25c0,3.334 2.5,5.834 5.834,5.834c3.333,-0 5.833,-2.5 5.833,-5.834l-0,-1.25c-0.417,-2.5 -2.917,-4.583 -5.833,-4.583Z" style="fill:#3c3b40;fill-rule:nonzero;"/><circle cx="422.917" cy="267.5" r="5.833" style="fill:#3c3b40;"/><circle cx="392.917" cy="297.5" r="5.833" style="fill:#3c3b40;"/><path d="M447.083,297.5c0,3.333 2.5,5.833 5.834,5.833c1.25,0 2.083,-0.416 2.916,-0.833l0,-10.417c-0.833,-0.416 -2.083,-0.833 -2.916,-0.833c-2.917,0 -5.834,2.917 -5.834,6.25Z" style="fill:#3c3b40;fill-rule:nonzero;"/><circle cx="392.917" cy="237.5" r="5.833" style="fill:#3c3b40;"/><path d="M447.083,237.5c0,3.333 2.5,5.833 5.834,5.833c1.25,0 2.083,-0.416 2.916,-0.833l0,-10.417c-0.833,-0.416 -2.083,-0.833 -2.916,-0.833c-2.917,0 -5.834,2.917 -5.834,6.25Z" style="fill:#3c3b40;fill-rule:nonzero;"/><path d="M364.167,321.667l-1.25,-0c-0.834,-0 -1.667,-0 -2.5,0.416c-1.667,0.834 -3.334,2.5 -3.75,4.167l-0,1.25c-0,2.5 1.666,4.583 3.75,5.417c0.833,0.416 1.666,0.416 2.5,0.416l1.25,0c2.916,-0.416 4.583,-2.916 4.583,-5.833l0,-1.25c-0.417,-2.5 -2.083,-4.167 -4.583,-4.583Z" style="fill:#3c3b40;fill-rule:nonzero;"/><path d="M364.167,261.667l-1.25,-0c-0.834,-0 -1.667,-0 -2.5,0.416c-2.084,0.834 -3.75,2.917 -3.75,5.417c-0,2.5 1.666,4.583 3.75,5.417c0.833,0.416 1.666,0.416 2.5,0.416l1.25,0c2.916,-0.416 4.583,-2.916 4.583,-5.833c0.417,-2.917 -1.667,-5.417 -4.583,-5.833Z" style="fill:#3c3b40;fill-rule:nonzero;"/><path d="M422.917,441.25c-2.084,0 -3.75,1.25 -5,2.5c-0.834,0.833 -0.834,2.083 -0.834,3.333c0,0.834 0,1.667 0.417,2.5c0.833,2.084 2.917,3.75 5.417,3.75c2.5,0 4.583,-1.666 5.416,-3.75c0.417,-0.833 0.417,-1.666 0.417,-2.5c0,-1.25 -0.417,-2.5 -0.833,-3.333c-0.834,-1.25 -2.917,-2.5 -5,-2.5Z" style="fill:#3c3b40;fill-rule:nonzero;"/><circle cx="422.917" cy="387.5" r="5.833" style="fill:#3c3b40;"/><circle cx="392.917" cy="417.5" r="5.833" style="fill:#3c3b40;"/><path d="M447.083,417.5c0,3.333 2.5,5.833 5.834,5.833c1.25,0 2.083,-0.416 2.916,-0.833l0,-10.417c-0.833,-0.416 -2.083,-0.833 -2.916,-0.833c-2.917,0 -5.834,2.917 -5.834,6.25Z" style="fill:#3c3b40;fill-rule:nonzero;"/><circle cx="392.917" cy="357.5" r="5.833" style="fill:#3c3b40;"/><path d="M447.083,357.5c0,3.333 2.5,5.833 5.834,5.833c1.25,0 2.083,-0.416 2.916,-0.833l0,-10.417c-0.833,-0.416 -2.083,-0.833 -2.916,-0.833c-2.917,0 -5.834,2.917 -5.834,6.25Z" style="fill:#3c3b40;fill-rule:nonzero;"/><path d="M364.167,441.667l-1.25,-0c-0.834,-0 -1.667,-0 -2.5,0.416c-1.25,0.417 -2.084,1.25 -2.5,2.084c-0.834,0.833 -0.834,2.083 -0.834,3.333c0,0.833 0,1.667 0.417,2.5c0.417,1.25 1.667,2.5 3.333,3.333c0.834,0.417 1.667,0.417 2.5,0.417l1.25,0c2.084,-0.417 3.75,-1.667 4.167,-3.333c0.417,-0.834 0.417,-1.667 0.417,-2.5c-0,-1.25 -0.417,-2.5 -0.834,-3.334c-1.25,-1.666 -2.5,-2.916 -4.166,-2.916Z" style="fill:#3c3b40;fill-rule:nonzero;"/><path d="M364.167,381.667l-1.25,-0c-0.834,-0 -1.667,-0 -2.5,0.416c-2.084,0.834 -3.75,2.917 -3.75,5.417c-0,2.5 1.666,4.583 3.75,5.417c0.833,0.416 1.666,0.416 2.5,0.416l1.25,0c2.916,-0.416 4.583,-2.916 4.583,-5.833c0.417,-2.917 -1.667,-5.417 -4.583,-5.833Z" style="fill:#3c3b40;fill-rule:nonzero;"/><circle cx="422.917" cy="507.5" r="5.833" style="fill:#3c3b40;"/><circle cx="392.917" cy="537.5" r="5.833" style="fill:#3c3b40;"/><circle cx="392.917" cy="477.5" r="5.833" style="fill:#3c3b40;"/><path d="M447.083,477.5c0,3.333 2.5,5.833 5.834,5.833c1.25,0 2.083,-0.416 2.916,-0.833l0,-10.417c-0.833,-0.416 -2.083,-0.833 -2.916,-0.833c-2.917,0 -5.834,2.917 -5.834,6.25Z" style="fill:#3c3b40;fill-rule:nonzero;"/><path d="M364.167,501.667l-1.25,-0c-0.834,-0 -1.667,-0 -2.5,0.416c-2.084,0.834 -3.75,2.917 -3.75,5.417c-0,2.5 1.666,4.583 3.75,5.417c0.833,0.416 1.666,0.416 2.5,0.416l1.25,0c2.916,-0.416 4.583,-2.916 4.583,-5.833c0.417,-2.917 -1.667,-5.417 -4.583,-5.833Z" style="fill:#3c3b40;fill-rule:nonzero;"/><path d="M302.917,201.25c-2.084,0 -3.75,1.25 -5,2.5c-0.834,0.833 -0.834,2.083 -0.834,3.333c0,0.834 0,1.667 0.417,2.5c0.833,2.084 2.917,3.75 5.417,3.75c2.5,0 4.583,-1.666 5.416,-3.75c0.417,-0.833 0.417,-1.666 0.417,-2.5c0,-1.25 -0.417,-2.5 -0.833,-3.333c-0.834,-1.25 -2.917,-2.5 -5,-2.5Z" style="fill:#3c3b40;fill-rule:nonzero;"/><circle cx="302.917" cy="147.5" r="5.833" style="fill:#3c3b40;"/><circle cx="272.917" cy="177.5" r="5.833" style="fill:#3c3b40;"/><circle cx="332.917" cy="177.5" r="5.833" style="fill:#3c3b40;"/><circle cx="272.917" cy="117.5" r="5.833" style="fill:#3c3b40;"/><circle cx="332.917" cy="117.5" r="5.833" style="fill:#3c3b40;"/><path d="M246.667,202.5c-0.834,-0.833 -2.084,-0.833 -3.334,-0.833c-0.833,-0 -1.666,-0 -2.5,0.416c-1.25,0.417 -2.083,1.25 -2.5,2.084c-0.833,0.833 -0.833,2.083 -0.833,3.333c0,0.833 0,1.667 0.417,2.5c0.416,1.25 1.666,2.5 3.333,3.333c0.833,0.417 1.667,0.417 2.5,0.417c1.25,0 2.5,-0.417 3.333,-0.833c0.834,-0.417 1.667,-1.667 2.084,-2.5c0.416,-0.834 0.416,-1.667 0.416,-2.5c0,-1.25 -0.416,-2.5 -0.833,-3.334c-1.25,-1.25 -1.667,-1.666 -2.083,-2.083Z" style="fill:#3c3b40;fill-rule:nonzero;"/><path d="M246.667,142.5c-0.834,-0.833 -2.084,-0.833 -3.334,-0.833c-0.833,-0 -1.666,-0 -2.5,0.416c-2.083,0.834 -3.75,2.917 -3.75,5.417c0,2.5 1.667,4.583 3.75,5.417c0.834,0.416 1.667,0.416 2.5,0.416c1.25,0 2.5,-0.416 3.334,-0.833c1.666,-1.25 2.5,-2.917 2.5,-5c-0,-2.083 -1.25,-4.167 -2.5,-5Z" style="fill:#3c3b40;fill-rule:nonzero;"/><path d="M302.917,321.25c-2.917,0 -5.417,2.083 -5.834,4.583l0,1.25c0,3.334 2.5,5.834 5.834,5.834c3.333,-0 5.833,-2.5 5.833,-5.834l-0,-1.25c-0.417,-2.5 -2.917,-4.583 -5.833,-4.583Z" style="fill:#3c3b40;fill-rule:nonzero;"/><circle cx="302.917" cy="267.5" r="5.833" style="fill:#3c3b40;"/><circle cx="272.917" cy="297.5" r="5.833" style="fill:#3c3b40;"/><circle cx="332.917" cy="297.5" r="5.833" style="fill:#3c3b40;"/><circle cx="272.917" cy="237.5" r="5.833" style="fill:#3c3b40;"/><circle cx="332.917" cy="237.5" r="5.833" style="fill:#3c3b40;"/><path d="M246.667,322.5c-0.834,-0.833 -2.084,-0.833 -3.334,-0.833c-0.833,-0 -1.666,-0 -2.5,0.416c-1.666,0.834 -3.333,2.5 -3.75,4.167l0,1.25c0,2.5 1.667,4.583 3.75,5.417c0.834,0.416 1.667,0.416 2.5,0.416c1.25,0 2.5,-0.416 3.334,-0.833c1.666,-1.25 2.5,-2.917 2.5,-5l-0,-1.25c-0.417,-1.667 -1.25,-2.917 -2.5,-3.75Z" style="fill:#3c3b40;fill-rule:nonzero;"/><path d="M246.667,262.5c-0.834,-0.833 -2.084,-0.833 -3.334,-0.833c-0.833,-0 -1.666,-0 -2.5,0.416c-2.083,0.834 -3.75,2.917 -3.75,5.417c0,2.5 1.667,4.583 3.75,5.417c0.834,0.416 1.667,0.416 2.5,0.416c1.25,0 2.5,-0.416 3.334,-0.833c1.666,-1.25 2.5,-2.917 2.5,-5c-0,-2.083 -1.25,-4.167 -2.5,-5Z" style="fill:#3c3b40;fill-rule:nonzero;"/><path d="M302.917,441.25c-2.084,0 -3.75,1.25 -5,2.5c-0.834,0.833 -0.834,2.083 -0.834,3.333c0,0.834 0,1.667 0.417,2.5c0.833,2.084 2.917,3.75 5.417,3.75c2.5,0 4.583,-1.666 5.416,-3.75c0.417,-0.833 0.417,-1.666 0.417,-2.5c0,-1.25 -0.417,-2.5 -0.833,-3.333c-0.834,-1.25 -2.917,-2.5 -5,-2.5Z" style="fill:#3c3b40;fill-rule:nonzero;"/><circle cx="302.917" cy="387.5" r="5.833" style="fill:#3c3b40;"/><circle cx="272.917" cy="417.5" r="5.833" style="fill:#3c3b40;"/><circle cx="332.917" cy="417.5" r="5.833" style="fill:#3c3b40;"/><circle cx="272.917" cy="357.5" r="5.833" style="fill:#3c3b40;"/><circle cx="332.917" cy="357.5" r="5.833" style="fill:#3c3b40;"/><path d="M246.667,442.5c-0.834,-0.833 -2.084,-0.833 -3.334,-0.833c-0.833,-0 -1.666,-0 -2.5,0.416c-1.25,0.417 -2.083,1.25 -2.5,2.084c-0.833,0.833 -0.833,2.083 -0.833,3.333c0,0.833 0,1.667 0.417,2.5c0.416,1.25 1.666,2.5 3.333,3.333c0.833,0.417 1.667,0.417 2.5,0.417c1.25,0 2.5,-0.417 3.333,-0.833c0.834,-0.417 1.667,-1.667 2.084,-2.5c0.416,-0.834 0.416,-1.667 0.416,-2.5c0,-1.25 -0.416,-2.5 -0.833,-3.334c-1.25,-1.25 -1.667,-1.666 -2.083,-2.083Z" style="fill:#3c3b40;fill-rule:nonzero;"/><path d="M246.667,382.5c-0.834,-0.833 -2.084,-0.833 -3.334,-0.833c-0.833,-0 -1.666,-0 -2.5,0.416c-2.083,0.834 -3.75,2.917 -3.75,5.417c0,2.5 1.667,4.583 3.75,5.417c0.834,0.416 1.667,0.416 2.5,0.416c1.25,0 2.5,-0.416 3.334,-0.833c1.666,-1.25 2.5,-2.917 2.5,-5c-0,-2.083 -1.25,-4.167 -2.5,-5Z" style="fill:#3c3b40;fill-rule:nonzero;"/><path d="M302.917,561.25c-2.917,0 -5.417,2.083 -5.834,4.583l0,1.25c0,0.834 0,1.25 0.417,2.084c3.75,-0.417 7.917,-0.834 11.667,-1.25l-0,-2.084c-0.834,-2.5 -3.334,-4.583 -6.25,-4.583Z" style="fill:#3c3b40;fill-rule:nonzero;"/><circle cx="302.917" cy="507.5" r="5.833" style="fill:#3c3b40;"/><circle cx="272.917" cy="537.5" r="5.833" style="fill:#3c3b40;"/><circle cx="332.917" cy="537.5" r="5.833" style="fill:#3c3b40;"/><circle cx="272.917" cy="477.5" r="5.833" style="fill:#3c3b40;"/><circle cx="332.917" cy="477.5" r="5.833" style="fill:#3c3b40;"/><path d="M246.667,562.5c-0.834,-0.833 -2.084,-0.833 -3.334,-0.833c-0.833,-0 -1.666,-0 -2.5,0.416c-1.666,0.834 -3.333,2.5 -3.75,4.167l0,1.25c0,2.083 1.25,4.167 2.917,5l6.25,0c1.667,-1.25 2.5,-2.917 2.5,-5l0,-1.25c0,-1.667 -0.833,-2.917 -2.083,-3.75Z" style="fill:#3c3b40;fill-rule:nonzero;"/><path d="M246.667,502.5c-0.834,-0.833 -2.084,-0.833 -3.334,-0.833c-0.833,-0 -1.666,-0 -2.5,0.416c-2.083,0.834 -3.75,2.917 -3.75,5.417c0,2.5 1.667,4.583 3.75,5.417c0.834,0.416 1.667,0.416 2.5,0.416c1.25,0 2.5,-0.416 3.334,-0.833c1.666,-1.25 2.5,-2.917 2.5,-5c-0,-2.083 -1.25,-4.167 -2.5,-5Z" style="fill:#3c3b40;fill-rule:nonzero;"/><path d="M182.917,201.25c-2.084,0 -3.75,1.25 -5,2.5c-0.834,0.833 -0.834,2.083 -0.834,3.333c0,0.834 0,1.667 0.417,2.5c0.833,2.084 2.917,3.75 5.417,3.75c2.5,0 4.583,-1.666 5.416,-3.75c0.417,-0.833 0.417,-1.666 0.417,-2.5c0,-1.25 -0.417,-2.5 -0.833,-3.333c-0.834,-1.25 -2.917,-2.5 -5,-2.5Z" style="fill:#3c3b40;fill-rule:nonzero;"/><circle cx="182.917" cy="147.5" r="5.833" style="fill:#3c3b40;"/><circle cx="152.917" cy="177.5" r="5.833" style="fill:#3c3b40;"/><circle cx="212.917" cy="177.5" r="5.833" style="fill:#3c3b40;"/><circle cx="152.917" cy="117.5" r="5.833" style="fill:#3c3b40;"/><circle cx="212.917" cy="117.5" r="5.833" style="fill:#3c3b40;"/><path d="M122.917,201.25c-2.084,0 -3.75,1.25 -5,2.5c-0.834,0.833 -0.834,2.083 -0.834,3.333c0,0.834 0,1.667 0.417,2.5c0.833,2.084 2.917,3.75 5.417,3.75c2.5,0 4.583,-1.666 5.416,-3.75c0.417,-0.833 0.417,-1.666 0.417,-2.5c0,-1.25 -0.417,-2.5 -0.833,-3.333c-0.834,-1.25 -2.917,-2.5 -5,-2.5Z" style="fill:#3c3b40;fill-rule:nonzero;"/><circle cx="122.917" cy="147.5" r="5.833" style="fill:#3c3b40;"/><path d="M182.917,321.25c-2.917,0 -5.417,2.083 -5.834,4.583l0,1.25c0,3.334 2.5,5.834 5.834,5.834c3.333,-0 5.833,-2.5 5.833,-5.834l0,-1.25c-0.417,-2.5 -2.917,-4.583 -5.833,-4.583Z" style="fill:#3c3b40;fill-rule:nonzero;"/><circle cx="182.917" cy="267.5" r="5.833" style="fill:#3c3b40;"/><circle cx="152.917" cy="297.5" r="5.833" style="fill:#3c3b40;"/><circle cx="212.917" cy="297.5" r="5.833" style="fill:#3c3b40;"/><circle cx="152.917" cy="237.5" r="5.833" style="fill:#3c3b40;"/><circle cx="212.917" cy="237.5" r="5.833" style="fill:#3c3b40;"/><path d="M122.917,321.25c-2.917,0 -5.417,2.083 -5.834,4.583l0,1.25c0,3.334 2.5,5.834 5.834,5.834c3.333,-0 5.833,-2.5 5.833,-5.834l0,-1.25c-0.417,-2.5 -2.917,-4.583 -5.833,-4.583Z" style="fill:#3c3b40;fill-rule:nonzero;"/><circle cx="122.917" cy="267.5" r="5.833" style="fill:#3c3b40;"/><path d="M182.917,441.25c-2.084,0 -3.75,1.25 -5,2.5c-0.834,0.833 -0.834,2.083 -0.834,3.333c0,0.834 0,1.667 0.417,2.5c0.833,2.084 2.917,3.75 5.417,3.75c2.5,0 4.583,-1.666 5.416,-3.75c0.417,-0.833 0.417,-1.666 0.417,-2.5c0,-1.25 -0.417,-2.5 -0.833,-3.333c-0.834,-1.25 -2.917,-2.5 -5,-2.5Z" style="fill:#3c3b40;fill-rule:nonzero;"/><circle cx="182.917" cy="387.5" r="5.833" style="fill:#3c3b40;"/><circle cx="152.917" cy="417.5" r="5.833" style="fill:#3c3b40;"/><circle cx="212.917" cy="417.5" r="5.833" style="fill:#3c3b40;"/><circle cx="152.917" cy="357.5" r="5.833" style="fill:#3c3b40;"/><circle cx="212.917" cy="357.5" r="5.833" style="fill:#3c3b40;"/><path d="M122.917,441.25c-2.084,0 -3.75,1.25 -5,2.5c-0.834,0.833 -0.834,2.083 -0.834,3.333c0,0.834 0,1.667 0.417,2.5c0.833,2.084 2.917,3.75 5.417,3.75c2.5,0 4.583,-1.666 5.416,-3.75c0.417,-0.833 0.417,-1.666 0.417,-2.5c0,-1.25 -0.417,-2.5 -0.833,-3.333c-0.834,-1.25 -2.917,-2.5 -5,-2.5Z" style="fill:#3c3b40;fill-rule:nonzero;"/><circle cx="122.917" cy="387.5" r="5.833" style="fill:#3c3b40;"/><path d="M182.917,561.25c-2.917,0 -5.417,2.083 -5.834,4.583l0,1.25c0,1.25 0.417,2.084 0.834,2.917c3.333,0.417 6.666,0.417 10,0.833c0.833,-0.833 1.25,-2.083 1.25,-3.75l-0,-1.25c-0.834,-2.5 -3.334,-4.583 -6.25,-4.583Z" style="fill:#3c3b40;fill-rule:nonzero;"/><circle cx="182.917" cy="507.5" r="5.833" style="fill:#3c3b40;"/><circle cx="152.917" cy="537.5" r="5.833" style="fill:#3c3b40;"/><circle cx="212.917" cy="537.5" r="5.833" style="fill:#3c3b40;"/><circle cx="152.917" cy="477.5" r="5.833" style="fill:#3c3b40;"/><circle cx="212.917" cy="477.5" r="5.833" style="fill:#3c3b40;"/><path d="M122.917,561.25c-1.25,0 -2.084,0.417 -2.917,0.833c0.833,0 2.083,0.417 2.917,0.417c1.666,0.417 3.333,0.417 4.583,0.833c-0.833,-0.833 -2.5,-2.083 -4.583,-2.083Z" style="fill:#3c3b40;fill-rule:nonzero;"/><circle cx="122.917" cy="507.5" r="5.833" style="fill:#3c3b40;"/><path d="M62.917,201.25c-2.084,0 -3.75,1.25 -5,2.5c-0.834,0.833 -0.834,2.083 -0.834,3.333c0,0.834 0,1.667 0.417,2.5c0.833,2.084 2.917,3.75 5.417,3.75c2.5,0 4.583,-1.666 5.416,-3.75c0.417,-0.833 0.417,-1.666 0.417,-2.5c0,-1.25 -0.417,-2.5 -0.833,-3.333c-0.834,-1.25 -2.917,-2.5 -5,-2.5Z" style="fill:#3c3b40;fill-rule:nonzero;"/><circle cx="62.917" cy="147.5" r="5.833" style="fill:#3c3b40;"/><circle cx="32.917" cy="177.5" r="5.833" style="fill:#3c3b40;"/><circle cx="92.917" cy="177.5" r="5.833" style="fill:#3c3b40;"/><circle cx="32.917" cy="117.5" r="5.833" style="fill:#3c3b40;"/><circle cx="92.917" cy="117.5" r="5.833" style="fill:#3c3b40;"/><path d="M62.917,321.25c-2.917,0 -5.417,2.083 -5.834,4.583l0,1.25c0,3.334 2.5,5.834 5.834,5.834c3.333,-0 5.833,-2.5 5.833,-5.834l0,-1.25c-0.417,-2.5 -2.917,-4.583 -5.833,-4.583Z" style="fill:#3c3b40;fill-rule:nonzero;"/><circle cx="62.917" cy="267.5" r="5.833" style="fill:#3c3b40;"/><circle cx="32.917" cy="297.5" r="5.833" style="fill:#3c3b40;"/><circle cx="92.917" cy="297.5" r="5.833" style="fill:#3c3b40;"/><circle cx="32.917" cy="237.5" r="5.833" style="fill:#3c3b40;"/><circle cx="92.917" cy="237.5" r="5.833" style="fill:#3c3b40;"/><path d="M62.917,441.25c-2.084,0 -3.75,1.25 -5,2.5c-0.834,0.833 -0.834,2.083 -0.834,3.333c0,0.834 0,1.667 0.417,2.5c0.833,2.084 2.917,3.75 5.417,3.75c2.5,0 4.583,-1.666 5.416,-3.75c0.417,-0.833 0.417,-1.666 0.417,-2.5c0,-1.25 -0.417,-2.5 -0.833,-3.333c-0.834,-1.25 -2.917,-2.5 -5,-2.5Z" style="fill:#3c3b40;fill-rule:nonzero;"/><circle cx="62.917" cy="387.5" r="5.833" style="fill:#3c3b40;"/><circle cx="32.917" cy="417.5" r="5.833" style="fill:#3c3b40;"/><circle cx="92.917" cy="417.5" r="5.833" style="fill:#3c3b40;"/><circle cx="32.917" cy="357.5" r="5.833" style="fill:#3c3b40;"/><circle cx="92.917" cy="357.5" r="5.833" style="fill:#3c3b40;"/><circle cx="62.917" cy="507.5" r="5.833" style="fill:#3c3b40;"/><path d="M37.917,533.75c-0.834,-1.25 -2.084,-1.667 -3.334,-2.083c0.834,0.833 2.084,1.25 3.334,2.083Z" style="fill:#3c3b40;fill-rule:nonzero;"/><circle cx="92.917" cy="537.5" r="5.833" style="fill:#3c3b40;"/><circle cx="32.917" cy="477.5" r="5.833" style="fill:#3c3b40;"/><circle cx="92.917" cy="477.5" r="5.833" style="fill:#3c3b40;"/></g><path d="M10,449.167c29.583,85.833 198.333,75 277.5,-6.25c82.5,-85 134.583,-179.167 105.833,-332.917l-383.333,0l0,339.167Z" style="fill:#616169;fill-rule:nonzero;"/><path d="M233.333,582.917c-113.333,-0 -233.333,-30 -233.333,-85.417l0,-397.5l466.667,0l-0,397.5c-0,55.417 -120.417,85.417 -233.334,85.417Zm-212.916,-462.5l-0,376.666c-0,30.834 87.083,64.584 212.5,64.584c125.416,-0 212.5,-34.167 212.5,-64.584l-0,-376.666l-425,-0Z" style="fill:#282f39;fill-rule:nonzero;"/><path d="M406.25,62.917c5,-15.417 4.583,-29.167 -1.25,-31.25c-6.25,-2.084 -15.417,7.916 -21.667,22.916c-39.583,-12.083 -92.083,-19.583 -149.583,-19.583c-30.833,0 -60.417,2.083 -87.083,5.833c-0,-0.833 -0.417,-1.25 -0.417,-2.083c-3.333,-17.083 -11.667,-30 -18.333,-28.75c-6.667,1.25 -9.167,16.25 -5.834,33.75c0,0.417 0,0.833 0.417,1.25c-18.75,3.75 -35.417,8.333 -50.417,13.333c-2.5,-2.083 -5,-4.166 -7.916,-5.833c-14.584,-9.583 -29.584,-13.333 -33.334,-7.5c-3.333,5 3.334,15.417 15,24.583c-22.083,11.667 -35.416,25.417 -35.416,40.417c-0,41.667 100,75 222.916,75c123.334,0 222.917,-33.75 222.917,-75c0,-17.917 -18.75,-34.167 -50,-47.083Z" style="fill:#fbfbe8;fill-rule:nonzero;"/><path d="M406.25,62.917c5,-15.417 4.583,-29.167 -1.25,-31.25c-6.25,-2.084 -15.417,7.916 -21.667,22.916c-0.416,0 -0.833,-0.416 -1.25,-0.416c2.084,4.166 3.334,8.333 3.334,12.916c-0,41.667 -100,75 -222.917,75c-57.083,0 -109.167,-7.083 -148.333,-19.166c18.333,35.416 109.583,62.083 219.583,62.083c123.333,0 222.917,-33.75 222.917,-75c-0.417,-17.917 -19.167,-34.167 -50.417,-47.083Z" style="fill:#ece3ac;fill-rule:nonzero;"/><g><path d="M422.917,81.25c-2.917,0 -5.417,2.083 -5.834,4.583l0,1.25c0,3.334 2.5,5.834 5.834,5.834c3.333,-0 5.833,-2.5 5.833,-5.834l-0,-1.25c-0.417,-2.5 -2.917,-4.583 -5.833,-4.583Z" style="fill:#ccc697;fill-rule:nonzero;"/><circle cx="392.917" cy="57.5" r="5.833" style="fill:#ccc697;"/><path d="M422.917,141.25c-3.334,0 -5.834,2.5 -5.834,5.833c0,1.667 0.834,3.334 1.667,4.167c3.75,-1.667 7.083,-3.75 10,-5.417c-0.417,-2.5 -2.917,-4.583 -5.833,-4.583Z" style="fill:#ccc697;fill-rule:nonzero;"/><circle cx="392.917" cy="117.5" r="5.833" style="fill:#ccc697;"/><path d="M452.917,111.25c-3.334,0 -5.834,2.5 -5.834,5.833c0,3.334 2.5,5.834 5.417,5.834c2.083,-3.75 2.917,-7.5 3.333,-11.25c-0.833,-0 -1.666,-0.417 -2.916,-0.417Z" style="fill:#ccc697;fill-rule:nonzero;"/><path d="M364.167,141.667l-1.25,-0c-0.834,-0 -1.667,-0 -2.5,0.416c-2.084,0.834 -3.75,2.917 -3.75,5.417c-0,2.5 1.666,4.583 3.75,5.417c0.833,0.416 1.666,0.416 2.5,0.416l1.25,0c2.916,-0.416 4.583,-2.916 4.583,-5.833c0.417,-2.917 -1.667,-5.417 -4.583,-5.833Z" style="fill:#ccc697;fill-rule:nonzero;"/><circle cx="302.917" cy="147.5" r="5.833" style="fill:#ccc697;"/><circle cx="272.917" cy="177.5" r="5.833" style="fill:#ccc697;"/><path d="M332.917,171.25c-3.334,0 -5.834,2.5 -5.834,5.833l0,0.834c4.167,-0.834 7.917,-1.25 11.667,-2.084c-0.417,-2.083 -2.5,-4.583 -5.833,-4.583Z" style="fill:#ccc697;fill-rule:nonzero;"/><path d="M327.083,117.5c0,3.333 2.917,5.833 5.834,5.833c3.333,0 5.833,-2.5 5.833,-5.833c-0,-1.667 -0.417,-2.917 -1.667,-4.167c-2.916,1.25 -6.25,2.917 -10,4.167Z" style="fill:#ccc697;fill-rule:nonzero;"/><path d="M246.667,142.5c-0.834,-0.833 -2.084,-0.833 -3.334,-0.833c-0.833,-0 -1.666,-0 -2.5,0.416c-2.083,0.834 -3.75,2.917 -3.75,5.417c0,2.5 1.667,4.583 3.75,5.417c0.834,0.416 1.667,0.416 2.5,0.416c1.25,0 2.5,-0.416 3.334,-0.833c1.666,-1.25 2.5,-2.917 2.5,-5c-0,-2.083 -1.25,-4.167 -2.5,-5Z" style="fill:#ccc697;fill-rule:nonzero;"/><path d="M185.417,141.667l-4.584,-0c-2.083,0.833 -3.333,2.916 -3.333,5.416c0,3.334 2.5,5.834 5.833,5.834c3.334,-0 5.834,-2.5 5.834,-5.834c-0,-2.083 -1.667,-4.583 -3.75,-5.416Z" style="fill:#ccc697;fill-rule:nonzero;"/><path d="M152.917,171.25c-3.334,0 -5.834,2.5 -5.834,5.833c0,0.834 0,1.667 0.417,2.084c3.333,0.416 6.667,0.833 10.417,1.25c0.833,-0.834 1.25,-2.084 1.25,-3.75c-0,-2.5 -2.917,-5.417 -6.25,-5.417Z" style="fill:#ccc697;fill-rule:nonzero;"/><circle cx="212.917" cy="177.5" r="5.833" style="fill:#ccc697;"/><circle cx="122.917" cy="147.5" r="5.833" style="fill:#ccc697;"/><circle cx="62.917" cy="147.5" r="5.833" style="fill:#ccc697;"/></g><path d="M233.333,195.833c-113.333,0 -233.333,-30 -233.333,-85.416c0,-11.25 5.417,-27.084 28.333,-42.5c-9.166,-10.417 -11.666,-20.834 -6.25,-28.334c1.667,-2.916 6.25,-7.5 15.417,-7.5c9.167,0 20.833,4.584 32.083,12.084c1.25,0.833 2.5,1.666 4.167,2.916c11.25,-3.75 23.333,-7.083 36.25,-10c-1.667,-17.5 2.083,-34.166 15.417,-36.666c0.833,-0 2.083,-0.417 2.916,-0.417c12.917,0 21.25,14.583 25.834,29.583c25.416,-3.333 51.666,-4.583 79.166,-4.583c52.917,0 103.334,6.25 144.167,17.5c5,-9.167 13.75,-21.25 25.417,-21.25c2.083,-0 3.75,0.417 5.416,0.833c10.417,3.75 14.167,17.084 10.417,35c39.583,18.334 47.917,39.167 47.917,53.334c-0,55.416 -120.417,85.416 -233.334,85.416Zm-189.583,-141.666c1.667,2.083 4.583,4.583 7.917,7.5l12.916,10l-14.166,7.5c-19.167,10 -29.584,21.25 -29.584,31.25c0,30.833 87.084,64.583 212.5,64.583c125.417,0 212.5,-34.167 212.5,-64.583c0,-12.5 -15.833,-26.25 -43.75,-37.917l-9.166,-3.75l2.916,-9.167c1.667,-5.416 2.5,-9.583 2.917,-12.916c-2.083,2.916 -4.167,6.666 -6.667,12.083l-3.75,8.75l-9.166,-2.917c-40,-12.083 -92.084,-19.166 -146.667,-19.166c-29.583,-0 -58.333,2.083 -85.417,5.833l-10,1.25l-2.083,-11.667c-1.25,-6.666 -3.333,-11.666 -5,-15c-0.417,3.75 0,9.167 1.25,15.834l2.5,11.666l-10.417,2.084c-17.916,3.333 -34.583,7.916 -48.75,12.916l-5.833,2.084l-4.583,-4.167c-2.084,-1.667 -4.167,-3.333 -6.667,-5c-4.583,-3.75 -9.583,-5.833 -13.75,-7.083Z" style="fill:#282f39;fill-rule:nonzero;"/><path d="M157.083,114.167c-5.416,-19.584 35,-44.584 68.334,-46.667c32.916,-2.083 84.583,22.5 84.583,35.417c0,13.333 -24.583,40 -40.833,43.333c-26.667,5.833 -105.417,-9.167 -112.084,-32.083Z" style="fill:#f2685d;fill-rule:nonzero;"/><g><path d="M309.583,102.917c0,-2.5 -2.083,-5.417 -5,-8.334c-4.583,5.417 -8.75,11.25 -12.5,16.667c-7.916,11.25 -15.416,22.917 -22.5,35c16.667,-4.167 40,-30.417 40,-43.333Z" style="fill:#f6968c;fill-rule:nonzero;"/><path d="M259.167,118.75c6.666,-12.917 14.583,-25.833 22.916,-38.333c-4.583,-2.084 -9.166,-3.75 -14.166,-5.834c-6.25,8.334 -12.084,17.084 -17.5,25.834c-8.75,14.166 -16.25,29.166 -22.917,44.583c6.25,0.833 12.083,1.667 17.917,2.083c4.166,-9.583 8.75,-18.75 13.75,-28.333Z" style="fill:#f6968c;fill-rule:nonzero;"/><path d="M212.083,115.417c8.334,-16.25 16.667,-32.084 25.834,-47.5c-4.584,-0.417 -8.75,-0.417 -12.917,-0.417c-5.417,0.417 -11.25,1.25 -16.667,2.917c-7.083,10.833 -13.75,21.666 -19.583,31.666c-5.417,8.75 -10.833,18.334 -15.417,27.5c7.5,3.75 17.084,7.5 27.084,10c3.75,-7.916 7.5,-16.25 11.666,-24.166Z" style="fill:#f6968c;fill-rule:nonzero;"/><path d="M156.667,109.583c1.25,-3.333 2.5,-6.25 3.333,-9.583c-2.083,3.333 -3.333,6.25 -3.333,9.583Z" style="fill:#f6968c;fill-rule:nonzero;"/></g><path d="M254.583,157.917c-28.333,-0 -99.166,-11.667 -107.5,-40.834c-1.666,-5.416 -2.083,-14.166 5.417,-24.583c12.917,-18.333 44.583,-33.75 72.083,-35.417l4.584,0c32.5,0 91.25,23.334 91.25,45.834c-0,18.333 -27.917,49.166 -49.167,53.75c-4.583,0.833 -10,1.25 -16.667,1.25Zm-25.416,-80l-3.334,-0c-22.916,1.25 -48.333,15 -56.25,26.666c-2.083,2.917 -2.916,5 -2.5,6.667c2.917,10.417 50.417,25.833 87.5,25.833c6.25,0 10,-0.416 12.084,-0.833c12.083,-2.5 31.25,-24.167 32.5,-32.5c-5,-7.5 -41.25,-25.833 -70,-25.833Z" style="fill:#282f39;fill-rule:nonzero;"/><path d="M52.083,370.833c-7.916,-55.416 -9.166,-185.416 18.334,-165.833c32.083,22.917 -2.5,275.833 -18.334,165.833Z" style="fill:#fff;fill-rule:nonzero;"/></g></g></svg>