<?xml version="1.0" encoding="UTF-8" standalone="no"?><!DOCTYPE svg PUBLIC "-//W3C//DTD SVG 1.1//EN" "http://www.w3.org/Graphics/SVG/1.1/DTD/svg11.dtd"><svg width="100%" height="100%" viewBox="0 0 622 452" version="1.1" xmlns="http://www.w3.org/2000/svg" xmlns:xlink="http://www.w3.org/1999/xlink" xml:space="preserve" xmlns:serif="http://www.serif.com/" style="fill-rule:evenodd;clip-rule:evenodd;stroke-linejoin:round;stroke-miterlimit:2;"><g><g><path d="M565.306,242.5l0,52.5c16.667,-3.75 31.25,-1.25 33.75,7.083c2.917,8.75 -10,20.834 -28.75,26.667c-2.5,0.833 -5,1.25 -7.5,2.083c-5,22.917 -17.917,43.75 -36.667,58.334c11.667,8.75 18.334,19.166 14.584,25.833c-4.167,8.333 -21.667,7.5 -39.167,-1.25c-3.333,-1.667 -5.833,-3.333 -8.75,-5.417l-37.5,18.75c-43.75,21.667 -94.583,24.167 -140,5.834l-111.25,-44.167c-2.083,2.083 -4.583,4.167 -7.083,5.833c-15.834,11.25 -32.917,14.584 -38.334,7.084c-4.166,-5.834 0.417,-17.084 10.417,-27.084l-39.583,-15.833c-37.084,-14.583 -62.084,-49.583 -64.584,-89.167l-0.416,0c-19.584,0 -35.417,-7.5 -35.417,-17.083c0,-9.167 15.833,-17.083 35.417,-17.083l-0,-45.834l500.833,52.917Z" style="fill:#ece3ac;fill-rule:nonzero;"/><g><path d="M599.056,301.667c-0.417,-1.25 -1.25,-2.5 -2.083,-3.334c-1.25,-1.25 -2.917,-2.5 -5,-2.916c-0.417,0.833 -0.834,2.083 -0.834,3.333c0,0.833 0,1.667 0.417,2.5c0.417,1.25 1.667,2.5 3.333,3.333c0.834,0.417 1.667,0.417 2.5,0.417l1.25,0c0.417,0 0.834,-0.417 1.25,-0.417c-0.833,-1.666 -0.833,-2.083 -0.833,-2.916Z" style="fill:#ccc697;fill-rule:nonzero;"/><path d="M536.556,292.083c-2.083,0 -3.75,1.25 -5,2.5c-0.833,0.834 -0.833,2.084 -0.833,3.334c-0,0.833 -0,1.666 0.416,2.5c0.834,2.083 2.917,3.75 5.417,3.75c2.5,-0 4.583,-1.667 5.417,-3.75c0.416,-0.834 0.416,-1.667 0.416,-2.5c0,-1.25 -0.416,-2.5 -0.833,-3.334c-1.25,-1.25 -2.917,-2.5 -5,-2.5Z" style="fill:#ccc697;fill-rule:nonzero;"/><path d="M536.556,244.167c2.917,-0 5,-1.667 5.833,-4.167l-11.666,-1.25c-0,2.917 2.916,5.417 5.833,5.417Z" style="fill:#ccc697;fill-rule:nonzero;"/><circle cx="506.556" cy="268.333" r="5.833" style="fill:#ccc697;"/><path d="M565.306,274.167l0,-11.667c-2.5,0.833 -4.583,2.917 -4.583,5.833c-0,2.917 1.666,5 4.583,5.834Z" style="fill:#ccc697;fill-rule:nonzero;"/><path d="M479.889,293.333c-0.833,-0.833 -2.083,-0.833 -3.333,-0.833c-2.083,0 -3.75,1.25 -5,2.5c-0.833,0.833 -0.833,2.083 -0.833,3.333c-0,0.834 -0,1.667 0.416,2.5c0.834,2.084 2.917,3.75 5.417,3.75c1.25,0 2.5,-0.416 3.333,-0.833c0.834,-0.417 1.667,-1.667 2.084,-2.5c0.416,-0.833 0.416,-1.667 0.416,-2.5c0,-1.25 -0.416,-2.5 -0.833,-3.333c-0.417,-1.25 -0.833,-1.667 -1.667,-2.084Z" style="fill:#ccc697;fill-rule:nonzero;"/><path d="M480.306,233.333l-3.75,-0.416l-2.5,-0.417c-2.083,0.833 -3.333,2.917 -3.333,5.417c-0,3.333 2.5,5.833 5.833,5.833c1.25,0 2.5,-0.417 3.333,-0.833c1.667,-1.25 2.5,-2.917 2.5,-5c0.417,-1.667 -0.833,-3.334 -2.083,-4.584Z" style="fill:#ccc697;fill-rule:nonzero;"/><path d="M539.889,413.333c-0.833,-0.416 -1.25,-0.833 -2.083,-0.833l-2.5,0c-0.833,0 -1.667,0.417 -2.083,0.833c-0.417,0.417 -0.417,0.417 -0.834,0.834c-0.833,0.833 -1.25,1.666 -1.666,2.916l-0,1.25c-0,0.417 -0,1.25 0.416,1.667c2.084,-0.417 4.167,-0.833 5.834,-1.667c1.666,-0.833 3.333,-2.083 4.166,-3.75l0,-0.416c-0.416,-0.417 -0.833,-0.834 -1.25,-0.834Z" style="fill:#ccc697;fill-rule:nonzero;"/><circle cx="536.556" cy="358.333" r="5.833" style="fill:#ccc697;"/><circle cx="506.556" cy="388.333" r="5.833" style="fill:#ccc697;"/><circle cx="506.556" cy="328.333" r="5.833" style="fill:#ccc697;"/><path d="M566.556,322.083c-3.333,0 -5.833,2.5 -5.833,5.834c-0,1.666 0.416,2.916 1.666,4.166c0,-0.833 0.417,-1.25 0.417,-2.083c2.5,-0.417 5,-1.25 7.5,-2.083c0.833,-0.417 1.667,-0.417 2.5,-0.834c-0.417,-2.5 -2.917,-5 -6.25,-5Z" style="fill:#ccc697;fill-rule:nonzero;"/><path d="M477.806,412.5l-2.5,0c-0.833,0 -1.667,0.417 -2.083,0.833c-0.417,0.417 -0.417,0.417 -0.834,0.834c-0.833,0.833 -1.25,1.666 -1.666,2.916l-0,1.667l5.833,-2.917l3.75,-2.083l-0.417,-0.417c-0.416,-0.416 -1.25,-0.833 -2.083,-0.833Z" style="fill:#ccc697;fill-rule:nonzero;"/><path d="M479.889,353.333c-0.833,-0.833 -2.083,-0.833 -3.333,-0.833c-3.333,0 -5.833,2.5 -5.833,5.833c-0,3.334 2.5,5.834 5.833,5.834c1.25,-0 2.5,-0.417 3.333,-0.834c1.667,-1.25 2.5,-2.916 2.5,-5c0.417,-2.083 -0.833,-4.166 -2.5,-5Z" style="fill:#ccc697;fill-rule:nonzero;"/><path d="M416.556,292.083c-2.083,0 -3.75,1.25 -5,2.5c-0.833,0.834 -0.833,2.084 -0.833,3.334c-0,0.833 -0,1.666 0.416,2.5c0.834,2.083 2.917,3.75 5.417,3.75c2.5,-0 4.583,-1.667 5.417,-3.75c0.416,-0.834 0.416,-1.667 0.416,-2.5c0,-1.25 -0.416,-2.5 -0.833,-3.334c-1.25,-1.25 -2.917,-2.5 -5,-2.5Z" style="fill:#ccc697;fill-rule:nonzero;"/><circle cx="416.556" cy="238.333" r="5.833" style="fill:#ccc697;"/><circle cx="386.556" cy="268.333" r="5.833" style="fill:#ccc697;"/><circle cx="446.556" cy="268.333" r="5.833" style="fill:#ccc697;"/><path d="M357.806,292.5l-1.25,0c-0.833,0 -1.667,0 -2.5,0.417c-1.25,0.416 -2.083,1.25 -2.5,2.083c-0.833,0.833 -0.833,2.083 -0.833,3.333c-0,0.834 -0,1.667 0.416,2.5c0.417,1.25 1.667,2.5 3.334,3.334c0.833,0.416 1.666,0.416 2.5,0.416l1.25,0c2.083,-0.416 3.75,-1.666 4.166,-3.333c0.417,-0.833 0.417,-1.667 0.417,-2.5c0,-1.25 -0.417,-2.5 -0.833,-3.333c-1.25,-1.667 -2.5,-2.917 -4.167,-2.917Z" style="fill:#ccc697;fill-rule:nonzero;"/><path d="M357.806,232.5l-1.25,0c-0.833,0 -1.667,0 -2.5,0.417c-2.083,0.833 -3.75,2.916 -3.75,5.416c0,2.5 1.667,4.584 3.75,5.417c0.833,0.417 1.667,0.417 2.5,0.417l1.25,-0c2.917,-0.417 4.583,-2.917 4.583,-5.834c0.417,-2.916 -1.666,-5.416 -4.583,-5.833Z" style="fill:#ccc697;fill-rule:nonzero;"/><path d="M420.723,414.167c-0.417,-0.417 -0.417,-0.417 -0.834,-0.834c-0.833,-0.416 -1.25,-0.833 -2.083,-0.833l-2.5,0c-0.833,0 -1.667,0.417 -2.083,0.833c-0.417,0.417 -0.417,0.417 -0.834,0.834c-0.833,0.833 -1.25,1.666 -1.666,2.916l-0,1.25c-0,3.334 2.5,5.834 5.833,5.834c3.333,-0 5.833,-2.5 5.833,-5.834l0,-1.25c0,-1.25 -0.833,-2.083 -1.666,-2.916Z" style="fill:#ccc697;fill-rule:nonzero;"/><circle cx="416.556" cy="358.333" r="5.833" style="fill:#ccc697;"/><circle cx="386.556" cy="388.333" r="5.833" style="fill:#ccc697;"/><circle cx="446.556" cy="388.333" r="5.833" style="fill:#ccc697;"/><circle cx="386.556" cy="328.333" r="5.833" style="fill:#ccc697;"/><circle cx="446.556" cy="328.333" r="5.833" style="fill:#ccc697;"/><path d="M360.723,414.167c-0.417,-0.417 -0.417,-0.417 -0.834,-0.834c-0.833,-0.416 -1.25,-0.833 -2.083,-0.833l-2.5,0c-0.417,0 -0.833,0 -1.25,0.417c-0.417,-0 -0.833,0.416 -0.833,0.416c-0.417,0.417 -0.417,0.417 -0.834,0.834c-0.833,0.833 -1.25,1.666 -1.666,2.916l-0,1.25c-0,2.5 1.666,4.584 3.75,5.417c0.833,0.417 1.666,0.417 2.5,0.417l1.25,-0c2.916,-0.417 4.583,-2.917 4.583,-5.834l0,-1.25c-0.417,-1.25 -1.25,-2.083 -2.083,-2.916Z" style="fill:#ccc697;fill-rule:nonzero;"/><path d="M357.806,352.5l-1.25,0c-0.833,0 -1.667,0 -2.5,0.417c-2.083,0.833 -3.75,2.916 -3.75,5.416c0,2.5 1.667,4.584 3.75,5.417c0.833,0.417 1.667,0.417 2.5,0.417l1.25,-0c2.917,-0.417 4.583,-2.917 4.583,-5.834c0.417,-2.916 -1.666,-5.416 -4.583,-5.833Z" style="fill:#ccc697;fill-rule:nonzero;"/><path d="M382.389,444.167c2.917,-0 5.834,-0 8.334,-0.417c-1.25,-0.833 -2.5,-1.667 -4.167,-1.667c-1.667,0 -3.333,0.834 -4.167,2.084Z" style="fill:#ccc697;fill-rule:nonzero;"/><path d="M296.556,292.083c-2.083,0 -3.75,1.25 -5,2.5c-0.833,0.834 -0.833,2.084 -0.833,3.334c-0,0.833 -0,1.666 0.416,2.5c0.834,2.083 2.917,3.75 5.417,3.75c2.5,-0 4.583,-1.667 5.417,-3.75c0.416,-0.834 0.416,-1.667 0.416,-2.5c0,-1.25 -0.416,-2.5 -0.833,-3.334c-1.25,-1.25 -2.917,-2.5 -5,-2.5Z" style="fill:#ccc697;fill-rule:nonzero;"/><circle cx="296.556" cy="238.333" r="5.833" style="fill:#ccc697;"/><circle cx="266.556" cy="268.333" r="5.833" style="fill:#ccc697;"/><circle cx="326.556" cy="268.333" r="5.833" style="fill:#ccc697;"/><path d="M266.556,214.167c2.083,-0 3.75,-1.25 5,-2.5l-10.417,-1.25c0.834,2.083 2.917,3.75 5.417,3.75Z" style="fill:#ccc697;fill-rule:nonzero;"/><path d="M239.889,293.333c-0.833,-0.833 -2.083,-0.833 -3.333,-0.833c-0.833,0 -1.667,0 -2.5,0.417c-1.25,0.416 -2.083,1.25 -2.5,2.083c-0.833,0.833 -0.833,2.083 -0.833,3.333c-0,0.834 -0,1.667 0.416,2.5c0.417,1.25 1.667,2.5 3.334,3.334c0.833,0.416 1.666,0.416 2.5,0.416c1.25,0 2.5,-0.416 3.333,-0.833c0.833,-0.417 1.667,-1.667 2.083,-2.5c0.417,-0.833 0.417,-1.667 0.417,-2.5c0,-1.25 -0.417,-2.5 -0.833,-3.333c-0.834,-1.25 -1.25,-1.667 -2.084,-2.084Z" style="fill:#ccc697;fill-rule:nonzero;"/><path d="M239.889,233.333c-0.833,-0.833 -2.083,-0.833 -3.333,-0.833c-0.833,0 -1.667,0 -2.5,0.417c-2.083,0.833 -3.75,2.916 -3.75,5.416c0,2.5 1.667,4.584 3.75,5.417c0.833,0.417 1.667,0.417 2.5,0.417c1.25,-0 2.5,-0.417 3.333,-0.834c1.667,-1.25 2.5,-2.916 2.5,-5c0.417,-2.083 -0.833,-4.166 -2.5,-5Z" style="fill:#ccc697;fill-rule:nonzero;"/><path d="M300.723,414.167c-0.417,-0.417 -0.417,-0.417 -0.834,-0.834c-0.833,-0.416 -1.25,-0.833 -2.083,-0.833l-2.5,0c-0.833,0 -1.667,0.417 -2.083,0.833c-0.417,0.417 -0.417,0.417 -0.834,0.834c-0.833,0.833 -1.25,1.666 -1.666,2.916l-0,1.25c-0,2.5 1.25,4.167 3.333,5.417l1.25,0.417c0.417,-0 1.25,0.416 1.667,0.416c3.333,0 5.833,-2.5 5.833,-5.833l0,-1.25c-0.417,-1.667 -1.25,-2.5 -2.083,-3.333Z" style="fill:#ccc697;fill-rule:nonzero;"/><circle cx="296.556" cy="358.333" r="5.833" style="fill:#ccc697;"/><circle cx="266.556" cy="388.333" r="5.833" style="fill:#ccc697;"/><circle cx="326.556" cy="388.333" r="5.833" style="fill:#ccc697;"/><circle cx="266.556" cy="328.333" r="5.833" style="fill:#ccc697;"/><circle cx="326.556" cy="328.333" r="5.833" style="fill:#ccc697;"/><path d="M239.889,353.333c-0.833,-0.833 -2.083,-0.833 -3.333,-0.833c-0.833,0 -1.667,0 -2.5,0.417c-2.083,0.833 -3.75,2.916 -3.75,5.416c0,2.5 1.667,4.584 3.75,5.417c0.833,0.417 1.667,0.417 2.5,0.417c1.25,-0 2.5,-0.417 3.333,-0.834c1.667,-1.25 2.5,-2.916 2.5,-5c0.417,-2.083 -0.833,-4.166 -2.5,-5Z" style="fill:#ccc697;fill-rule:nonzero;"/><path d="M176.556,292.083c-2.083,0 -3.75,1.25 -5,2.5c-0.833,0.834 -0.833,2.084 -0.833,3.334c-0,0.833 -0,1.666 0.416,2.5c0.834,2.083 2.917,3.75 5.417,3.75c2.5,-0 4.583,-1.667 5.417,-3.75c0.416,-0.834 0.416,-1.667 0.416,-2.5c0,-1.25 -0.416,-2.5 -0.833,-3.334c-1.25,-1.25 -2.917,-2.5 -5,-2.5Z" style="fill:#ccc697;fill-rule:nonzero;"/><circle cx="176.556" cy="238.333" r="5.833" style="fill:#ccc697;"/><circle cx="146.556" cy="268.333" r="5.833" style="fill:#ccc697;"/><circle cx="206.556" cy="268.333" r="5.833" style="fill:#ccc697;"/><circle cx="146.556" cy="208.333" r="5.833" style="fill:#ccc697;"/><path d="M201.973,204.167c-0.834,1.25 -1.667,2.5 -1.667,4.166c0,3.334 2.5,5.834 5.833,5.834c3.334,-0 5.834,-2.5 5.834,-5.834c-0,-1.25 -0.417,-2.083 -0.834,-2.916l-9.166,-1.25Z" style="fill:#ccc697;fill-rule:nonzero;"/><path d="M116.556,292.083c-2.083,0 -3.75,1.25 -5,2.5c-0.833,0.834 -0.833,2.084 -0.833,3.334c-0,0.833 -0,1.666 0.416,2.5c0.834,2.083 2.917,3.75 5.417,3.75c2.5,-0 4.583,-1.667 5.417,-3.75c0.416,-0.834 0.416,-1.667 0.416,-2.5c0,-1.25 -0.416,-2.5 -0.833,-3.334c-1.25,-1.25 -2.917,-2.5 -5,-2.5Z" style="fill:#ccc697;fill-rule:nonzero;"/><circle cx="116.556" cy="238.333" r="5.833" style="fill:#ccc697;"/><circle cx="176.556" cy="358.333" r="5.833" style="fill:#ccc697;"/><path d="M206.556,382.083c-3.333,0 -5.833,2.5 -5.833,5.834c-0,0.833 0.416,1.666 0.833,2.5c1.25,-0.834 2.083,-2.084 3.333,-2.917l7.5,2.917c0.417,-0.834 0.834,-1.667 0.834,-2.917c-0.417,-2.5 -3.334,-5.417 -6.667,-5.417Z" style="fill:#ccc697;fill-rule:nonzero;"/><circle cx="146.556" cy="328.333" r="5.833" style="fill:#ccc697;"/><circle cx="206.556" cy="328.333" r="5.833" style="fill:#ccc697;"/><path d="M116.973,352.083c1.25,0.834 2.916,1.667 4.166,2.5c-0.833,-1.25 -2.5,-2.083 -4.166,-2.5Z" style="fill:#ccc697;fill-rule:nonzero;"/><path d="M50.723,236.667l-0,1.25c-0,3.333 2.5,5.833 5.833,5.833c3.333,0 5.833,-2.5 5.833,-5.833c0,-0.834 -0.416,-1.667 -0.833,-2.5c-3.333,0.416 -7.5,0.833 -10.833,1.25Z" style="fill:#ccc697;fill-rule:nonzero;"/><circle cx="86.556" cy="268.333" r="5.833" style="fill:#ccc697;"/><circle cx="86.556" cy="208.333" r="5.833" style="fill:#ccc697;"/><path d="M86.556,322.083c-0.833,0 -1.667,0.417 -2.5,0.417c2.083,3.333 4.583,6.25 7.5,9.167c0.833,-0.834 1.25,-2.084 1.25,-3.75c0,-2.917 -2.917,-5.834 -6.25,-5.834Z" style="fill:#ccc697;fill-rule:nonzero;"/></g><path d="M473.223,230l-386.25,-40.417c1.25,27.084 5.416,55.834 16.25,76.25c-0.834,0.417 -1.25,1.25 -2.084,1.667c-9.583,9.167 -13.75,20.833 -9.166,25.417c4.166,4.583 15,0.833 24.166,-7.5c17.5,20.833 45.834,40.833 93.334,56.666c47.5,15.417 86.666,20 119.166,17.5l0,2.084c1.667,13.333 7.917,23.333 14.167,22.916c6.25,-0.833 10.417,-12.083 8.75,-25.416c0,-0.834 -0.417,-1.667 -0.417,-2.917c11.667,-2.5 21.667,-5.417 30.834,-9.583c1.25,1.25 2.5,2.916 4.166,4.166c10,8.75 21.667,12.084 25.834,7.5c3.75,-4.583 -0,-14.166 -8.75,-22.916c13.333,-8.75 49.166,-43.334 70,-105.417Z" style="fill:#fbfbe8;fill-rule:nonzero;"/><path d="M375.723,451.667c-22.917,-0 -45.417,-4.167 -67.084,-12.917l-105.416,-41.667c-0.834,0.834 -2.084,1.667 -2.917,2.5c-21.667,15.417 -43.75,17.5 -53.333,4.584c-5.417,-7.5 -4.584,-17.917 1.666,-28.75l-26.25,-10.417c-37.5,-15 -64.166,-49.167 -70,-88.75c-21.666,-2.5 -36.666,-12.917 -36.666,-26.667c-0,-13.75 14.166,-24.166 35.416,-26.666l0,-37.084l20.834,0l-0,57.5l-10.417,0c-13.75,0 -22.083,4.167 -24.583,6.667c2.5,2.5 10.833,6.667 24.583,6.667l9.583,-0l0.834,9.583c2.083,35.417 25,67.083 57.916,80l54.167,21.667l-11.25,11.25c-5.833,5.833 -8.333,10.833 -8.75,13.333c3.333,0.417 12.5,-1.25 23.75,-9.167c2.083,-1.25 3.75,-2.916 6.25,-5l5,-4.583l117.083,45.417c42.5,17.083 90.417,15 131.25,-5.417l42.917,-21.667l5,3.75c2.5,1.667 5,3.334 7.5,4.584c12.083,6.25 21.25,6.666 24.583,5.416c-0.833,-2.083 -3.75,-7.083 -11.25,-12.5l-11.25,-7.916l10.834,-8.334c16.666,-12.916 28.333,-31.666 32.916,-52.5l1.667,-6.666l6.667,-1.25c2.5,-0.417 4.583,-0.834 6.666,-1.667c12.917,-4.167 20,-10.417 21.25,-13.333c-2.5,-1.25 -9.583,-2.5 -20.833,-0l-12.917,2.916l0,-65.416l20.834,-0l-0,40.416c17.083,-1.25 29.583,4.584 33.333,15.834c4.583,15 -10.417,31.666 -35.417,39.583c-0.833,0.417 -1.25,0.417 -2.083,0.417c-5.417,18.75 -15.417,35.833 -29.583,49.583c9.583,10.417 12.916,21.667 8.333,30.833c-7.5,14.167 -29.583,15.417 -53.333,2.917c-1.667,-0.833 -2.917,-1.667 -4.584,-2.5l-32.083,15.833c-25,12.917 -52.917,19.584 -80.833,19.584Z" style="fill:#282f39;fill-rule:nonzero;"/><path d="M10.723,175.417c5,18.75 11.25,19.583 76.666,13.75c65.417,-5.417 215.834,12.916 359.584,85c155.833,77.916 163.75,73.75 163.75,47.916c-0,-25.833 -10.834,-142.083 -110,-227.916c-106.667,-92.5 -275.417,-109.167 -379.167,-45.834c-67.083,40.834 -116.25,107.084 -110.833,127.084Z" style="fill:#ea4736;fill-rule:nonzero;"/><g><g><path d="M601.556,298.333c-0.833,-1.25 -2.083,-2.083 -3.75,-2.5l-1.25,0c-0.833,0 -1.667,0 -2.5,0.417c-1.25,0.417 -2.083,1.25 -2.5,2.083c-0.833,0.834 -0.833,2.084 -0.833,3.334c-0,0.833 -0,1.666 0.416,2.5c0.417,1.25 1.667,2.5 3.334,3.333c0.833,0.417 1.666,0.417 2.5,0.417l1.25,-0c2.083,-0.417 3.75,-1.667 4.166,-3.334c0.417,-0.833 0.417,-1.666 0.417,-2.5c0,-1.666 -0.417,-2.916 -1.25,-3.75Z" style="fill:#d33c2d;fill-rule:nonzero;"/><path d="M536.556,175.833c-2.917,0 -5.417,2.084 -5.833,4.584l-0,1.25c-0,3.333 2.5,5.833 5.833,5.833c3.333,0 5.833,-2.5 5.833,-5.833l0,-1.25c-0.416,-2.5 -2.916,-4.584 -5.833,-4.584Z" style="fill:#d33c2d;fill-rule:nonzero;"/><circle cx="506.556" cy="151.667" r="5.833" style="fill:#d33c2d;"/><path d="M479.889,176.667c-0.833,-0.834 -2.083,-0.834 -3.333,-0.834c-2.917,0 -5.417,2.084 -5.833,4.584l-0,1.25c-0,3.333 2.5,5.833 5.833,5.833c1.25,0 2.5,-0.417 3.333,-0.833c1.667,-1.25 2.5,-2.917 2.5,-5l0,-1.25c-0.416,-1.25 -1.25,-2.917 -2.5,-3.75Z" style="fill:#d33c2d;fill-rule:nonzero;"/><path d="M479.889,116.667c-0.833,-0.834 -2.083,-0.834 -3.333,-0.834c-3.333,0 -5.833,2.5 -5.833,5.834c-0,3.333 2.5,5.833 5.833,5.833c1.25,0 2.5,-0.417 3.333,-0.833c1.667,-1.25 2.5,-2.917 2.5,-5c0.417,-2.084 -0.833,-3.75 -2.5,-5Z" style="fill:#d33c2d;fill-rule:nonzero;"/><path d="M536.556,295.833c-2.083,0 -3.75,1.25 -5,2.5c-0.833,0.834 -0.833,2.084 -0.833,3.334c-0,0.833 -0,1.666 0.416,2.5c0.834,2.083 2.917,3.75 5.417,3.75c2.5,-0 4.583,-1.667 5.417,-3.75c0.416,-0.834 0.416,-1.667 0.416,-2.5c0,-1.25 -0.416,-2.5 -0.833,-3.334c-1.25,-1.666 -2.917,-2.5 -5,-2.5Z" style="fill:#d33c2d;fill-rule:nonzero;"/><path d="M594.473,247.5c0.833,0.417 1.666,0.417 2.5,0.417l1.666,-0c-0.416,-1.667 -0.833,-3.334 -1.666,-5c-0.834,-2.084 -1.25,-4.167 -2.084,-6.25l-0.416,-0c-2.084,0.833 -3.75,2.916 -3.75,5.416c-0,2.084 1.25,4.167 3.75,5.417Z" style="fill:#d33c2d;fill-rule:nonzero;"/><circle cx="536.556" cy="241.667" r="5.833" style="fill:#d33c2d;"/><circle cx="506.556" cy="271.667" r="5.833" style="fill:#d33c2d;"/><circle cx="566.556" cy="271.667" r="5.833" style="fill:#d33c2d;"/><circle cx="506.556" cy="211.667" r="5.833" style="fill:#d33c2d;"/><circle cx="566.556" cy="211.667" r="5.833" style="fill:#d33c2d;"/><path d="M479.889,236.667c-0.833,-0.834 -2.083,-0.834 -3.333,-0.834c-3.333,0 -5.833,2.5 -5.833,5.834c-0,3.333 2.5,5.833 5.833,5.833c1.25,0 2.5,-0.417 3.333,-0.833c1.667,-1.25 2.5,-2.917 2.5,-5c0.417,-2.084 -0.833,-3.75 -2.5,-5Z" style="fill:#d33c2d;fill-rule:nonzero;"/><path d="M566.556,325.833c-2.083,0 -3.75,1.25 -5,2.5c3.75,1.667 7.5,2.917 10.833,4.167l0,-0.833c0.417,-3.334 -2.5,-5.834 -5.833,-5.834Z" style="fill:#d33c2d;fill-rule:nonzero;"/><path d="M416.556,55.833c-2.083,0 -3.75,1.25 -5,2.5c-0.833,0.834 -0.833,2.084 -0.833,3.334c-0,0.833 -0,1.666 0.416,2.5c0.834,2.083 2.917,3.75 5.417,3.75c2.5,-0 4.583,-1.667 5.417,-3.75c0.416,-0.834 0.416,-1.667 0.416,-2.5c0,-1.25 -0.416,-2.5 -0.833,-3.334c-1.25,-1.666 -2.917,-2.5 -5,-2.5Z" style="fill:#d33c2d;fill-rule:nonzero;"/><path d="M386.556,37.917c3.333,-0 5.833,-2.5 5.833,-5.834c-3.75,-1.25 -7.083,-2.5 -10.833,-3.75c-0.833,0.834 -1.25,2.084 -1.25,3.334c0.417,3.333 2.917,6.25 6.25,6.25Z" style="fill:#d33c2d;fill-rule:nonzero;"/><path d="M357.806,55.833l-1.25,0c-0.833,0 -1.667,0 -2.5,0.417c-1.25,0.417 -2.083,1.25 -2.5,2.083c-0.833,0.834 -0.833,2.084 -0.833,3.334c-0,0.833 -0,1.666 0.416,2.5c0.417,1.25 1.667,2.5 3.334,3.333c0.833,0.417 1.666,0.417 2.5,0.417l1.25,-0c2.083,-0.417 3.75,-1.667 4.166,-3.334c0.417,-0.833 0.417,-1.666 0.417,-2.5c0,-1.25 -0.417,-2.5 -0.833,-3.333c-1.25,-1.667 -2.5,-2.5 -4.167,-2.917Z" style="fill:#d33c2d;fill-rule:nonzero;"/><path d="M416.556,175.833c-2.917,0 -5.417,2.084 -5.833,4.584l-0,1.25c-0,3.333 2.5,5.833 5.833,5.833c3.333,0 5.833,-2.5 5.833,-5.833l0,-1.25c-0.416,-2.5 -2.916,-4.584 -5.833,-4.584Z" style="fill:#d33c2d;fill-rule:nonzero;"/><circle cx="416.556" cy="121.667" r="5.833" style="fill:#d33c2d;"/><circle cx="386.556" cy="151.667" r="5.833" style="fill:#d33c2d;"/><circle cx="446.556" cy="151.667" r="5.833" style="fill:#d33c2d;"/><circle cx="386.556" cy="91.667" r="5.833" style="fill:#d33c2d;"/><circle cx="446.556" cy="91.667" r="5.833" style="fill:#d33c2d;"/><path d="M357.806,175.833l-1.25,0c-0.833,0 -1.667,0 -2.5,0.417c-1.667,0.833 -3.333,2.5 -3.75,4.167l0,1.25c0,2.5 1.667,4.583 3.75,5.416c0.833,0.417 1.667,0.417 2.5,0.417l1.25,0c2.917,-0.417 4.583,-2.917 4.583,-5.833l0,-1.25c-0.416,-2.084 -2.083,-4.167 -4.583,-4.584Z" style="fill:#d33c2d;fill-rule:nonzero;"/><path d="M357.806,115.833l-1.25,0c-0.833,0 -1.667,0 -2.5,0.417c-2.083,0.833 -3.75,2.917 -3.75,5.417c0,2.5 1.667,4.583 3.75,5.416c0.833,0.417 1.667,0.417 2.5,0.417l1.25,0c2.917,-0.417 4.583,-2.917 4.583,-5.833c0.417,-2.917 -1.666,-5.417 -4.583,-5.834Z" style="fill:#d33c2d;fill-rule:nonzero;"/><circle cx="416.556" cy="241.667" r="5.833" style="fill:#d33c2d;"/><path d="M446.556,265.833c-3.333,0 -5.833,2.5 -5.833,5.417c2.083,0.833 4.166,2.083 5.833,2.917c1.25,0.833 2.5,1.25 4.167,2.083c1.25,-1.25 2.083,-2.5 2.083,-4.583c0,-3.334 -2.917,-5.834 -6.25,-5.834Z" style="fill:#d33c2d;fill-rule:nonzero;"/><circle cx="386.556" cy="211.667" r="5.833" style="fill:#d33c2d;"/><circle cx="446.556" cy="211.667" r="5.833" style="fill:#d33c2d;"/><path d="M356.556,235.833c1.25,0.834 2.917,1.25 4.167,1.667c-0.834,-0.833 -1.667,-1.25 -2.917,-1.667l-1.25,0Z" style="fill:#d33c2d;fill-rule:nonzero;"/><path d="M296.556,55.833c-2.083,0 -3.75,1.25 -5,2.5c-0.833,0.834 -0.833,2.084 -0.833,3.334c-0,0.833 -0,1.666 0.416,2.5c0.834,2.083 2.917,3.75 5.417,3.75c2.5,-0 4.583,-1.667 5.417,-3.75c0.416,-0.834 0.416,-1.667 0.416,-2.5c0,-1.25 -0.416,-2.5 -0.833,-3.334c-1.25,-1.666 -2.917,-2.5 -5,-2.5Z" style="fill:#d33c2d;fill-rule:nonzero;"/><circle cx="266.556" cy="31.667" r="5.833" style="fill:#d33c2d;"/><circle cx="326.556" cy="31.667" r="5.833" style="fill:#d33c2d;"/><path d="M239.889,56.667c-0.833,-0.834 -2.083,-0.834 -3.333,-0.834c-0.833,0 -1.667,0 -2.5,0.417c-1.25,0.417 -2.083,1.25 -2.5,2.083c-0.833,0.834 -0.833,2.084 -0.833,3.334c-0,0.833 -0,1.666 0.416,2.5c0.417,1.25 1.667,2.5 3.334,3.333c0.833,0.417 1.666,0.417 2.5,0.417c1.25,-0 2.5,-0.417 3.333,-0.834c0.833,-0.416 1.667,-1.666 2.083,-2.5c0.417,-0.833 0.417,-1.666 0.417,-2.5c0,-1.25 -0.417,-2.5 -0.833,-3.333c-0.834,-0.833 -1.25,-1.667 -2.084,-2.083Z" style="fill:#d33c2d;fill-rule:nonzero;"/><path d="M296.556,175.833c-2.917,0 -5.417,2.084 -5.833,4.584l-0,1.25c-0,3.333 2.5,5.833 5.833,5.833c3.333,0 5.833,-2.5 5.833,-5.833l0,-1.25c-0.416,-2.5 -2.916,-4.584 -5.833,-4.584Z" style="fill:#d33c2d;fill-rule:nonzero;"/><circle cx="296.556" cy="121.667" r="5.833" style="fill:#d33c2d;"/><circle cx="266.556" cy="151.667" r="5.833" style="fill:#d33c2d;"/><circle cx="326.556" cy="151.667" r="5.833" style="fill:#d33c2d;"/><circle cx="266.556" cy="91.667" r="5.833" style="fill:#d33c2d;"/><circle cx="326.556" cy="91.667" r="5.833" style="fill:#d33c2d;"/><path d="M239.889,176.667c-0.833,-0.834 -2.083,-0.834 -3.333,-0.834c-0.833,0 -1.667,0 -2.5,0.417c-1.667,0.833 -3.333,2.5 -3.75,4.167l0,1.25c0,2.5 1.667,4.583 3.75,5.416c0.833,0.417 1.667,0.417 2.5,0.417c1.25,0 2.5,-0.417 3.333,-0.833c1.667,-1.25 2.5,-2.917 2.5,-5l0,-1.25c-0.416,-1.25 -1.25,-2.917 -2.5,-3.75Z" style="fill:#d33c2d;fill-rule:nonzero;"/><path d="M239.889,116.667c-0.833,-0.834 -2.083,-0.834 -3.333,-0.834c-0.833,0 -1.667,0 -2.5,0.417c-2.083,0.833 -3.75,2.917 -3.75,5.417c0,2.5 1.667,4.583 3.75,5.416c0.833,0.417 1.667,0.417 2.5,0.417c1.25,0 2.5,-0.417 3.333,-0.833c1.667,-1.25 2.5,-2.917 2.5,-5c0.417,-2.084 -0.833,-3.75 -2.5,-5Z" style="fill:#d33c2d;fill-rule:nonzero;"/><path d="M266.556,205.833c-2.083,0 -3.75,0.834 -4.583,2.5c3.333,0.834 7.083,1.667 10.416,2.5c-0.416,-2.916 -2.916,-5 -5.833,-5Z" style="fill:#d33c2d;fill-rule:nonzero;"/><circle cx="326.556" cy="211.667" r="5.833" style="fill:#d33c2d;"/><path d="M176.556,55.833c-2.083,0 -3.75,1.25 -5,2.5c-0.833,0.834 -0.833,2.084 -0.833,3.334c-0,0.833 -0,1.666 0.416,2.5c0.834,2.083 2.917,3.75 5.417,3.75c2.5,-0 4.583,-1.667 5.417,-3.75c0.416,-0.834 0.416,-1.667 0.416,-2.5c0,-1.25 -0.416,-2.5 -0.833,-3.334c-1.25,-1.666 -2.917,-2.5 -5,-2.5Z" style="fill:#d33c2d;fill-rule:nonzero;"/><path d="M152.389,32.5c-3.333,1.25 -6.25,2.917 -9.166,4.167c0.833,0.833 2.083,1.25 3.333,1.25c2.917,-0 5.417,-2.5 5.833,-5.417Z" style="fill:#d33c2d;fill-rule:nonzero;"/><circle cx="206.556" cy="31.667" r="5.833" style="fill:#d33c2d;"/><path d="M116.556,55.833c-2.083,0 -3.75,1.25 -5,2.5c-0.833,0.834 -0.833,2.084 -0.833,3.334c-0,0.833 -0,1.666 0.416,2.5c0.834,2.083 2.917,3.75 5.417,3.75c2.5,-0 4.583,-1.667 5.417,-3.75c0.416,-0.834 0.416,-1.667 0.416,-2.5c0,-1.25 -0.416,-2.5 -0.833,-3.334c-1.25,-1.666 -2.917,-2.5 -5,-2.5Z" style="fill:#d33c2d;fill-rule:nonzero;"/><path d="M176.556,175.833c-2.917,0 -5.417,2.084 -5.833,4.584l-0,1.25c-0,3.333 2.5,5.833 5.833,5.833c3.333,0 5.833,-2.5 5.833,-5.833l0,-1.25c-0.416,-2.5 -2.916,-4.584 -5.833,-4.584Z" style="fill:#d33c2d;fill-rule:nonzero;"/><circle cx="176.556" cy="121.667" r="5.833" style="fill:#d33c2d;"/><circle cx="146.556" cy="151.667" r="5.833" style="fill:#d33c2d;"/><circle cx="206.556" cy="151.667" r="5.833" style="fill:#d33c2d;"/><circle cx="146.556" cy="91.667" r="5.833" style="fill:#d33c2d;"/><circle cx="206.556" cy="91.667" r="5.833" style="fill:#d33c2d;"/><path d="M116.556,175.833c-2.917,0 -5.417,2.084 -5.833,4.584l-0,1.25c-0,3.333 2.5,5.833 5.833,5.833c3.333,0 5.833,-2.5 5.833,-5.833l0,-1.25c-0.416,-2.5 -2.916,-4.584 -5.833,-4.584Z" style="fill:#d33c2d;fill-rule:nonzero;"/><circle cx="116.556" cy="121.667" r="5.833" style="fill:#d33c2d;"/><path d="M56.556,175.833c-2.917,0 -5.417,2.084 -5.833,4.584l-0,1.25c-0,3.333 2.5,5.833 5.833,5.833c3.333,0 5.833,-2.5 5.833,-5.833l0,-1.25c-0.416,-2.5 -2.916,-4.584 -5.833,-4.584Z" style="fill:#d33c2d;fill-rule:nonzero;"/><circle cx="56.556" cy="121.667" r="5.833" style="fill:#d33c2d;"/><circle cx="26.556" cy="151.667" r="5.833" style="fill:#d33c2d;"/><circle cx="86.556" cy="151.667" r="5.833" style="fill:#d33c2d;"/><circle cx="86.556" cy="91.667" r="5.833" style="fill:#d33c2d;"/></g></g><path d="M591.973,228.333c-15.417,-42.5 -42.5,-91.666 -91.25,-134.166c-106.667,-92.5 -275.417,-109.167 -379.167,-45.834c-45.417,27.917 -82.917,67.5 -100.417,96.25c7.5,5 18.75,6.25 35.834,0.417c66.666,-21.667 223.333,-36.667 365.833,30.417c85.417,40.416 176.25,106.25 169.167,52.916Z" style="fill:#f2685d;fill-rule:nonzero;"/><g><path d="M533.223,239.583c12.916,-15.833 28.333,-30.833 45,-43.75c-3.75,-7.5 -7.5,-15 -12.084,-22.5c-17.916,11.25 -34.583,24.584 -50.416,39.167c-21.667,20 -40.834,43.333 -57.084,67.917c12.5,6.25 23.75,11.666 34.167,17.083c12.5,-20.417 25.417,-40 40.417,-57.917Z" style="fill:#f6968c;fill-rule:nonzero;"/><path d="M595.723,240c-20,11.25 -38.75,32.083 -51.25,46.667c-6.667,7.916 -13.334,16.666 -19.167,25.833c7.5,3.333 14.583,6.667 20.833,9.167c4.584,-6.25 9.584,-12.917 15,-18.75c10.417,-11.667 22.084,-22.084 34.584,-31.25c2.5,-1.667 5,-3.334 7.5,-5c-2.084,-8.334 -4.584,-17.084 -7.5,-26.667Z" style="fill:#f6968c;fill-rule:nonzero;"/><path d="M466.973,173.75c16.666,-15.833 32.916,-32.083 50,-47.917c2.916,-2.5 5.833,-5 8.75,-7.5c-6.667,-7.083 -14.167,-14.583 -21.667,-21.25c-18.333,16.25 -35.417,34.167 -52.083,51.667c-27.084,29.167 -48.334,62.917 -63.334,99.167c4.167,1.666 7.917,3.333 12.084,5c17.916,-29.584 41.666,-56.25 66.25,-79.167Z" style="fill:#f6968c;fill-rule:nonzero;"/><path d="M343.639,207.5c14.584,-21.667 27.084,-44.583 42.084,-65.833c15.416,-22.084 32.916,-42.084 52.5,-60.417c7.083,-6.25 14.166,-12.083 21.666,-17.083c-9.166,-5.834 -18.75,-10.834 -28.333,-15.834c-25.417,21.667 -47.083,48.75 -65.417,74.167c-22.083,30.833 -40.833,63.75 -54.166,98.75c6.25,1.667 12.5,3.75 18.75,5.833c4.166,-6.666 8.333,-12.916 12.916,-19.583Z" style="fill:#f6968c;fill-rule:nonzero;"/><path d="M293.639,200.833c8.334,-23.75 18.75,-46.666 30.417,-68.75c10.833,-20.833 23.333,-41.25 37.083,-60.416c7.917,-10.834 17.084,-20.834 26.25,-30.834c2.5,-2.916 5,-5.416 7.5,-8.333c-5.416,-2.083 -11.25,-3.75 -17.083,-5.833c-5.833,5 -11.667,10.416 -17.5,17.083c-17.5,20.417 -33.333,42.083 -47.5,65c-14.167,22.917 -25.833,47.5 -36.25,72.083c-3.75,8.75 -7.5,17.917 -10.833,27.5c7.5,1.667 15.416,3.75 23.333,5.834c1.667,-3.75 3.333,-8.75 4.583,-13.334Z" style="fill:#f6968c;fill-rule:nonzero;"/><path d="M234.473,197.083c7.083,-24.166 17.5,-46.666 29.166,-68.75c20,-39.166 40.834,-77.083 66.25,-112.5c-8.333,-1.25 -16.25,-2.5 -24.583,-3.333c-29.167,27.5 -52.083,66.667 -71.25,98.333c-14.583,24.167 -27.5,49.167 -36.667,75.834c-0.833,2.5 -1.666,5.416 -2.916,8.333c12.5,1.667 25.416,4.167 38.75,6.667c0.416,-1.25 0.833,-2.917 1.25,-4.584Z" style="fill:#f6968c;fill-rule:nonzero;"/><path d="M201.973,95c7.5,-21.25 17.083,-40.833 26.666,-61.25c3.334,-7.083 8.334,-13.333 11.25,-20.417c0,-0.416 0.417,-0.833 0.834,-1.25c-7.5,0.417 -14.584,1.667 -22.084,2.5c-0.833,1.25 -2.083,2.5 -2.916,3.75c-15,20.834 -22.917,45.417 -32.917,68.75c-14.167,32.5 -30.833,67.084 -37.083,102.917c7.916,0.417 16.25,1.25 25.416,2.5c7.084,-33.75 19.167,-65 30.834,-97.5Z" style="fill:#f6968c;fill-rule:nonzero;"/><path d="M106.973,188.333c2.5,-23.75 7.916,-46.666 15.833,-70.833c5.833,-17.917 12.917,-35.833 20.417,-53.333c4.583,-10.834 7.5,-21.667 10.833,-32.917c-7.5,2.917 -15,6.667 -22.083,10.417c-3.75,5.833 -7.084,11.666 -10.417,18.333c-7.917,16.667 -14.583,33.75 -21.25,50.833c-9.583,25 -17.5,51.667 -20.417,78.334c2.084,-0 4.584,-0.417 6.667,-0.417c6.25,0 13.333,-0.417 20.417,-0.417Z" style="fill:#f6968c;fill-rule:nonzero;"/><path d="M56.139,191.667c0,-12.084 -0.833,-24.167 -0.416,-35.417c0.416,-14.583 5,-28.75 8.333,-42.5c2.083,-8.333 2.917,-16.667 4.167,-24.583c-10,9.166 -19.167,18.75 -26.667,27.916c-2.917,9.167 -5.833,18.75 -7.5,28.75c-2.5,13.75 -2.5,27.917 -3.333,41.667c-0,1.667 -0,2.917 -0.417,4.583c5.833,0.417 14.167,0.417 25.833,-0.416Z" style="fill:#f6968c;fill-rule:nonzero;"/></g><path d="M598.639,349.583c-18.75,0 -58.333,-16.666 -156.666,-65.833c-125,-62.5 -256.25,-84.583 -330.834,-84.583c-8.333,-0 -16.25,0.416 -22.916,0.833c-24.167,2.083 -38.334,2.917 -49.167,2.917c-24.167,-0 -33.333,-5.834 -38.333,-24.584c-7.917,-29.166 50.416,-99.166 115.416,-138.75c42.5,-25.833 95.417,-39.583 153.334,-39.583c88.333,0 175.416,31.25 238.333,86.25c112.083,97.5 113.333,230.417 113.333,235.833c0,7.084 0,27.5 -22.5,27.5Zm-487.5,-171.666c77.084,-0 212.084,22.916 340.417,87.083c66.25,32.917 129.583,63.75 147.5,63.75l0.833,0c0,-0.833 0.417,-2.917 0.417,-6.25c0,-5.417 -1.25,-128.75 -106.25,-220c-59.583,-51.667 -141.25,-81.25 -224.583,-81.25c-54.167,0 -103.334,12.5 -142.5,36.25c-66.25,40.417 -109.167,102.5 -106.25,115.417c2.083,7.916 2.5,9.166 18.333,9.166c10,0 24.167,-1.25 47.5,-2.916c7.083,-0.834 15.417,-1.25 24.583,-1.25Z" style="fill:#282f39;fill-rule:nonzero;"/><path d="M137.806,73.75c0,0 40.833,-36.25 129.167,-34.167c88.333,2.084 89.166,21.667 80.833,25.834c-7.917,4.166 -73.75,1.25 -132.917,8.333c-59.166,7.083 -93.75,21.667 -77.083,0Z" style="fill:#fff;fill-rule:nonzero;"/></g></g></svg>