<?xml version="1.0" encoding="UTF-8" standalone="no"?><!DOCTYPE svg PUBLIC "-//W3C//DTD SVG 1.1//EN" "http://www.w3.org/Graphics/SVG/1.1/DTD/svg11.dtd"><svg width="100%" height="100%" viewBox="0 0 621 463" version="1.1" xmlns="http://www.w3.org/2000/svg" xmlns:xlink="http://www.w3.org/1999/xlink" xml:space="preserve" xmlns:serif="http://www.serif.com/" style="fill-rule:evenodd;clip-rule:evenodd;stroke-linejoin:round;stroke-miterlimit:2;"><g><g><path d="M565.833,253.75l0,52.5c16.667,-3.75 31.25,-1.25 33.75,7.083c2.917,8.75 -10,20.834 -28.75,26.667c-2.5,0.833 -5,1.25 -7.5,2.083c-5,22.917 -17.916,43.75 -36.666,58.334c11.666,8.75 18.333,19.166 14.583,25.833c-4.167,8.333 -21.667,7.5 -39.167,-1.25c-3.333,-1.667 -5.833,-3.333 -8.75,-5.417l-37.5,18.75c-43.75,21.667 -94.583,24.167 -140,5.834l-111.25,-44.167c-2.083,2.083 -4.583,4.167 -7.083,5.833c-15.833,11.25 -32.917,14.584 -38.333,7.084c-4.167,-5.834 0.416,-17.084 10.416,-27.084l-39.583,-15.833c-37.083,-14.583 -62.083,-49.583 -64.583,-89.167l-0.417,0c-19.583,0 -35.417,-7.5 -35.417,-17.083c0,-9.167 15.834,-17.083 35.417,-17.083l-0,-45.834l500.833,52.917Z" style="fill:#ece3ac;fill-rule:nonzero;"/><g><path d="M599.583,312.917c-0.416,-1.25 -1.25,-2.5 -2.083,-3.334c-1.25,-1.25 -2.917,-2.5 -5,-2.916c-0.417,0.833 -0.833,2.083 -0.833,3.333c-0,0.833 -0,1.667 0.416,2.5c0.417,1.25 1.667,2.5 3.334,3.333c0.833,0.417 1.666,0.417 2.5,0.417l1.25,0c0.416,0 0.833,-0.417 1.25,-0.417c-0.834,-1.666 -0.834,-2.083 -0.834,-2.916Z" style="fill:#ccc697;fill-rule:nonzero;"/><path d="M537.083,303.75c-2.083,0 -3.75,1.25 -5,2.5c-0.833,0.833 -0.833,2.083 -0.833,3.333c0,0.834 0,1.667 0.417,2.5c0.833,2.084 2.916,3.75 5.416,3.75c2.5,0 4.584,-1.666 5.417,-3.75c0.417,-0.833 0.417,-1.666 0.417,-2.5c-0,-1.25 -0.417,-2.5 -0.834,-3.333c-1.25,-1.667 -2.916,-2.5 -5,-2.5Z" style="fill:#ccc697;fill-rule:nonzero;"/><path d="M537.083,255.417c2.917,-0 5,-1.667 5.834,-4.167l-11.667,-1.25c-0,2.917 2.5,5.417 5.833,5.417Z" style="fill:#ccc697;fill-rule:nonzero;"/><circle cx="507.083" cy="279.583" r="5.833" style="fill:#ccc697;"/><path d="M565.833,285.417l0,-11.667c-2.5,0.833 -4.583,2.917 -4.583,5.833c0,2.917 1.667,5 4.583,5.834Z" style="fill:#ccc697;fill-rule:nonzero;"/><path d="M480.417,304.583c-0.834,-0.833 -2.084,-0.833 -3.334,-0.833c-2.083,0 -3.75,1.25 -5,2.5c-0.833,0.833 -0.833,2.083 -0.833,3.333c-0,0.834 -0,1.667 0.417,2.5c0.833,2.084 2.916,3.75 5.416,3.75c1.25,0 2.5,-0.416 3.334,-0.833c0.833,-0.417 1.666,-1.667 2.083,-2.5c0.417,-0.833 0.417,-1.667 0.417,-2.5c-0,-1.25 -0.417,-2.5 -0.834,-3.333c-0.416,-1.25 -0.833,-1.667 -1.666,-2.084Z" style="fill:#ccc697;fill-rule:nonzero;"/><path d="M480.833,244.583l-3.75,-0.416l-2.5,-0.417c-2.083,0.833 -3.333,2.917 -3.333,5.417c-0,3.333 2.5,5.833 5.833,5.833c1.25,0 2.5,-0.417 3.334,-0.833c1.666,-1.25 2.5,-2.917 2.5,-5c-0,-1.667 -0.834,-3.334 -2.084,-4.584Z" style="fill:#ccc697;fill-rule:nonzero;"/><path d="M540.417,424.583c-0.834,-0.416 -1.25,-0.833 -2.084,-0.833l-2.5,0c-0.833,0 -1.666,0.417 -2.083,0.833c-0.417,0.417 -0.417,0.417 -0.833,0.834c-0.834,0.833 -1.25,1.666 -1.667,2.916l-0,1.25c-0,0.417 -0,1.25 0.417,1.667c2.083,-0.417 4.166,-0.833 5.833,-1.667c1.667,-0.833 3.333,-2.083 4.167,-3.75l-0,-0.416c-0.417,-0.417 -0.834,-0.417 -1.25,-0.834Z" style="fill:#ccc697;fill-rule:nonzero;"/><circle cx="537.083" cy="369.583" r="5.833" style="fill:#ccc697;"/><circle cx="507.083" cy="399.583" r="5.833" style="fill:#ccc697;"/><circle cx="507.083" cy="339.583" r="5.833" style="fill:#ccc697;"/><path d="M567.083,333.75c-3.333,-0 -5.833,2.5 -5.833,5.833c0,1.667 0.417,2.917 1.667,4.167c-0,-0.833 0.416,-1.25 0.416,-2.083c2.5,-0.417 5,-1.25 7.5,-2.084c0.834,-0.416 1.667,-0.416 2.5,-0.833c-0.833,-2.917 -3.333,-5 -6.25,-5Z" style="fill:#ccc697;fill-rule:nonzero;"/><path d="M478.333,423.75l-2.5,-0c-0.833,-0 -1.666,0.417 -2.083,0.833c-0.417,0.417 -0.417,0.417 -0.833,0.834c-0.834,0.833 -1.25,1.666 -1.667,2.916l-0,1.667l5.833,-2.917l3.75,-2.083l-0.416,-0.417c-0.417,-0.416 -1.25,-0.833 -2.084,-0.833Z" style="fill:#ccc697;fill-rule:nonzero;"/><path d="M480.417,364.583c-0.834,-0.833 -2.084,-0.833 -3.334,-0.833c-3.333,0 -5.833,2.5 -5.833,5.833c-0,3.334 2.5,5.834 5.833,5.834c1.25,-0 2.5,-0.417 3.334,-0.834c1.666,-1.25 2.5,-2.916 2.5,-5c-0,-2.083 -0.834,-3.75 -2.5,-5Z" style="fill:#ccc697;fill-rule:nonzero;"/><path d="M417.083,303.75c-2.083,0 -3.75,1.25 -5,2.5c-0.833,0.833 -0.833,2.083 -0.833,3.333c0,0.834 0,1.667 0.417,2.5c0.833,2.084 2.916,3.75 5.416,3.75c2.5,0 4.584,-1.666 5.417,-3.75c0.417,-0.833 0.417,-1.666 0.417,-2.5c-0,-1.25 -0.417,-2.5 -0.834,-3.333c-1.25,-1.667 -2.916,-2.5 -5,-2.5Z" style="fill:#ccc697;fill-rule:nonzero;"/><circle cx="417.083" cy="249.583" r="5.833" style="fill:#ccc697;"/><circle cx="387.083" cy="279.583" r="5.833" style="fill:#ccc697;"/><circle cx="447.083" cy="279.583" r="5.833" style="fill:#ccc697;"/><path d="M358.333,303.75l-1.25,0c-0.833,0 -1.666,0 -2.5,0.417c-1.25,0.416 -2.083,1.25 -2.5,2.083c-0.833,0.833 -0.833,2.083 -0.833,3.333c-0,0.834 -0,1.667 0.417,2.5c0.416,1.25 1.666,2.5 3.333,3.334c0.833,0.416 1.667,0.416 2.5,0.416l1.25,0c2.083,-0.416 3.75,-1.666 4.167,-3.333c0.416,-0.833 0.416,-1.667 0.416,-2.5c0,-1.25 -0.416,-2.5 -0.833,-3.333c-1.25,-1.667 -2.5,-2.5 -4.167,-2.917Z" style="fill:#ccc697;fill-rule:nonzero;"/><path d="M358.333,243.75l-1.25,-0c-0.833,-0 -1.666,-0 -2.5,0.417c-2.083,0.833 -3.75,2.916 -3.75,5.416c0,2.5 1.667,4.584 3.75,5.417c0.834,0.417 1.667,0.417 2.5,0.417l1.25,-0c2.917,-0.417 4.584,-2.917 4.584,-5.834c-0,-2.916 -1.667,-5.416 -4.584,-5.833Z" style="fill:#ccc697;fill-rule:nonzero;"/><path d="M421.25,425.417c-0.417,-0.417 -0.417,-0.417 -0.833,-0.834c-0.834,-0.416 -1.25,-0.833 -2.084,-0.833l-2.5,0c-0.833,0 -1.666,0.417 -2.083,0.833c-0.417,0.417 -0.417,0.417 -0.833,0.834c-0.834,0.833 -1.25,1.666 -1.667,2.916l0,1.25c0,3.334 2.5,5.834 5.833,5.834c3.334,-0 5.834,-2.5 5.834,-5.834l-0,-1.25c-0,-1.25 -0.834,-2.083 -1.667,-2.916Z" style="fill:#ccc697;fill-rule:nonzero;"/><circle cx="417.083" cy="369.583" r="5.833" style="fill:#ccc697;"/><circle cx="387.083" cy="399.583" r="5.833" style="fill:#ccc697;"/><circle cx="447.083" cy="399.583" r="5.833" style="fill:#ccc697;"/><circle cx="387.083" cy="339.583" r="5.833" style="fill:#ccc697;"/><circle cx="447.083" cy="339.583" r="5.833" style="fill:#ccc697;"/><path d="M361.25,425.417c-0.417,-0.417 -0.417,-0.417 -0.833,-0.834c-0.834,-0.416 -1.25,-0.833 -2.084,-0.833l-2.5,0c-0.416,0 -0.833,0 -1.25,0.417c-0.416,-0 -0.833,0.416 -0.833,0.416c-0.417,0.417 -0.417,0.417 -0.833,0.834c-0.834,0.833 -1.25,1.666 -1.667,2.916l0,1.25c0,2.5 1.667,4.584 3.75,5.417c0.833,0.417 1.667,0.417 2.5,0.417l1.25,-0c2.917,-0.417 4.583,-2.917 4.583,-5.834l0,-1.25c-0.416,-1.25 -1.25,-2.083 -2.083,-2.916Z" style="fill:#ccc697;fill-rule:nonzero;"/><path d="M358.333,363.75l-1.25,0c-0.833,0 -1.666,0 -2.5,0.417c-2.083,0.833 -3.75,2.916 -3.75,5.416c0,2.5 1.667,4.584 3.75,5.417c0.834,0.417 1.667,0.417 2.5,0.417l1.25,-0c2.917,-0.417 4.584,-2.917 4.584,-5.834c-0,-2.916 -1.667,-5.416 -4.584,-5.833Z" style="fill:#ccc697;fill-rule:nonzero;"/><path d="M382.5,455.417c2.917,-0 5.833,-0 8.333,-0.417c-1.25,-0.833 -2.5,-1.667 -4.166,-1.667c-1.25,0.417 -2.917,0.834 -4.167,2.084Z" style="fill:#ccc697;fill-rule:nonzero;"/><path d="M297.083,303.75c-2.083,0 -3.75,1.25 -5,2.5c-0.833,0.833 -0.833,2.083 -0.833,3.333c-0,0.834 -0,1.667 0.417,2.5c0.833,2.084 2.916,3.75 5.416,3.75c2.5,0 4.584,-1.666 5.417,-3.75c0.417,-0.833 0.417,-1.666 0.417,-2.5c-0,-1.25 -0.417,-2.5 -0.834,-3.333c-1.25,-1.667 -2.916,-2.5 -5,-2.5Z" style="fill:#ccc697;fill-rule:nonzero;"/><circle cx="297.083" cy="249.583" r="5.833" style="fill:#ccc697;"/><circle cx="267.083" cy="279.583" r="5.833" style="fill:#ccc697;"/><circle cx="327.083" cy="279.583" r="5.833" style="fill:#ccc697;"/><path d="M267.083,225.417c2.084,-0 3.75,-1.25 5,-2.5l-10.416,-1.25c0.833,2.5 2.916,3.75 5.416,3.75Z" style="fill:#ccc697;fill-rule:nonzero;"/><path d="M240.417,304.583c-0.834,-0.833 -2.084,-0.833 -3.334,-0.833c-0.833,0 -1.666,0 -2.5,0.417c-1.25,0.416 -2.083,1.25 -2.5,2.083c-0.833,0.833 -0.833,2.083 -0.833,3.333c-0,0.834 -0,1.667 0.417,2.5c0.416,1.25 1.666,2.5 3.333,3.334c0.833,0.416 1.667,0.416 2.5,0.416c1.25,0 2.5,-0.416 3.333,-0.833c0.834,-0.417 1.667,-1.667 2.084,-2.5c0.416,-0.833 0.416,-1.667 0.416,-2.5c0,-1.25 -0.416,-2.5 -0.833,-3.333c-0.833,-1.25 -1.25,-1.667 -2.083,-2.084Z" style="fill:#ccc697;fill-rule:nonzero;"/><path d="M240.417,244.583c-0.834,-0.833 -2.084,-0.833 -3.334,-0.833c-0.833,-0 -1.666,-0 -2.5,0.417c-2.083,0.833 -3.75,2.916 -3.75,5.416c0,2.5 1.667,4.584 3.75,5.417c0.834,0.417 1.667,0.417 2.5,0.417c1.25,-0 2.5,-0.417 3.334,-0.834c1.666,-1.25 2.5,-2.916 2.5,-5c-0,-2.083 -0.834,-3.75 -2.5,-5Z" style="fill:#ccc697;fill-rule:nonzero;"/><path d="M301.25,425.417c-0.417,-0.417 -0.417,-0.417 -0.833,-0.834c-0.834,-0.416 -1.25,-0.833 -2.084,-0.833l-2.5,0c-0.833,0 -1.666,0.417 -2.083,0.833c-0.417,0.417 -0.417,0.417 -0.833,0.834c-0.834,0.833 -1.25,1.666 -1.667,2.916l-0,1.25c-0,2.5 1.25,4.167 3.333,5.417l1.25,0.417c0.417,-0 1.25,0.416 1.667,0.416c3.333,0 5.833,-2.5 5.833,-5.833l0,-1.25c-0.416,-1.667 -1.25,-2.5 -2.083,-3.333Z" style="fill:#ccc697;fill-rule:nonzero;"/><circle cx="297.083" cy="369.583" r="5.833" style="fill:#ccc697;"/><circle cx="267.083" cy="399.583" r="5.833" style="fill:#ccc697;"/><circle cx="327.083" cy="399.583" r="5.833" style="fill:#ccc697;"/><circle cx="267.083" cy="339.583" r="5.833" style="fill:#ccc697;"/><circle cx="327.083" cy="339.583" r="5.833" style="fill:#ccc697;"/><path d="M240.417,364.583c-0.834,-0.833 -2.084,-0.833 -3.334,-0.833c-0.833,0 -1.666,0 -2.5,0.417c-2.083,0.833 -3.75,2.916 -3.75,5.416c0,2.5 1.667,4.584 3.75,5.417c0.834,0.417 1.667,0.417 2.5,0.417c1.25,-0 2.5,-0.417 3.334,-0.834c1.666,-1.25 2.5,-2.916 2.5,-5c-0,-2.083 -0.834,-3.75 -2.5,-5Z" style="fill:#ccc697;fill-rule:nonzero;"/><path d="M177.083,303.75c-2.083,0 -3.75,1.25 -5,2.5c-0.833,0.833 -0.833,2.083 -0.833,3.333c-0,0.834 -0,1.667 0.417,2.5c0.833,2.084 2.916,3.75 5.416,3.75c2.5,0 4.584,-1.666 5.417,-3.75c0.417,-0.833 0.417,-1.666 0.417,-2.5c-0,-1.25 -0.417,-2.5 -0.834,-3.333c-1.25,-1.667 -2.916,-2.5 -5,-2.5Z" style="fill:#ccc697;fill-rule:nonzero;"/><circle cx="177.083" cy="249.583" r="5.833" style="fill:#ccc697;"/><circle cx="147.083" cy="279.583" r="5.833" style="fill:#ccc697;"/><circle cx="207.083" cy="279.583" r="5.833" style="fill:#ccc697;"/><circle cx="147.083" cy="219.583" r="5.833" style="fill:#ccc697;"/><path d="M202.5,215.417c-0.833,1.25 -1.667,2.5 -1.667,4.166c0,3.334 2.5,5.834 5.834,5.834c3.333,-0 5.833,-2.5 5.833,-5.834c-0,-1.25 -0.417,-2.083 -0.833,-2.916l-9.167,-1.25Z" style="fill:#ccc697;fill-rule:nonzero;"/><path d="M117.083,303.75c-2.083,0 -3.75,1.25 -5,2.5c-0.833,0.833 -0.833,2.083 -0.833,3.333c-0,0.834 -0,1.667 0.417,2.5c0.833,2.084 2.916,3.75 5.416,3.75c2.5,0 4.584,-1.666 5.417,-3.75c0.417,-0.833 0.417,-1.666 0.417,-2.5c-0,-1.25 -0.417,-2.5 -0.834,-3.333c-1.25,-1.667 -2.916,-2.5 -5,-2.5Z" style="fill:#ccc697;fill-rule:nonzero;"/><circle cx="117.083" cy="249.583" r="5.833" style="fill:#ccc697;"/><circle cx="177.083" cy="369.583" r="5.833" style="fill:#ccc697;"/><path d="M207.083,393.75c-3.333,0 -5.833,2.5 -5.833,5.833c0,0.834 0.417,1.667 0.833,2.5c1.25,-0.833 2.084,-2.083 3.334,-2.916l7.5,2.916c0.416,-0.833 0.833,-1.666 0.833,-2.916c-0.833,-2.917 -3.333,-5.417 -6.667,-5.417Z" style="fill:#ccc697;fill-rule:nonzero;"/><circle cx="147.083" cy="339.583" r="5.833" style="fill:#ccc697;"/><circle cx="207.083" cy="339.583" r="5.833" style="fill:#ccc697;"/><path d="M117.5,363.75c1.25,0.833 2.917,1.667 4.167,2.5c-0.834,-1.667 -2.5,-2.5 -4.167,-2.5Z" style="fill:#ccc697;fill-rule:nonzero;"/><path d="M51.25,248.333l-0,1.25c-0,3.334 2.5,5.834 5.833,5.834c3.334,-0 5.834,-2.5 5.834,-5.834c-0,-0.833 -0.417,-1.666 -0.834,-2.5c-3.75,0 -7.5,0.417 -10.833,1.25Z" style="fill:#ccc697;fill-rule:nonzero;"/><circle cx="87.083" cy="279.583" r="5.833" style="fill:#ccc697;"/><circle cx="87.083" cy="219.583" r="5.833" style="fill:#ccc697;"/><path d="M87.083,333.75c-0.833,-0 -1.666,0.417 -2.5,0.417c2.084,3.333 4.584,6.25 7.5,9.166c0.834,-0.833 1.25,-2.083 1.25,-3.75c-0.416,-3.333 -2.916,-5.833 -6.25,-5.833Z" style="fill:#ccc697;fill-rule:nonzero;"/></g><path d="M473.75,241.25l-386.25,-40.417c1.25,27.084 5.417,55.834 16.25,76.25c-0.833,0.417 -1.25,1.25 -2.083,1.667c-9.584,9.167 -13.75,20.833 -9.167,25.417c4.167,4.583 15,0.833 24.167,-7.5c17.5,20.833 45.833,40.833 93.333,56.666c47.5,15.417 86.667,20 119.167,17.5l-0,2.084c1.666,13.333 7.916,23.333 14.166,22.916c6.25,-0.833 10.417,-12.083 8.75,-25.416c0,-0.834 -0.416,-1.667 -0.416,-2.917c11.666,-2.5 21.666,-5.417 30.833,-9.583c1.25,1.25 2.5,2.916 4.167,4.166c10,8.75 21.666,12.084 25.833,7.5c3.75,-4.583 -0,-14.166 -8.75,-22.916c13.333,-8.75 49.167,-42.917 70,-105.417Z" style="fill:#fbfbe8;fill-rule:nonzero;"/><path d="M376.25,462.917c-22.917,-0 -45.417,-4.167 -67.083,-12.917l-105.417,-41.667c-0.833,0.834 -2.083,1.667 -2.917,2.5c-21.666,15.417 -43.75,17.5 -53.333,4.584c-5.417,-7.5 -4.583,-17.917 1.667,-28.75l-26.25,-10.417c-37.5,-15 -64.167,-49.167 -70,-88.75c-21.667,-2.5 -36.667,-12.917 -36.667,-26.667c-0,-13.75 14.167,-24.166 35.417,-26.666l-0,-37.084l20.833,0l-0,57.084l-10.417,-0c-13.75,-0 -22.083,4.166 -24.583,6.666c2.5,2.5 10.833,6.667 24.583,6.667l9.584,-0l0.833,9.583c2.083,35.417 25,67.084 57.917,80l54.166,21.667l-11.25,11.25c-5.833,5.833 -8.333,10.833 -8.75,13.333c3.334,0.417 12.5,-1.25 23.75,-9.166c2.084,-1.25 3.75,-2.917 6.25,-5l5,-4.584l117.5,46.667c42.5,17.083 90.417,15 131.25,-5.417l42.917,-21.666l5,3.75c2.5,1.666 5,3.333 7.5,4.583c12.083,6.25 21.25,6.667 24.583,5.417c-0.833,-2.084 -3.75,-7.084 -11.25,-12.5l-11.25,-7.917l10.834,-8.333c16.666,-12.917 28.333,-31.667 32.916,-52.5l1.667,-6.667l6.667,-1.25c2.5,-0.417 4.583,-0.833 6.666,-1.667c12.917,-4.166 20,-10.416 21.25,-13.333c-2.5,-1.25 -9.583,-2.5 -20.833,-0l-12.917,2.917l0,-65.417l20.834,-0l-0,40.417c17.083,-1.25 29.583,4.583 33.333,15.833c4.583,15 -10.417,31.667 -35.417,39.583c-0.833,0.417 -1.25,0.417 -2.083,0.417c-5.417,18.75 -15.417,35.833 -29.583,49.583c9.583,10.417 12.916,21.667 8.333,30.834c-7.5,14.166 -29.583,15.416 -53.333,2.916c-1.667,-0.833 -2.917,-1.666 -4.584,-2.5l-32.083,15.834c-25.417,12.083 -53.333,18.75 -81.25,18.75Z" style="fill:#282f39;fill-rule:nonzero;"/><path d="M11.25,189.167c-0,19.166 11.25,26.666 76.667,11.25c65.416,-15.417 137.083,-0 193.333,24.166c78.75,33.75 148.333,86.25 207.5,86.25c77.5,0 122.5,-65.833 122.5,-127.916c-0,-62.5 -103.75,-127.084 -251.667,-158.75c-147.916,-31.667 -235.416,-2.084 -283.333,36.25c-42.083,33.333 -65,96.666 -65,128.75Z" style="fill:#f26a26;fill-rule:nonzero;"/><g><g><path d="M602.917,188.333c-0.417,-2.5 -2.5,-4.166 -4.584,-4.583l-1.25,-0c-0.833,-0 -1.666,-0 -2.5,0.417c-1.666,0.833 -3.333,2.5 -3.75,4.166l0,1.25c0,2.5 1.667,4.584 3.75,5.417c0.834,0.417 1.667,0.417 2.5,0.417l1.25,-0c2.917,-0.417 4.584,-2.917 4.584,-5.834l-0,-1.25Z" style="fill:#e35b21;fill-rule:nonzero;"/><path d="M480.417,64.583c-0.834,-0.833 -2.084,-0.833 -3.334,-0.833c-2.083,-0 -3.75,1.25 -5,2.5c-0.833,0.833 -0.833,2.083 -0.833,3.333c-0,0.834 -0,1.667 0.417,2.5c0.833,2.084 2.916,3.75 5.416,3.75c1.25,0 2.5,-0.416 3.334,-0.833c0.833,-0.417 1.666,-1.667 2.083,-2.5c0.417,-0.833 0.417,-1.667 0.417,-2.5c-0,-1.25 -0.417,-2.5 -0.834,-3.333c-0.416,-1.25 -0.833,-1.667 -1.666,-2.084Z" style="fill:#e35b21;fill-rule:nonzero;"/><path d="M537.083,183.75c-2.916,-0 -5.416,2.083 -5.833,4.583l0,1.25c0,3.334 2.5,5.834 5.833,5.834c3.334,-0 5.834,-2.5 5.834,-5.834l-0,-1.25c-0.417,-2.916 -2.917,-4.583 -5.834,-4.583Z" style="fill:#e35b21;fill-rule:nonzero;"/><circle cx="537.083" cy="129.583" r="5.833" style="fill:#e35b21;"/><circle cx="507.083" cy="159.583" r="5.833" style="fill:#e35b21;"/><circle cx="567.083" cy="159.583" r="5.833" style="fill:#e35b21;"/><circle cx="507.083" cy="99.583" r="5.833" style="fill:#e35b21;"/><path d="M480.417,184.583c-0.834,-0.833 -2.084,-0.833 -3.334,-0.833c-2.916,0 -5.416,2.083 -5.833,4.583l-0,1.25c-0,3.334 2.5,5.834 5.833,5.834c1.25,-0 2.5,-0.417 3.334,-0.834c1.666,-1.25 2.5,-2.916 2.5,-5l-0,-1.25c-0.417,-1.666 -1.25,-2.916 -2.5,-3.75Z" style="fill:#e35b21;fill-rule:nonzero;"/><path d="M480.417,124.583c-0.834,-0.833 -2.084,-0.833 -3.334,-0.833c-3.333,0 -5.833,2.5 -5.833,5.833c-0,3.334 2.5,5.834 5.833,5.834c1.25,-0 2.5,-0.417 3.334,-0.834c1.666,-1.25 2.5,-2.916 2.5,-5c-0,-2.083 -0.834,-3.75 -2.5,-5Z" style="fill:#e35b21;fill-rule:nonzero;"/><path d="M591.25,249.583c-0,0.834 0.417,2.084 0.833,2.917c1.667,-2.917 3.334,-5.833 5,-8.75c-0.833,-0 -1.25,-0 -2.083,0.417c-2.5,0.833 -3.75,2.916 -3.75,5.416Z" style="fill:#e35b21;fill-rule:nonzero;"/><circle cx="537.083" cy="249.583" r="5.833" style="fill:#e35b21;"/><circle cx="507.083" cy="279.583" r="5.833" style="fill:#e35b21;"/><path d="M567.083,273.75c-3.333,-0 -5.833,2.5 -5.833,5.833c0,2.084 1.25,4.167 2.917,5c2.916,-2.5 5.833,-5 8.333,-7.5c-0.833,-2.083 -2.917,-3.333 -5.417,-3.333Z" style="fill:#e35b21;fill-rule:nonzero;"/><circle cx="507.083" cy="219.583" r="5.833" style="fill:#e35b21;"/><circle cx="567.083" cy="219.583" r="5.833" style="fill:#e35b21;"/><path d="M480.417,304.583c-0.834,-0.833 -2.084,-0.833 -3.334,-0.833c-2.083,0 -3.75,1.25 -5,2.5c-0.833,0.833 -0.833,2.083 -0.833,3.333l-0,0.417c2.083,0.417 4.167,0.417 5.833,0.833c2.084,0 3.75,0.417 5.834,0.417c-0,-0.417 0.416,-0.833 0.416,-1.667c0,-1.25 -0.416,-2.5 -0.833,-3.333c-0.833,-0.833 -1.25,-1.25 -2.083,-1.667Z" style="fill:#e35b21;fill-rule:nonzero;"/><path d="M480.417,244.583c-0.834,-0.833 -2.084,-0.833 -3.334,-0.833c-3.333,-0 -5.833,2.5 -5.833,5.833c-0,3.334 2.5,5.834 5.833,5.834c1.25,-0 2.5,-0.417 3.334,-0.834c1.666,-1.25 2.5,-2.916 2.5,-5c-0,-2.083 -0.834,-3.75 -2.5,-5Z" style="fill:#e35b21;fill-rule:nonzero;"/><path d="M417.083,63.75c-2.083,-0 -3.75,1.25 -5,2.5c-0.833,0.833 -0.833,2.083 -0.833,3.333c0,0.834 0,1.667 0.417,2.5c0.833,2.084 2.916,3.75 5.416,3.75c2.5,0 4.584,-1.666 5.417,-3.75c0.417,-0.833 0.417,-1.666 0.417,-2.5c-0,-1.25 -0.417,-2.5 -0.834,-3.333c-1.25,-1.667 -2.916,-2.5 -5,-2.5Z" style="fill:#e35b21;fill-rule:nonzero;"/><circle cx="387.083" cy="39.583" r="5.833" style="fill:#e35b21;"/><path d="M358.333,63.75l-1.25,-0c-0.833,-0 -1.666,-0 -2.5,0.417c-1.25,0.416 -2.083,1.25 -2.5,2.083c-0.833,0.833 -0.833,2.083 -0.833,3.333c-0,0.834 -0,1.667 0.417,2.5c0.416,1.25 1.666,2.5 3.333,3.334c0.833,0.416 1.667,0.416 2.5,0.416l1.25,0c2.083,-0.416 3.75,-1.666 4.167,-3.333c0.416,-0.833 0.416,-1.667 0.416,-2.5c0,-1.25 -0.416,-2.5 -0.833,-3.333c-1.25,-1.667 -2.5,-2.5 -4.167,-2.917Z" style="fill:#e35b21;fill-rule:nonzero;"/><path d="M417.083,183.75c-2.916,-0 -5.416,2.083 -5.833,4.583l0,1.25c0,3.334 2.5,5.834 5.833,5.834c3.334,-0 5.834,-2.5 5.834,-5.834l-0,-1.25c-0.417,-2.916 -2.917,-4.583 -5.834,-4.583Z" style="fill:#e35b21;fill-rule:nonzero;"/><circle cx="417.083" cy="129.583" r="5.833" style="fill:#e35b21;"/><circle cx="387.083" cy="159.583" r="5.833" style="fill:#e35b21;"/><circle cx="447.083" cy="159.583" r="5.833" style="fill:#e35b21;"/><circle cx="387.083" cy="99.583" r="5.833" style="fill:#e35b21;"/><circle cx="447.083" cy="99.583" r="5.833" style="fill:#e35b21;"/><path d="M358.333,183.75l-1.25,-0c-0.833,-0 -1.666,-0 -2.5,0.417c-1.666,0.833 -3.333,2.5 -3.75,4.166l0,1.25c0,2.5 1.667,4.584 3.75,5.417c0.834,0.417 1.667,0.417 2.5,0.417l1.25,-0c2.917,-0.417 4.584,-2.917 4.584,-5.834l-0,-1.25c-0.417,-2.5 -2.084,-4.166 -4.584,-4.583Z" style="fill:#e35b21;fill-rule:nonzero;"/><path d="M358.333,123.75l-1.25,-0c-0.833,-0 -1.666,-0 -2.5,0.417c-2.083,0.833 -3.75,2.916 -3.75,5.416c0,2.5 1.667,4.584 3.75,5.417c0.834,0.417 1.667,0.417 2.5,0.417l1.25,-0c2.917,-0.417 4.584,-2.917 4.584,-5.834c-0,-2.916 -1.667,-5.416 -4.584,-5.833Z" style="fill:#e35b21;fill-rule:nonzero;"/><circle cx="417.083" cy="249.583" r="5.833" style="fill:#e35b21;"/><path d="M387.083,273.75c-2.083,-0 -3.75,0.833 -4.583,2.5c3.333,1.667 7.083,3.75 10.417,5.417c-0,-0.417 0.416,-1.25 0.416,-1.667c-0.416,-3.75 -2.916,-6.25 -6.25,-6.25Z" style="fill:#e35b21;fill-rule:nonzero;"/><circle cx="447.083" cy="279.583" r="5.833" style="fill:#e35b21;"/><circle cx="387.083" cy="219.583" r="5.833" style="fill:#e35b21;"/><circle cx="447.083" cy="219.583" r="5.833" style="fill:#e35b21;"/><path d="M358.333,243.75l-1.25,-0c-0.833,-0 -1.666,-0 -2.5,0.417c-2.083,0.833 -3.75,2.916 -3.75,5.416c0,2.5 1.667,4.584 3.75,5.417c0.834,0.417 1.667,0.417 2.5,0.417l1.25,-0c2.917,-0.417 4.584,-2.917 4.584,-5.834c-0,-2.916 -1.667,-5.416 -4.584,-5.833Z" style="fill:#e35b21;fill-rule:nonzero;"/><path d="M297.083,63.75c-2.083,-0 -3.75,1.25 -5,2.5c-0.833,0.833 -0.833,2.083 -0.833,3.333c-0,0.834 -0,1.667 0.417,2.5c0.833,2.084 2.916,3.75 5.416,3.75c2.5,0 4.584,-1.666 5.417,-3.75c0.417,-0.833 0.417,-1.666 0.417,-2.5c-0,-1.25 -0.417,-2.5 -0.834,-3.333c-1.25,-1.667 -2.916,-2.5 -5,-2.5Z" style="fill:#e35b21;fill-rule:nonzero;"/><path d="M300.417,14.583c-2.5,-0.416 -5.417,-0.833 -7.917,-0.833c1.25,1.25 2.5,2.083 4.583,2.083c1.25,-0.416 2.5,-0.833 3.334,-1.25Z" style="fill:#e35b21;fill-rule:nonzero;"/><circle cx="267.083" cy="39.583" r="5.833" style="fill:#e35b21;"/><circle cx="327.083" cy="39.583" r="5.833" style="fill:#e35b21;"/><path d="M240.417,64.583c-0.834,-0.833 -2.084,-0.833 -3.334,-0.833c-0.833,-0 -1.666,-0 -2.5,0.417c-1.25,0.416 -2.083,1.25 -2.5,2.083c-0.833,0.833 -0.833,2.083 -0.833,3.333c-0,0.834 -0,1.667 0.417,2.5c0.416,1.25 1.666,2.5 3.333,3.334c0.833,0.416 1.667,0.416 2.5,0.416c1.25,0 2.5,-0.416 3.333,-0.833c0.834,-0.417 1.667,-1.667 2.084,-2.5c0.416,-0.833 0.416,-1.667 0.416,-2.5c0,-1.25 -0.416,-2.5 -0.833,-3.333c-0.833,-1.25 -1.25,-1.667 -2.083,-2.084Z" style="fill:#e35b21;fill-rule:nonzero;"/><path d="M297.083,183.75c-2.916,-0 -5.416,2.083 -5.833,4.583l-0,1.25c-0,3.334 2.5,5.834 5.833,5.834c3.334,-0 5.834,-2.5 5.834,-5.834l-0,-1.25c-0.417,-2.916 -2.917,-4.583 -5.834,-4.583Z" style="fill:#e35b21;fill-rule:nonzero;"/><circle cx="297.083" cy="129.583" r="5.833" style="fill:#e35b21;"/><circle cx="267.083" cy="159.583" r="5.833" style="fill:#e35b21;"/><circle cx="327.083" cy="159.583" r="5.833" style="fill:#e35b21;"/><circle cx="267.083" cy="99.583" r="5.833" style="fill:#e35b21;"/><circle cx="327.083" cy="99.583" r="5.833" style="fill:#e35b21;"/><path d="M240.417,184.583c-0.834,-0.833 -2.084,-0.833 -3.334,-0.833c-0.833,0 -1.666,0 -2.5,0.417c-1.666,0.833 -3.333,2.5 -3.75,4.166l0,1.25c0,2.5 1.667,4.584 3.75,5.417c0.834,0.417 1.667,0.417 2.5,0.417c1.25,-0 2.5,-0.417 3.334,-0.834c1.666,-1.25 2.5,-2.916 2.5,-5l-0,-1.25c-0.417,-1.666 -1.25,-2.916 -2.5,-3.75Z" style="fill:#e35b21;fill-rule:nonzero;"/><path d="M240.417,124.583c-0.834,-0.833 -2.084,-0.833 -3.334,-0.833c-0.833,0 -1.666,0 -2.5,0.417c-2.083,0.833 -3.75,2.916 -3.75,5.416c0,2.5 1.667,4.584 3.75,5.417c0.834,0.417 1.667,0.417 2.5,0.417c1.25,-0 2.5,-0.417 3.334,-0.834c1.666,-1.25 2.5,-2.916 2.5,-5c-0,-2.083 -0.834,-3.75 -2.5,-5Z" style="fill:#e35b21;fill-rule:nonzero;"/><path d="M267.083,213.75c-2.5,0 -4.583,1.667 -5.416,3.75c3.75,1.25 7.5,2.917 11.25,4.167c0.416,-0.417 0.416,-1.25 0.416,-2.084c-0.416,-3.333 -2.916,-5.833 -6.25,-5.833Z" style="fill:#e35b21;fill-rule:nonzero;"/><circle cx="327.083" cy="219.583" r="5.833" style="fill:#e35b21;"/><path d="M177.083,63.75c-2.083,-0 -3.75,1.25 -5,2.5c-0.833,0.833 -0.833,2.083 -0.833,3.333c-0,0.834 -0,1.667 0.417,2.5c0.833,2.084 2.916,3.75 5.416,3.75c2.5,0 4.584,-1.666 5.417,-3.75c0.417,-0.833 0.417,-1.666 0.417,-2.5c-0,-1.25 -0.417,-2.5 -0.834,-3.333c-1.25,-1.667 -2.916,-2.5 -5,-2.5Z" style="fill:#e35b21;fill-rule:nonzero;"/><path d="M234.583,15c0.834,0.417 1.667,0.417 2.5,0.417c1.25,-0 2.5,-0.417 3.334,-0.834c1.25,-0.833 2.083,-2.083 2.5,-3.75l-11.667,0c0.417,2.084 1.667,3.334 3.333,4.167Z" style="fill:#e35b21;fill-rule:nonzero;"/><circle cx="147.083" cy="39.583" r="5.833" style="fill:#e35b21;"/><circle cx="207.083" cy="39.583" r="5.833" style="fill:#e35b21;"/><path d="M117.083,63.75c-2.083,-0 -3.75,1.25 -5,2.5c-0.833,0.833 -0.833,2.083 -0.833,3.333c-0,0.834 -0,1.667 0.417,2.5c0.833,2.084 2.916,3.75 5.416,3.75c2.5,0 4.584,-1.666 5.417,-3.75c0.417,-0.833 0.417,-1.666 0.417,-2.5c-0,-1.25 -0.417,-2.5 -0.834,-3.333c-1.25,-1.667 -2.916,-2.5 -5,-2.5Z" style="fill:#e35b21;fill-rule:nonzero;"/><path d="M177.083,183.75c-2.916,-0 -5.416,2.083 -5.833,4.583l-0,1.25c-0,3.334 2.5,5.834 5.833,5.834c3.334,-0 5.834,-2.5 5.834,-5.834l-0,-1.25c-0.417,-2.916 -2.917,-4.583 -5.834,-4.583Z" style="fill:#e35b21;fill-rule:nonzero;"/><circle cx="177.083" cy="129.583" r="5.833" style="fill:#e35b21;"/><circle cx="147.083" cy="159.583" r="5.833" style="fill:#e35b21;"/><circle cx="207.083" cy="159.583" r="5.833" style="fill:#e35b21;"/><circle cx="147.083" cy="99.583" r="5.833" style="fill:#e35b21;"/><circle cx="207.083" cy="99.583" r="5.833" style="fill:#e35b21;"/><path d="M117.083,183.75c-2.916,-0 -5.416,2.083 -5.833,4.583l-0,1.25c-0,3.334 2.5,5.834 5.833,5.834c3.334,-0 5.834,-2.5 5.834,-5.834l-0,-1.25c-0.417,-2.916 -2.917,-4.583 -5.834,-4.583Z" style="fill:#e35b21;fill-rule:nonzero;"/><circle cx="117.083" cy="129.583" r="5.833" style="fill:#e35b21;"/><path d="M57.083,183.75c-2.916,-0 -5.416,2.083 -5.833,4.583l0,1.25c0,3.334 2.5,5.834 5.833,5.834c3.334,-0 5.834,-2.5 5.834,-5.834l-0,-1.25c-0.417,-2.916 -2.917,-4.583 -5.834,-4.583Z" style="fill:#e35b21;fill-rule:nonzero;"/><circle cx="57.083" cy="129.583" r="5.833" style="fill:#e35b21;"/><circle cx="27.083" cy="159.583" r="5.833" style="fill:#e35b21;"/><circle cx="87.083" cy="159.583" r="5.833" style="fill:#e35b21;"/><circle cx="87.083" cy="99.583" r="5.833" style="fill:#e35b21;"/></g></g><path d="M565,109.583c-44.167,-35 -117.083,-66.25 -205.833,-85.416c-147.917,-32.084 -235.417,-2.084 -283.334,36.25c-27.5,21.666 -46.666,56.666 -56.666,87.083c8.333,11.25 25.416,22.083 58.75,13.75c60.416,-15.417 168.75,-20.833 285.416,37.083c91.25,45 198.75,-10 201.667,-88.75Z" style="fill:#f89e55;fill-rule:nonzero;"/><g><path d="M589.167,132.5c-30.417,7.5 -65,20 -99.584,40.417c0,-0 -27.083,70.833 -57.083,126.25c19.583,7.5 38.333,12.5 56.25,12.5l6.667,-0c10,-37.5 19.166,-82.917 15.833,-119.167c0,0 37.917,-20.417 97.083,-27.917c-4.166,-11.25 -10.416,-21.666 -19.166,-32.083Z" style="fill:#f04e23;fill-rule:nonzero;"/><path d="M403.75,130c-0,-0 56.667,-33.333 140.417,-35.417c-15.834,-10.416 -34.167,-20 -55,-29.166c-32.5,8.333 -69.584,22.5 -107.5,46.25c-0,-0 -26.667,77.916 -55.834,134.583c20.417,10.417 40,21.25 58.75,30.833c11.667,-40 25,-101.666 19.167,-147.083Z" style="fill:#f04e23;fill-rule:nonzero;"/><path d="M293.333,90.417c0,-0 47.917,-37.5 125.417,-50.834c-18.75,-5.833 -38.75,-10.833 -59.583,-15.416c-1.667,-0.417 -3.75,-0.834 -5.417,-1.25c-26.667,12.083 -55.833,28.75 -84.167,52.083c0,-0 -15.416,74.583 -35.833,132.5c16.25,4.583 32.083,10.417 46.667,16.667c4.583,2.083 8.75,3.75 13.333,5.833c5.833,-39.583 10.417,-97.917 -0.417,-139.583Z" style="fill:#f04e23;fill-rule:nonzero;"/><path d="M177.5,95c-0,0 35.417,-49.583 105.417,-82.5c-22.084,-2.083 -42.084,-2.083 -60.834,-1.25c-23.333,18.75 -47.916,44.167 -69.583,76.667c-0,-0 5,54.583 4.167,107.083c19.166,0.833 37.916,3.75 56.25,7.917c-6.667,-35.834 -17.5,-78.75 -35.417,-107.917Z" style="fill:#f04e23;fill-rule:nonzero;"/><path d="M63.333,129.167c0,-0 5,-35.834 28.75,-80c-5.833,3.75 -11.25,7.5 -16.25,11.666c-11.25,9.167 -21.25,20 -29.583,32.5c-2.917,12.917 -5.417,26.667 -7.083,41.667c-0,0 20.416,31.667 40.416,68.333c2.5,-0.416 5,-1.25 7.5,-1.666c15,-3.75 30.834,-5.417 46.25,-5.834c-19.583,-25.833 -45,-52.083 -70,-66.666Z" style="fill:#f04e23;fill-rule:nonzero;"/></g><path d="M488.333,321.667c-42.083,-0 -88.333,-24.584 -137.5,-50.417c-24.166,-12.5 -48.75,-25.833 -74.583,-37.083c-43.75,-19.167 -91.25,-29.584 -133.75,-29.584c-18.75,0 -36.25,2.084 -52.917,5.834c-24.583,5.833 -42.083,8.333 -55,8.333c-23.333,-0 -34.583,-10 -34.583,-30c0,-34.583 23.75,-101.667 68.75,-137.083c30,-23.75 84.167,-51.667 173.75,-51.667c36.25,0 76.25,4.583 118.333,13.75c155.417,33.75 260,101.667 260,169.167c0.834,68.333 -49.166,138.75 -132.5,138.75Zm-345.416,-137.5c57.5,-0 109.166,17.083 141.666,31.25c26.25,11.25 51.667,24.583 75.834,37.5c46.666,24.583 90.833,47.916 127.5,47.916c70.416,0 112.083,-59.583 112.083,-117.5c-0,-55.833 -102.5,-118.333 -243.75,-148.75c-40.833,-8.75 -79.167,-13.333 -113.75,-13.333c-83.75,-0 -133.75,25.833 -160.833,47.083c-39.167,31.25 -60.834,91.25 -60.834,120.834c0,6.666 0,9.166 13.75,9.166c10.834,0 27.084,-2.5 50,-7.916c18.75,-4.167 38.334,-6.25 58.334,-6.25Z" style="fill:#282f39;fill-rule:nonzero;"/><path d="M110.417,72.083c-0,0 40.833,-36.25 129.166,-34.166c88.334,2.083 89.167,21.666 80.834,25.833c-8.334,4.167 -73.75,1.25 -132.917,8.333c-59.167,7.084 -93.75,22.084 -77.083,0Z" style="fill:#fff;fill-rule:nonzero;"/></g></g></svg>