<?xml version="1.0" encoding="UTF-8" standalone="no"?><!DOCTYPE svg PUBLIC "-//W3C//DTD SVG 1.1//EN" "http://www.w3.org/Graphics/SVG/1.1/DTD/svg11.dtd"><svg width="100%" height="100%" viewBox="0 0 625 470" version="1.1" xmlns="http://www.w3.org/2000/svg" xmlns:xlink="http://www.w3.org/1999/xlink" xml:space="preserve" xmlns:serif="http://www.serif.com/" style="fill-rule:evenodd;clip-rule:evenodd;stroke-linejoin:round;stroke-miterlimit:2;"><g><g><path d="M567.083,260l0,52.5c16.667,-3.75 31.25,-1.25 33.75,7.083c2.917,8.75 -10,20.834 -28.75,26.667c-2.5,0.833 -5,1.25 -7.5,2.083c-5,22.917 -17.916,43.75 -36.666,58.334c11.666,8.75 18.333,19.166 14.583,25.833c-4.167,8.333 -21.667,7.5 -39.167,-1.25c-3.333,-1.667 -5.833,-3.333 -8.75,-5.417l-37.5,18.75c-43.75,21.667 -94.583,24.167 -140,5.834l-111.25,-44.167c-2.083,2.083 -4.583,4.167 -7.083,5.833c-15.833,11.25 -32.917,14.584 -38.333,7.084c-4.167,-5.834 0.416,-17.084 10.416,-27.084l-39.583,-15.833c-37.083,-14.583 -62.083,-49.583 -64.583,-89.167l-0.417,0c-19.583,0 -35.417,-7.5 -35.417,-17.083c0,-9.167 15.834,-17.083 35.417,-17.083l0,-45.834l500.833,52.917Z" style="fill:#ece3ac;fill-rule:nonzero;"/><g><path d="M592.917,325.417c-3.334,-0 -5.834,2.5 -5.834,5.833c0,2.5 1.667,4.583 3.75,5.417c3.334,-2.5 5.834,-5 7.917,-7.5c-0.833,-2.084 -3.333,-3.75 -5.833,-3.75Z" style="fill:#ccc697;fill-rule:nonzero;"/><path d="M562.917,295.417c-0.834,-0 -1.667,-0 -2.5,0.416c-2.084,0.834 -3.75,2.917 -3.75,5.417c-0,2.5 1.666,4.583 3.75,5.417c0.833,0.416 1.666,0.416 2.5,0.416l1.25,0c1.25,-0.416 2.083,-0.833 2.916,-1.666l0,-8.334c-0.833,-0.833 -1.666,-1.25 -2.916,-1.666l-1.25,-0Z" style="fill:#ccc697;fill-rule:nonzero;"/><path d="M557.083,360.417l0,1.25c0,1.666 0.834,3.333 2.084,4.583c0.416,-1.25 1.25,-2.917 1.666,-4.583c0.834,-2.084 1.25,-3.75 2.084,-5.834c-0.834,0 -1.25,0 -2.084,0.417c-2.083,0.417 -3.333,2.083 -3.75,4.167Z" style="fill:#ccc697;fill-rule:nonzero;"/><path d="M502.917,355.417c-2.917,-0 -5.417,2.083 -5.834,4.583l0,1.25c0,3.333 2.5,5.833 5.834,5.833c3.333,0 5.833,-2.5 5.833,-5.833l-0,-1.25c-0.417,-2.5 -2.917,-4.583 -5.833,-4.583Z" style="fill:#ccc697;fill-rule:nonzero;"/><circle cx="502.917" cy="301.667" r="5.833" style="fill:#ccc697;"/><circle cx="472.917" cy="331.667" r="5.833" style="fill:#ccc697;"/><circle cx="532.917" cy="331.667" r="5.833" style="fill:#ccc697;"/><circle cx="472.917" cy="271.667" r="5.833" style="fill:#ccc697;"/><circle cx="532.917" cy="271.667" r="5.833" style="fill:#ccc697;"/><path d="M446.25,356.667c-0.833,-0.834 -2.083,-0.834 -3.333,-0.834c-2.917,0 -5.417,2.084 -5.834,4.584l0,1.25c0,3.333 2.5,5.833 5.834,5.833c1.25,0 2.5,-0.417 3.333,-0.833c1.667,-1.25 2.5,-2.917 2.5,-5l0,-1.25c0,-1.667 -1.25,-2.917 -2.5,-3.75Z" style="fill:#ccc697;fill-rule:nonzero;"/><path d="M446.25,296.667c-0.833,-0.834 -2.083,-0.834 -3.333,-0.834c-3.334,0 -5.834,2.5 -5.834,5.834c0,3.333 2.5,5.833 5.834,5.833c1.25,0 2.5,-0.417 3.333,-0.833c1.667,-1.25 2.5,-2.917 2.5,-5c0.417,-2.084 -0.833,-4.167 -2.5,-5Z" style="fill:#ccc697;fill-rule:nonzero;"/><path d="M444.583,247.083l-1.666,0l-2.917,-0.416c0.833,0.416 1.667,0.833 2.917,0.833c0.833,0 1.25,0 1.666,-0.417Z" style="fill:#ccc697;fill-rule:nonzero;"/><circle cx="502.917" cy="421.667" r="5.833" style="fill:#ccc697;"/><circle cx="472.917" cy="391.667" r="5.833" style="fill:#ccc697;"/><circle cx="532.917" cy="391.667" r="5.833" style="fill:#ccc697;"/><path d="M446.25,416.667c-0.833,-0.834 -2.083,-0.834 -3.333,-0.834c-3.334,0 -5.834,2.5 -5.834,5.834c0,3.333 2.5,5.833 5.834,5.833c1.25,0 2.5,-0.417 3.333,-0.833c1.667,-1.25 2.5,-2.917 2.5,-5c0.417,-2.084 -0.833,-4.167 -2.5,-5Z" style="fill:#ccc697;fill-rule:nonzero;"/><path d="M377.083,240l0,1.25c0,0.833 0,1.667 0.417,2.5c0.833,2.083 2.917,3.75 5.417,3.75c2.5,0 4.583,-1.667 5.416,-3.75c0.417,-0.833 0.417,-1.667 0.417,-2.5l-11.667,-1.25Z" style="fill:#ccc697;fill-rule:nonzero;"/><path d="M324.167,235.417l-1.25,-0c-0.834,-0 -1.667,-0 -2.5,0.416c-1.25,0.417 -2.084,1.25 -2.5,2.084c-0.834,0.833 -0.834,2.083 -0.834,3.333c0,0.833 0,1.667 0.417,2.5c0.417,1.25 1.667,2.5 3.333,3.333c0.834,0.417 1.667,0.417 2.5,0.417l1.25,0c2.084,-0.417 3.75,-1.667 4.167,-3.333c0.417,-0.834 0.417,-1.667 0.417,-2.5c-0,-1.25 -0.417,-2.5 -0.834,-3.334c-1.25,-1.666 -2.5,-2.5 -4.166,-2.916Z" style="fill:#ccc697;fill-rule:nonzero;"/><path d="M382.917,355.417c-2.917,-0 -5.417,2.083 -5.834,4.583l0,1.25c0,3.333 2.5,5.833 5.834,5.833c3.333,0 5.833,-2.5 5.833,-5.833l0,-1.25c-0.417,-2.5 -2.917,-4.583 -5.833,-4.583Z" style="fill:#ccc697;fill-rule:nonzero;"/><circle cx="382.917" cy="301.667" r="5.833" style="fill:#ccc697;"/><circle cx="352.917" cy="331.667" r="5.833" style="fill:#ccc697;"/><circle cx="412.917" cy="331.667" r="5.833" style="fill:#ccc697;"/><circle cx="352.917" cy="271.667" r="5.833" style="fill:#ccc697;"/><circle cx="412.917" cy="271.667" r="5.833" style="fill:#ccc697;"/><path d="M324.167,355.417l-1.25,-0c-0.834,-0 -1.667,-0 -2.5,0.416c-1.667,0.834 -3.334,2.5 -3.75,4.167l-0,1.25c-0,2.5 1.666,4.583 3.75,5.417c0.833,0.416 1.666,0.416 2.5,0.416l1.25,0c2.916,-0.416 4.583,-2.916 4.583,-5.833l0,-1.25c-0.417,-2.083 -2.083,-3.75 -4.583,-4.583Z" style="fill:#ccc697;fill-rule:nonzero;"/><path d="M324.167,295.417l-1.25,-0c-0.834,-0 -1.667,-0 -2.5,0.416c-2.084,0.834 -3.75,2.917 -3.75,5.417c-0,2.5 1.666,4.583 3.75,5.417c0.833,0.416 1.666,0.416 2.5,0.416l1.25,0c2.916,-0.416 4.583,-2.916 4.583,-5.833c0.417,-2.5 -1.667,-5 -4.583,-5.833Z" style="fill:#ccc697;fill-rule:nonzero;"/><circle cx="382.917" cy="421.667" r="5.833" style="fill:#ccc697;"/><circle cx="352.917" cy="451.667" r="5.833" style="fill:#ccc697;"/><circle cx="412.917" cy="451.667" r="5.833" style="fill:#ccc697;"/><circle cx="352.917" cy="391.667" r="5.833" style="fill:#ccc697;"/><circle cx="412.917" cy="391.667" r="5.833" style="fill:#ccc697;"/><path d="M324.167,415.417l-1.25,-0c-0.834,-0 -1.667,-0 -2.5,0.416c-2.084,0.834 -3.75,2.917 -3.75,5.417c-0,2.5 1.666,4.583 3.75,5.417c0.833,0.416 1.666,0.416 2.5,0.416l1.25,0c2.916,-0.416 4.583,-2.916 4.583,-5.833c0.417,-2.5 -1.667,-5 -4.583,-5.833Z" style="fill:#ccc697;fill-rule:nonzero;"/><path d="M262.917,235.417c-2.084,-0 -3.75,1.25 -5,2.5c-0.834,0.833 -0.834,2.083 -0.834,3.333c0,0.833 0,1.667 0.417,2.5c0.833,2.083 2.917,3.75 5.417,3.75c2.5,0 4.583,-1.667 5.416,-3.75c0.417,-0.833 0.417,-1.667 0.417,-2.5c0,-1.25 -0.417,-2.5 -0.833,-3.333c-0.834,-1.25 -2.917,-2.5 -5,-2.5Z" style="fill:#ccc697;fill-rule:nonzero;"/><path d="M206.25,236.667c-0.833,-0.834 -2.083,-0.834 -3.333,-0.834c-0.834,0 -1.667,0 -2.5,0.417c-1.25,0.417 -2.084,1.25 -2.5,2.083c-0.834,0.834 -0.834,2.084 -0.834,3.334c0,0.833 0,1.666 0.417,2.5c0.417,1.25 1.667,2.5 3.333,3.333c0.834,0.417 1.667,0.417 2.5,0.417c1.25,-0 2.5,-0.417 3.334,-0.834c0.833,-0.416 1.666,-1.666 2.083,-2.5c0.417,-0.833 0.417,-1.666 0.417,-2.5c-0,-1.25 -0.417,-2.5 -0.834,-3.333c-0.833,-1.25 -1.25,-1.667 -2.083,-2.083Z" style="fill:#ccc697;fill-rule:nonzero;"/><path d="M262.917,355.417c-2.917,-0 -5.417,2.083 -5.834,4.583l0,1.25c0,3.333 2.5,5.833 5.834,5.833c3.333,0 5.833,-2.5 5.833,-5.833l-0,-1.25c-0.417,-2.5 -2.917,-4.583 -5.833,-4.583Z" style="fill:#ccc697;fill-rule:nonzero;"/><circle cx="262.917" cy="301.667" r="5.833" style="fill:#ccc697;"/><circle cx="232.917" cy="331.667" r="5.833" style="fill:#ccc697;"/><circle cx="292.917" cy="331.667" r="5.833" style="fill:#ccc697;"/><circle cx="232.917" cy="271.667" r="5.833" style="fill:#ccc697;"/><circle cx="292.917" cy="271.667" r="5.833" style="fill:#ccc697;"/><path d="M206.25,356.667c-0.833,-0.834 -2.083,-0.834 -3.333,-0.834c-0.834,0 -1.667,0 -2.5,0.417c-1.667,0.833 -3.334,2.5 -3.75,4.167l-0,1.25c-0,2.5 1.666,4.583 3.75,5.416c0.833,0.417 1.666,0.417 2.5,0.417c1.25,0 2.5,-0.417 3.333,-0.833c1.667,-1.25 2.5,-2.917 2.5,-5l0,-1.25c0,-1.667 -1.25,-2.917 -2.5,-3.75Z" style="fill:#ccc697;fill-rule:nonzero;"/><path d="M206.25,296.667c-0.833,-0.834 -2.083,-0.834 -3.333,-0.834c-0.834,0 -1.667,0 -2.5,0.417c-2.084,0.833 -3.75,2.917 -3.75,5.417c-0,2.5 1.666,4.583 3.75,5.416c0.833,0.417 1.666,0.417 2.5,0.417c1.25,0 2.5,-0.417 3.333,-0.833c1.667,-1.25 2.5,-2.917 2.5,-5c0.417,-2.084 -0.833,-4.167 -2.5,-5Z" style="fill:#ccc697;fill-rule:nonzero;"/><circle cx="262.917" cy="421.667" r="5.833" style="fill:#ccc697;"/><circle cx="232.917" cy="391.667" r="5.833" style="fill:#ccc697;"/><circle cx="292.917" cy="391.667" r="5.833" style="fill:#ccc697;"/><path d="M142.917,235.417c-2.084,-0 -3.75,1.25 -5,2.5c-0.834,0.833 -0.834,2.083 -0.834,3.333c0,0.833 0,1.667 0.417,2.5c0.833,2.083 2.917,3.75 5.417,3.75c2.5,0 4.583,-1.667 5.416,-3.75c0.417,-0.833 0.417,-1.667 0.417,-2.5c0,-1.25 -0.417,-2.5 -0.833,-3.333c-0.834,-1.25 -2.917,-2.5 -5,-2.5Z" style="fill:#ccc697;fill-rule:nonzero;"/><path d="M112.917,217.5c2.916,0 5,-2.083 5.833,-4.583l-11.667,-1.25c0,3.333 2.917,5.833 5.834,5.833Z" style="fill:#ccc697;fill-rule:nonzero;"/><path d="M82.917,235.417c-2.084,-0 -3.75,1.25 -5,2.5c-0.834,0.833 -0.834,2.083 -0.834,3.333c0,0.833 0,1.667 0.417,2.5c0.833,2.083 2.917,3.75 5.417,3.75c2.5,0 4.583,-1.667 5.416,-3.75c0.417,-0.833 0.417,-1.667 0.417,-2.5c0,-1.25 -0.417,-2.5 -0.833,-3.333c-0.834,-1.25 -2.917,-2.5 -5,-2.5Z" style="fill:#ccc697;fill-rule:nonzero;"/><path d="M142.917,355.417c-2.917,-0 -5.417,2.083 -5.834,4.583l0,1.25c0,3.333 2.5,5.833 5.834,5.833c3.333,0 5.833,-2.5 5.833,-5.833l0,-1.25c-0.417,-2.5 -2.917,-4.583 -5.833,-4.583Z" style="fill:#ccc697;fill-rule:nonzero;"/><circle cx="142.917" cy="301.667" r="5.833" style="fill:#ccc697;"/><circle cx="112.917" cy="331.667" r="5.833" style="fill:#ccc697;"/><circle cx="172.917" cy="331.667" r="5.833" style="fill:#ccc697;"/><circle cx="112.917" cy="271.667" r="5.833" style="fill:#ccc697;"/><circle cx="172.917" cy="271.667" r="5.833" style="fill:#ccc697;"/><circle cx="82.917" cy="301.667" r="5.833" style="fill:#ccc697;"/><path d="M172.917,385.417c-2.917,-0 -5.417,2.083 -5.834,4.583l3.75,1.667c-1.25,1.25 -2.083,2.083 -2.916,3.333c1.25,1.667 2.916,2.5 5,2.5c3.333,0 5.833,-2.5 5.833,-5.833c0.417,-3.334 -2.5,-6.25 -5.833,-6.25Z" style="fill:#ccc697;fill-rule:nonzero;"/><circle cx="52.917" cy="271.667" r="5.833" style="fill:#ccc697;"/></g><path d="M475.417,247.5l-386.25,-40.417c1.25,27.084 5.416,55.834 16.25,76.25c-0.834,0.417 -1.25,1.25 -2.084,1.667c-9.583,9.167 -13.75,20.833 -9.166,25.417c4.166,4.583 15,0.833 24.166,-7.5c17.5,20.833 45.834,40.833 93.334,56.666c47.5,15.417 86.666,20 119.166,17.5l0,2.084c1.667,13.333 7.917,23.333 14.167,22.916c6.25,-0.833 10.417,-12.083 8.75,-25.416c0,-0.834 -0.417,-1.667 -0.417,-2.917c11.667,-2.5 21.667,-5.417 30.834,-9.583c1.25,1.25 2.5,2.916 4.166,4.166c10,8.75 21.667,12.084 25.834,7.5c3.75,-4.583 -0,-14.166 -8.75,-22.916c13.333,-8.75 48.75,-42.917 70,-105.417Z" style="fill:#fbfbe8;fill-rule:nonzero;"/><path d="M377.917,469.167c-22.917,-0 -45.417,-4.167 -67.084,-12.917l-105.416,-41.667c-0.834,0.834 -2.084,1.667 -2.917,2.5c-21.667,15.417 -43.75,17.5 -53.333,4.584c-5.417,-7.5 -4.584,-17.917 1.666,-28.75l-26.25,-10.417c-37.5,-15 -64.166,-49.167 -70,-88.75c-21.666,-2.5 -36.666,-12.917 -36.666,-26.667c-0,-13.75 14.166,-24.166 35.416,-26.666l0,-37.5l20.834,-0l-0,57.5l-10.417,-0c-13.75,-0 -22.083,4.166 -24.583,6.666c2.5,2.5 10.833,6.667 24.583,6.667l9.583,0l0.834,9.583c2.083,35.417 25,67.084 57.916,80l54.167,21.667l-11.25,11.25c-5.833,5.833 -8.333,10.833 -8.75,13.333c3.333,0.417 12.5,-1.25 23.75,-9.166c2.083,-1.25 3.75,-2.917 6.25,-5l5,-4.584l117.5,46.667c42.5,17.083 90.417,15 131.25,-5.417l42.917,-21.666l5,3.75c2.5,1.666 5,3.333 7.5,4.583c12.083,6.25 21.25,6.667 24.583,5.417c-0.833,-2.084 -3.75,-7.084 -11.25,-12.5l-11.25,-7.917l10.833,-8.333c16.667,-12.917 28.334,-31.667 32.917,-52.5l1.667,-6.667l6.666,-1.25c2.5,-0.417 4.584,-0.833 6.667,-1.667c12.917,-4.166 20,-10.416 21.25,-13.333c-2.5,-1.25 -9.583,-2.5 -20.833,0l-12.917,2.917l-0,-65.834l20.833,0l0,40.417c17.084,-1.25 29.584,4.583 33.334,15.833c4.583,15 -10.417,31.667 -35.417,39.584c-0.833,0.416 -1.25,0.416 -2.083,0.416c-5.417,18.75 -15.417,35.834 -29.584,49.584c9.584,10.416 12.917,21.666 8.334,30.833c-7.5,14.167 -29.584,15.417 -53.334,2.917c-1.666,-0.834 -2.916,-1.667 -4.583,-2.5l-32.083,15.833c-25.417,12.917 -53.334,19.167 -81.25,19.167Z" style="fill:#282f39;fill-rule:nonzero;"/><path d="M10.417,116.667c-0,150 398.333,152.5 478.333,189.583c0,0 -3.75,122.917 50.833,122.5c54.584,-0.417 27.5,-105.417 27.5,-105.417c0,0 47.5,55.417 47.5,0c0,-55.416 -90,-69.583 -90,-69.583c0,0 -14.583,-137.083 -210.833,-217.083c-170,-69.167 -303.333,12.083 -303.333,80Z" style="fill:#f37452;fill-rule:nonzero;"/><g><g><circle cx="592.917" cy="331.667" r="5.833" style="fill:#e55a38;"/><path d="M564.167,355.417l-1.25,-0c-0.834,-0 -1.667,-0 -2.5,0.416c-1.667,0.834 -3.334,2.5 -3.75,4.167l-0,1.25c-0,2.5 1.666,4.583 3.75,5.417c0.833,0.416 1.666,0.416 2.5,0.416l1.25,0c2.916,-0.416 4.583,-2.916 4.583,-5.833l0,-1.25c-0.417,-2.083 -2.083,-3.75 -4.583,-4.583Z" style="fill:#e55a38;fill-rule:nonzero;"/><path d="M564.167,295.417l-1.25,-0c-0.834,-0 -1.667,-0 -2.5,0.416c-2.084,0.834 -3.75,2.917 -3.75,5.417c-0,2.5 1.666,4.583 3.75,5.417c0.833,0.416 1.666,0.416 2.5,0.416l1.25,0c2.916,-0.416 4.583,-2.916 4.583,-5.833c0.417,-2.5 -1.667,-5 -4.583,-5.833Z" style="fill:#e55a38;fill-rule:nonzero;"/><path d="M562.917,415.417c-0.834,-0 -1.667,-0 -2.5,0.416c-2.084,0.834 -3.75,2.917 -3.75,5.417c-0,0.833 -0,1.667 0.416,2.083c2.084,-1.666 3.75,-3.333 5.417,-5.416c0.833,-0.834 1.25,-1.667 2.083,-2.5c-0.416,-0 -0.416,-0 -0.833,-0.417c0,0.417 -0.417,0.417 -0.833,0.417Z" style="fill:#e55a38;fill-rule:nonzero;"/><path d="M502.917,235.417c-2.084,-0 -3.75,1.25 -5,2.5c-0.834,0.833 -0.834,2.083 -0.834,3.333c0,0.833 0,1.667 0.417,2.5c0.833,2.083 2.917,3.75 5.417,3.75c2.5,0 4.583,-1.667 5.416,-3.75c0.417,-0.833 0.417,-1.667 0.417,-2.5c-0,-1.25 -0.417,-2.5 -0.833,-3.333c-0.834,-1.25 -2.917,-2.5 -5,-2.5Z" style="fill:#e55a38;fill-rule:nonzero;"/><path d="M497.083,182.5c0.417,1.667 0.834,2.917 2.084,3.75c-0.417,-1.25 -1.25,-2.5 -2.084,-3.75Z" style="fill:#e55a38;fill-rule:nonzero;"/><circle cx="472.917" cy="211.667" r="5.833" style="fill:#e55a38;"/><path d="M472.917,157.5c2.083,0 4.166,-1.25 5,-2.917c-2.084,-2.916 -4.584,-5.833 -7.084,-8.75c-2.5,0.834 -4.166,2.917 -4.166,5.834c0.416,2.916 2.916,5.833 6.25,5.833Z" style="fill:#e55a38;fill-rule:nonzero;"/><path d="M446.25,236.667c-0.833,-0.834 -2.083,-0.834 -3.333,-0.834c-2.084,0 -3.75,1.25 -5,2.5c-0.834,0.834 -0.834,2.084 -0.834,3.334c0,0.833 0,1.666 0.417,2.5c0.833,2.083 2.917,3.75 5.417,3.75c1.25,-0 2.5,-0.417 3.333,-0.834c0.833,-0.416 1.667,-1.666 2.083,-2.5c0.417,-0.833 0.417,-1.666 0.417,-2.5c-0,-1.25 -0.417,-2.5 -0.833,-3.333c-0.417,-1.25 -0.834,-1.667 -1.667,-2.083Z" style="fill:#e55a38;fill-rule:nonzero;"/><path d="M446.25,176.667c-0.833,-0.834 -2.083,-0.834 -3.333,-0.834c-3.334,0 -5.834,2.5 -5.834,5.834c0,3.333 2.5,5.833 5.834,5.833c1.25,0 2.5,-0.417 3.333,-0.833c1.667,-1.25 2.5,-2.917 2.5,-5c0.417,-2.084 -0.833,-4.167 -2.5,-5Z" style="fill:#e55a38;fill-rule:nonzero;"/><path d="M502.917,355.417c-2.917,-0 -5.417,2.083 -5.834,4.583l0,1.25c0,3.333 2.5,5.833 5.834,5.833c3.333,0 5.833,-2.5 5.833,-5.833l-0,-1.25c-0.417,-2.5 -2.917,-4.583 -5.833,-4.583Z" style="fill:#e55a38;fill-rule:nonzero;"/><circle cx="502.917" cy="301.667" r="5.833" style="fill:#e55a38;"/><circle cx="532.917" cy="331.667" r="5.833" style="fill:#e55a38;"/><circle cx="472.917" cy="271.667" r="5.833" style="fill:#e55a38;"/><circle cx="532.917" cy="271.667" r="5.833" style="fill:#e55a38;"/><circle cx="532.917" cy="391.667" r="5.833" style="fill:#e55a38;"/><path d="M382.917,115.417c-2.917,-0 -5.417,2.083 -5.834,4.583l0,1.25c0,3.333 2.5,5.833 5.834,5.833c3.333,0 5.833,-2.5 5.833,-5.833l0,-1.25c-0.417,-2.5 -2.917,-4.583 -5.833,-4.583Z" style="fill:#e55a38;fill-rule:nonzero;"/><circle cx="352.917" cy="91.25" r="5.833" style="fill:#e55a38;"/><path d="M412.917,97.5c2.083,0 3.75,-0.833 4.583,-2.5c-2.917,-2.5 -6.25,-4.583 -9.583,-7.083c-0.834,0.833 -1.25,2.083 -1.25,3.333c0.416,3.333 2.916,6.25 6.25,6.25Z" style="fill:#e55a38;fill-rule:nonzero;"/><path d="M324.167,115.417l-1.25,-0c-0.834,-0 -1.667,-0 -2.5,0.416c-1.667,0.834 -3.334,2.5 -3.75,4.167l-0,1.25c-0,2.5 1.666,4.583 3.75,5.417c0.833,0.416 1.666,0.416 2.5,0.416l1.25,0c2.916,-0.416 4.583,-2.916 4.583,-5.833l0,-1.25c-0.417,-2.083 -2.083,-3.75 -4.583,-4.583Z" style="fill:#e55a38;fill-rule:nonzero;"/><path d="M324.167,55.417l-1.25,-0c-0.834,-0 -1.667,-0 -2.5,0.416c-2.084,0.834 -3.75,2.917 -3.75,5.417c-0,2.5 1.666,4.583 3.75,5.417c0.833,0.416 1.666,0.416 2.5,0.416l1.25,0c2.916,-0.416 4.583,-2.916 4.583,-5.833c0.417,-2.5 -1.667,-5 -4.583,-5.833Z" style="fill:#e55a38;fill-rule:nonzero;"/><path d="M382.917,235.417c-2.084,-0 -3.75,1.25 -5,2.5c-0.834,0.833 -0.834,2.083 -0.834,3.333c0,0.833 0,1.667 0.417,2.5c0.833,2.083 2.917,3.75 5.417,3.75c2.5,0 4.583,-1.667 5.416,-3.75c0.417,-0.833 0.417,-1.667 0.417,-2.5c0,-1.25 -0.417,-2.5 -0.833,-3.333c-0.834,-1.25 -2.917,-2.5 -5,-2.5Z" style="fill:#e55a38;fill-rule:nonzero;"/><circle cx="382.917" cy="181.667" r="5.833" style="fill:#e55a38;"/><circle cx="352.917" cy="211.667" r="5.833" style="fill:#e55a38;"/><circle cx="412.917" cy="211.667" r="5.833" style="fill:#e55a38;"/><circle cx="352.917" cy="151.25" r="5.833" style="fill:#e55a38;"/><circle cx="412.917" cy="151.25" r="5.833" style="fill:#e55a38;"/><path d="M324.167,235.417l-1.25,-0c-0.834,-0 -1.667,-0 -2.5,0.416c-1.25,0.417 -2.084,1.25 -2.5,2.084c-0.834,0.833 -0.834,2.083 -0.834,3.333c0,0.833 0,1.667 0.417,2.5c0.417,1.25 1.667,2.5 3.333,3.333c0.834,0.417 1.667,0.417 2.5,0.417l1.25,0c2.084,-0.417 3.75,-1.667 4.167,-3.333c0.417,-0.834 0.417,-1.667 0.417,-2.5c-0,-1.25 -0.417,-2.5 -0.834,-3.334c-1.25,-1.666 -2.5,-2.5 -4.166,-2.916Z" style="fill:#e55a38;fill-rule:nonzero;"/><path d="M324.167,175.417l-1.25,-0c-0.834,-0 -1.667,-0 -2.5,0.416c-2.084,0.834 -3.75,2.917 -3.75,5.417c-0,2.5 1.666,4.583 3.75,5.417c0.833,0.416 1.666,0.416 2.5,0.416l1.25,0c2.916,-0.416 4.583,-2.916 4.583,-5.833c0.417,-2.5 -1.667,-5 -4.583,-5.833Z" style="fill:#e55a38;fill-rule:nonzero;"/><path d="M442.917,127.5c1.25,0 2.5,-0.417 3.333,-0.833c1.667,-0.834 2.5,-2.5 2.5,-4.584l-0.417,-0.416c-1.666,-1.667 -3.75,-3.334 -5.416,-5c-0.417,-0.417 -0.417,-0.417 -0.834,-0.834c-2.5,0.417 -4.583,2.084 -5,4.584l0,1.25c0,2.916 2.5,5.833 5.834,5.833Z" style="fill:#e55a38;fill-rule:nonzero;"/><circle cx="352.917" cy="271.667" r="5.833" style="fill:#e55a38;"/><circle cx="412.917" cy="271.667" r="5.833" style="fill:#e55a38;"/><path d="M262.917,115.417c-2.917,-0 -5.417,2.083 -5.834,4.583l0,1.25c0,3.333 2.5,5.833 5.834,5.833c3.333,0 5.833,-2.5 5.833,-5.833l-0,-1.25c-0.417,-2.5 -2.917,-4.583 -5.833,-4.583Z" style="fill:#e55a38;fill-rule:nonzero;"/><circle cx="262.917" cy="61.667" r="5.833" style="fill:#e55a38;"/><circle cx="232.917" cy="91.25" r="5.833" style="fill:#e55a38;"/><circle cx="292.917" cy="91.25" r="5.833" style="fill:#e55a38;"/><circle cx="232.917" cy="31.25" r="5.833" style="fill:#e55a38;"/><path d="M288.75,27.5c-0.833,1.25 -1.667,2.5 -1.667,4.167c0,3.333 2.5,5.833 5.834,5.833c3.333,0 5.833,-2.5 5.833,-5.833l-0,-0.417c-3.333,-1.667 -6.667,-2.5 -10,-3.75Z" style="fill:#e55a38;fill-rule:nonzero;"/><path d="M206.25,116.667c-0.833,-0.834 -2.083,-0.834 -3.333,-0.834c-0.834,0 -1.667,0 -2.5,0.417c-1.667,0.833 -3.334,2.5 -3.75,4.167l-0,1.25c-0,2.5 1.666,4.583 3.75,5.416c0.833,0.417 1.666,0.417 2.5,0.417c1.25,0 2.5,-0.417 3.333,-0.833c1.667,-1.25 2.5,-2.917 2.5,-5l0,-1.25c0,-1.667 -1.25,-2.917 -2.5,-3.75Z" style="fill:#e55a38;fill-rule:nonzero;"/><path d="M206.25,56.667c-0.833,-0.834 -2.083,-0.834 -3.333,-0.834c-0.834,0 -1.667,0 -2.5,0.417c-2.084,0.833 -3.75,2.917 -3.75,5.417c-0,2.5 1.666,4.583 3.75,5.416c0.833,0.417 1.666,0.417 2.5,0.417c1.25,0 2.5,-0.417 3.333,-0.833c1.667,-1.25 2.5,-2.917 2.5,-5c0.417,-2.084 -0.833,-4.167 -2.5,-5Z" style="fill:#e55a38;fill-rule:nonzero;"/><path d="M262.917,235.417c-2.084,-0 -3.75,1.25 -5,2.5c-0.834,0.833 -0.834,2.083 -0.834,3.333c0,0.833 0,1.667 0.417,2.5c0.833,2.083 2.917,3.75 5.417,3.75c2.5,0 4.583,-1.667 5.416,-3.75c0.417,-0.833 0.417,-1.667 0.417,-2.5c0,-1.25 -0.417,-2.5 -0.833,-3.333c-0.834,-1.25 -2.917,-2.5 -5,-2.5Z" style="fill:#e55a38;fill-rule:nonzero;"/><circle cx="262.917" cy="181.667" r="5.833" style="fill:#e55a38;"/><circle cx="232.917" cy="211.667" r="5.833" style="fill:#e55a38;"/><circle cx="292.917" cy="211.667" r="5.833" style="fill:#e55a38;"/><circle cx="232.917" cy="151.25" r="5.833" style="fill:#e55a38;"/><circle cx="292.917" cy="151.25" r="5.833" style="fill:#e55a38;"/><path d="M206.25,236.667c-0.833,-0.834 -2.083,-0.834 -3.333,-0.834c-0.834,0 -1.667,0 -2.5,0.417c-1.25,0.417 -2.084,1.25 -2.5,2.083c-0.834,0.834 -0.834,2.084 -0.834,3.334c0,0.833 0,1.666 0.417,2.5c0.417,1.25 1.667,2.5 3.333,3.333c0.834,0.417 1.667,0.417 2.5,0.417c1.25,-0 2.5,-0.417 3.334,-0.834c0.833,-0.416 1.666,-1.666 2.083,-2.5c0.417,-0.833 0.417,-1.666 0.417,-2.5c-0,-1.25 -0.417,-2.5 -0.834,-3.333c-0.833,-1.25 -1.25,-1.667 -2.083,-2.083Z" style="fill:#e55a38;fill-rule:nonzero;"/><path d="M206.25,176.667c-0.833,-0.834 -2.083,-0.834 -3.333,-0.834c-0.834,0 -1.667,0 -2.5,0.417c-2.084,0.833 -3.75,2.917 -3.75,5.417c-0,2.5 1.666,4.583 3.75,5.416c0.833,0.417 1.666,0.417 2.5,0.417c1.25,0 2.5,-0.417 3.333,-0.833c1.667,-1.25 2.5,-2.917 2.5,-5c0.417,-2.084 -0.833,-4.167 -2.5,-5Z" style="fill:#e55a38;fill-rule:nonzero;"/><path d="M292.917,265.417c-1.667,-0 -3.334,0.833 -4.167,1.666c3.333,0.417 6.25,1.25 9.583,1.667c-0.833,-2.083 -2.916,-3.333 -5.416,-3.333Z" style="fill:#e55a38;fill-rule:nonzero;"/><path d="M142.917,115.417c-2.917,-0 -5.417,2.083 -5.834,4.583l0,1.25c0,3.333 2.5,5.833 5.834,5.833c3.333,0 5.833,-2.5 5.833,-5.833l0,-1.25c-0.417,-2.5 -2.917,-4.583 -5.833,-4.583Z" style="fill:#e55a38;fill-rule:nonzero;"/><circle cx="142.917" cy="61.667" r="5.833" style="fill:#e55a38;"/><circle cx="112.917" cy="91.25" r="5.833" style="fill:#e55a38;"/><circle cx="172.917" cy="91.25" r="5.833" style="fill:#e55a38;"/><circle cx="112.917" cy="31.25" r="5.833" style="fill:#e55a38;"/><circle cx="172.917" cy="31.25" r="5.833" style="fill:#e55a38;"/><path d="M82.917,115.417c-2.917,-0 -5.417,2.083 -5.834,4.583l0,1.25c0,3.333 2.5,5.833 5.834,5.833c3.333,0 5.833,-2.5 5.833,-5.833l0,-1.25c-0.417,-2.5 -2.917,-4.583 -5.833,-4.583Z" style="fill:#e55a38;fill-rule:nonzero;"/><circle cx="82.917" cy="61.667" r="5.833" style="fill:#e55a38;"/><circle cx="142.917" cy="181.667" r="5.833" style="fill:#e55a38;"/><circle cx="112.917" cy="211.667" r="5.833" style="fill:#e55a38;"/><circle cx="172.917" cy="211.667" r="5.833" style="fill:#e55a38;"/><circle cx="112.917" cy="151.25" r="5.833" style="fill:#e55a38;"/><circle cx="172.917" cy="151.25" r="5.833" style="fill:#e55a38;"/><circle cx="82.917" cy="181.667" r="5.833" style="fill:#e55a38;"/><path d="M22.917,115.417c-2.917,-0 -5.417,2.083 -5.834,4.583l0,1.25c0,3.333 2.5,5.833 5.834,5.833c3.333,0 5.833,-2.5 5.833,-5.833l0,-1.25c-0.417,-2.5 -2.917,-4.583 -5.833,-4.583Z" style="fill:#e55a38;fill-rule:nonzero;"/><circle cx="52.917" cy="91.25" r="5.833" style="fill:#e55a38;"/><circle cx="52.917" cy="151.25" r="5.833" style="fill:#e55a38;"/></g></g><path d="M524.583,253.75c0,0 -17.5,-43.75 -96.25,-100c23.334,-5 46.667,-2.917 46.667,-2.917l-20.833,-23.75c-19.167,-0.416 -38.75,5.417 -51.25,9.584c-14.167,-9.167 -30,-18.334 -47.084,-27.5c30.417,-10.834 61.667,-14.167 61.667,-14.167l-40.417,-27.083c-21.666,1.25 -42.916,12.916 -57.5,22.916c-20.833,-9.583 -40.833,-17.5 -59.583,-23.75l68.333,-24.166c-4.583,-2.084 -9.583,-4.167 -14.583,-6.25c-7.917,-3.334 -15.417,-5.834 -23.333,-8.75c-31.25,-5.834 -62.084,11.666 -80.834,25c-17.916,-3.75 -35,-6.667 -50.416,-7.917c30.416,-15 68.333,-36.25 31.666,-35c-39.166,1.25 -66.666,20.833 -79.583,32.5c-35.833,0.417 -57.083,5.833 -57.5,5.833c-16.25,11.667 -21.25,11.25 -28.333,25.417c0.833,-0.417 23.333,-4.583 61.666,-2.5c-13.75,9.167 -46.25,33.333 -36.25,62.083c10.417,30 60,-35 76.667,-57.916c15.417,2.083 31.667,5.416 49.583,10c-18.333,12.083 -57.916,43.333 -45,79.166c12.084,35 65.834,-30.416 91.667,-65c17.5,6.25 35.417,13.334 54.167,22.084c-14.584,7.5 -56.25,31.666 -47.5,65.416c7.5,30.417 57.916,-20 82.5,-47.5c15.416,8.334 29.166,16.667 42.083,25c-16.25,10.417 -37.083,29.167 -31.25,52.917c5.833,23.75 39.167,-5.417 63.75,-30.417c84.167,63.75 101.667,119.584 101.667,119.584c-0,-0 -3.75,122.916 50.833,122.5c54.583,-0.417 27.5,-105.417 27.5,-105.417c0,0 47.5,55.417 47.5,0c-0.417,-55.417 -90.417,-70 -90.417,-70Z" style="fill:#ef4223;fill-rule:nonzero;"/><g><g><path d="M247.917,259.583c22.916,4.584 45.833,8.334 67.916,12.084c-5,-28.334 -14.166,-69.584 -27.5,-68.75c-12.083,0.833 -29.583,33.75 -40.416,56.666Z" style="fill:#f8a26f;fill-rule:nonzero;"/><path d="M58.333,194.583c-7.083,-31.666 -20,-81.666 -30,-83.75c-6.25,-1.25 -12.5,3.75 -17.5,9.584c1.25,30.416 19.167,54.583 47.5,74.166Z" style="fill:#f8a26f;fill-rule:nonzero;"/><path d="M133.75,230.417c-7.5,-35 -21.25,-85.834 -35.833,-85.834c-15,0 -25.417,33.75 -30.417,55.834c18.75,11.666 41.25,21.25 66.25,30Z" style="fill:#f8a26f;fill-rule:nonzero;"/><path d="M149.583,235.417c26.25,8.333 54.584,15 83.334,20.833c-7.5,-32.083 -22.084,-82.5 -39.584,-82.5c-16.25,0 -33.333,35.833 -43.75,61.667Z" style="fill:#f8a26f;fill-rule:nonzero;"/><path d="M405,286.25c0.833,-26.667 -2.083,-56.25 -17.917,-56.25c-17.916,0 -39.166,25 -52.5,44.583c25,4.167 48.75,7.917 70.417,11.667Z" style="fill:#f8a26f;fill-rule:nonzero;"/></g></g><path d="M539.583,439.167c-12.083,-0 -22.916,-4.584 -31.666,-13.75c-26.667,-27.5 -29.167,-90.834 -29.584,-112.084c-24.166,-8.75 -70,-16.25 -122.5,-24.583c-150,-23.75 -355.833,-56.667 -355.833,-172.083c0,-56.25 74.583,-116.667 185.833,-116.667c42.917,0 87.5,9.167 131.667,27.083c175.417,71.25 209.583,187.084 215.833,217.917c23.334,5 91.25,24.583 91.25,78.75c0,10.833 -1.666,18.75 -5,24.583c-3.75,6.667 -10.416,10.834 -17.916,10.834c-6.667,-0 -13.334,-2.917 -19.584,-7.084c2.917,23.334 2.917,54.167 -11.25,72.5c-6.666,9.584 -17.916,14.584 -31.25,14.584Zm-353.333,-418.334c-102.5,0 -165,55.834 -165,95.834c0,97.916 203.333,130 338.333,151.666c61.25,9.584 109.584,17.5 134.167,28.75l6.25,2.917l0,6.667c-0.417,21.666 2.5,82.5 23.75,104.166c5,5 10.417,7.5 16.667,7.5l-0,10.417l-0,-10.417c7.083,0 12.083,-2.083 15.416,-7.083c14.584,-18.75 6.25,-67.917 1.667,-85l-11.25,-42.917l29.167,33.75c8.333,9.584 21.25,20.417 27.083,20.834c0.417,-0.834 2.083,-4.584 2.083,-14.167c0,-45.833 -80.416,-59.167 -81.25,-59.583l-7.916,-1.25l-0.834,-7.917c0,-1.25 -17.083,-132.5 -204.583,-208.75c-42.083,-17.083 -83.333,-25.417 -123.75,-25.417Z" style="fill:#282f39;fill-rule:nonzero;"/><path d="M112.5,49.167c0,-0 48.75,-25.417 125.417,-8.75c76.666,16.666 -158.334,29.166 -125.417,8.75Z" style="fill:#fff;fill-rule:nonzero;"/></g></g></svg>