<?xml version="1.0" encoding="UTF-8" standalone="no"?><!DOCTYPE svg PUBLIC "-//W3C//DTD SVG 1.1//EN" "http://www.w3.org/Graphics/SVG/1.1/DTD/svg11.dtd"><svg width="100%" height="100%" viewBox="0 0 626 504" version="1.1" xmlns="http://www.w3.org/2000/svg" xmlns:xlink="http://www.w3.org/1999/xlink" xml:space="preserve" xmlns:serif="http://www.serif.com/" style="fill-rule:evenodd;clip-rule:evenodd;stroke-linejoin:round;stroke-miterlimit:2;"><g><g><path d="M361.25,358.333c12.083,5 25.417,7.084 38.333,6.25c12.5,-0.416 25,-3.75 36.667,-9.583l125.417,-62.917l-0,52.084c16.666,-3.75 31.25,-1.25 33.75,7.083c2.916,8.75 -10,20.833 -28.75,26.667c-2.5,0.833 -5,1.25 -7.5,2.083c-5,22.917 -17.917,43.333 -36.25,57.917c11.666,8.75 17.916,19.166 14.583,25.833c-4.167,8.333 -21.667,7.5 -39.167,-1.25c-3.333,-1.667 -5.833,-3.333 -8.75,-5.417l-37.5,18.75c-43.333,21.667 -94.166,23.75 -139.166,5.834l-110.834,-44.167c-2.083,2.083 -4.583,4.167 -7.083,5.833c-15.833,11.25 -32.917,14.584 -38.333,7.084c-4.167,-5.834 0.416,-17.084 10,-27.084l-39.167,-15.416c-37.083,-14.584 -61.667,-49.167 -64.167,-88.75l-0.416,-0c-19.584,-0 -35,-7.5 -35,-16.667c-0,-9.167 15.833,-16.667 35,-16.667l-0,-45.416l298.333,117.916Z" style="fill:#fbfbe8;fill-rule:nonzero;"/><path d="M595.417,351.667c-2.5,-7.917 -17.084,-10.834 -33.75,-7.084l-0,-52.083l-125.417,62.917c-6.25,10.833 -16.667,22.5 -31.667,32.5c8.75,8.333 12.5,18.333 8.334,22.5c-4.167,4.583 -15.834,1.666 -25.834,-7.084c-1.666,-1.25 -2.916,-2.5 -4.166,-4.166c-9.167,3.75 -19.584,7.083 -30.834,9.583c0,0.833 0.417,1.667 0.417,2.917c1.667,13.333 -2.5,24.583 -8.75,25.416c-6.25,0.834 -12.5,-9.583 -14.167,-22.5l0,-2.083c-32.083,2.5 -71.25,-1.667 -118.333,-17.083c-47.5,-15.834 -75.833,-35.417 -93.333,-56.25c-9.167,8.333 -20,12.083 -24.167,7.5c-4.583,-4.584 -0.417,-15.834 9.167,-25c0.833,-0.417 1.25,-1.25 2.083,-1.667c-13.75,-25.417 -14.583,-50.833 -17.5,-69.167l-24.167,-9.583l0,45.417c-19.583,-0 -35,7.5 -35,16.666c0,9.167 15.834,16.667 35,16.667l0.417,0c2.5,39.167 27.5,74.167 64.167,88.75l39.166,15.417c-10,10 -14.583,20.833 -10,27.083c5.417,7.5 22.5,4.583 38.334,-7.083c2.5,-2.084 5,-3.75 7.083,-5.834l110.833,44.167c45,17.917 95.834,15.833 139.167,-5.833l37.5,-18.75c2.5,2.083 5.417,3.75 8.75,5.416c17.083,9.167 34.583,9.584 39.167,1.25c3.333,-6.666 -2.917,-17.083 -14.584,-25.833c18.334,-14.583 31.25,-35 36.25,-57.917c2.5,-0.416 5,-1.25 7.5,-2.083c18.334,-6.667 30.834,-18.333 28.334,-27.083Z" style="fill:#ece3ac;fill-rule:nonzero;"/><g><g><path d="M547.917,328.333c-2.084,0 -3.75,1.25 -5,2.5c-0.834,0.834 -0.834,2.084 -0.834,3.334c0,0.833 0,1.666 0.417,2.5c0.833,2.083 2.917,3.75 5.417,3.75c2.5,-0 4.583,-1.667 5.416,-3.75c0.417,-0.834 0.417,-1.667 0.417,-2.5c0,-1.25 -0.417,-2.5 -0.833,-3.334c-1.25,-1.666 -2.917,-2.5 -5,-2.5Z" style="fill:#ccc697;fill-rule:nonzero;"/><circle cx="577.917" cy="364.167" r="5.833" style="fill:#ccc697;"/><circle cx="547.917" cy="394.167" r="5.833" style="fill:#ccc697;"/><path d="M489.583,328.333l-7.083,3.75c-0.417,0.834 -0.417,1.25 -0.417,2.084c0,0.833 0,1.666 0.417,2.5c0.833,2.083 2.917,3.75 5.417,3.75c2.5,-0 4.583,-1.667 5.416,-3.75c0.417,-0.834 0.417,-1.667 0.417,-2.5c0,-1.25 -0.417,-2.5 -0.833,-3.334c-0.834,-1.25 -2.084,-2.083 -3.334,-2.5Z" style="fill:#ccc697;fill-rule:nonzero;"/><path d="M492.083,450c-0.416,-0.417 -0.416,-0.417 -0.833,-0.833c-0.833,-0.417 -1.25,-0.834 -2.083,-0.834l-2.5,0c-0.834,0 -1.667,0.417 -2.084,0.834c-0.416,0.416 -0.416,0.416 -0.833,0.833c-0.833,0.833 -1.25,1.667 -1.667,2.917l0,1.25c0,2.083 1.25,4.166 2.917,5l5,-2.5c0.833,0.416 1.667,1.25 2.5,1.666c1.25,-1.25 1.667,-2.5 1.667,-4.166l-0,-1.25c-0.834,-1.25 -1.25,-2.084 -2.084,-2.917Z" style="fill:#ccc697;fill-rule:nonzero;"/><circle cx="487.917" cy="394.167" r="5.833" style="fill:#ccc697;"/><circle cx="457.917" cy="424.167" r="5.833" style="fill:#ccc697;"/><circle cx="517.917" cy="424.167" r="5.833" style="fill:#ccc697;"/><circle cx="457.917" cy="364.167" r="5.833" style="fill:#ccc697;"/><circle cx="517.917" cy="364.167" r="5.833" style="fill:#ccc697;"/><path d="M432.083,450c-0.416,-0.417 -0.416,-0.417 -0.833,-0.833c-0.833,-0.417 -1.25,-0.834 -2.083,-0.834l-2.5,0c-0.417,0 -0.834,0 -1.25,0.417c-0.417,0 -0.834,0.417 -0.834,0.417c-0.416,0.416 -0.416,0.416 -0.833,0.833c-0.833,0.833 -1.25,1.667 -1.667,2.917l0,1.25c0,2.5 1.667,4.583 3.75,5.416c0.834,0.417 1.667,0.417 2.5,0.417c1.25,-0 2.5,-0.417 3.334,-0.833c1.666,-1.25 2.5,-2.917 2.5,-5l-0,-1.25c-0.834,-1.25 -1.25,-2.084 -2.084,-2.917Z" style="fill:#ccc697;fill-rule:nonzero;"/><path d="M431.25,389.167c-0.833,-0.834 -2.083,-0.834 -3.333,-0.834c-0.834,0 -1.667,0 -2.5,0.417c-2.084,0.833 -3.75,2.917 -3.75,5.417c-0,2.5 1.666,4.583 3.75,5.416c0.833,0.417 1.666,0.417 2.5,0.417c1.25,0 2.5,-0.417 3.333,-0.833c1.667,-1.25 2.5,-2.917 2.5,-5c0,-2.084 -0.833,-3.75 -2.5,-5Z" style="fill:#ccc697;fill-rule:nonzero;"/><path d="M372.083,450c-0.416,-0.417 -0.416,-0.417 -0.833,-0.833c-0.833,-0.417 -1.25,-0.834 -2.083,-0.834l-2.5,0c-0.834,0 -1.667,0.417 -2.084,0.834c-0.416,0.416 -0.416,0.416 -0.833,0.833c-0.833,0.833 -1.25,1.667 -1.667,2.917l0,1.25c0,3.333 2.5,5.833 5.834,5.833c3.333,-0 5.833,-2.5 5.833,-5.833l0,-1.25c-0.417,-1.25 -0.833,-2.084 -1.667,-2.917Z" style="fill:#ccc697;fill-rule:nonzero;"/><path d="M334.583,429.167c-0.833,-1.667 -1.666,-3.75 -2.5,-5.834l0,0.834c0,2.083 0.834,3.75 2.5,5Z" style="fill:#ccc697;fill-rule:nonzero;"/><circle cx="397.917" cy="424.167" r="5.833" style="fill:#ccc697;"/><path d="M312.083,450c-0.416,-0.417 -0.416,-0.417 -0.833,-0.833c-0.833,-0.417 -1.25,-0.834 -2.083,-0.834l-2.5,0c-0.834,0 -1.667,0.417 -2.084,0.834c-0.416,0.416 -0.416,0.416 -0.833,0.833c-0.833,0.833 -1.25,1.667 -1.667,2.917l0,1.25c0,3.333 2.5,5.833 5.834,5.833c3.333,-0 5.833,-2.5 5.833,-5.833l-0,-1.25c-0.417,-1.25 -0.833,-2.084 -1.667,-2.917Z" style="fill:#ccc697;fill-rule:nonzero;"/><path d="M337.917,478.333c-3.334,0 -5.834,2.5 -5.834,5.834c0,1.666 0.417,2.916 1.25,3.75c2.5,0.416 4.584,1.25 7.084,1.666c2.083,-0.833 3.75,-2.916 3.75,-5.416c-0.417,-3.334 -2.917,-5.834 -6.25,-5.834Z" style="fill:#ccc697;fill-rule:nonzero;"/><circle cx="397.917" cy="484.167" r="5.833" style="fill:#ccc697;"/><path d="M252.083,450c-0.416,-0.417 -0.416,-0.417 -0.833,-0.833c-0.833,-0.417 -1.25,-0.834 -2.083,-0.834l-2.5,0c-0.834,0 -1.667,0.417 -2.084,0.834c-0.416,0.416 -0.416,0.416 -0.833,0.833c-0.833,0.833 -1.25,1.667 -1.667,2.917l0,0.416l2.5,0.834l8.334,3.333c0.833,-0.833 0.833,-2.083 0.833,-3.333l-0,-1.25c-0.417,-1.25 -0.833,-2.084 -1.667,-2.917Z" style="fill:#ccc697;fill-rule:nonzero;"/><circle cx="217.917" cy="424.167" r="5.833" style="fill:#ccc697;"/><circle cx="277.917" cy="424.167" r="5.833" style="fill:#ccc697;"/><path d="M189.167,388.333l-1.25,0c-0.834,0 -1.667,0 -2.5,0.417c-2.084,0.833 -3.75,2.917 -3.75,5.417c-0,2.5 1.666,4.583 3.75,5.416c0.833,0.417 1.666,0.417 2.5,0.417l1.25,0c2.916,-0.417 4.583,-2.917 4.583,-5.833c0,-2.917 -2.083,-5.417 -4.583,-5.834Z" style="fill:#ccc697;fill-rule:nonzero;"/><path d="M97.917,310c0.833,-0 1.666,-0.417 2.5,-0.833c-1.667,-3.75 -2.917,-7.5 -4.167,-11.25c-2.5,0.833 -4.583,2.916 -4.583,5.833c0.416,3.75 2.916,6.25 6.25,6.25Z" style="fill:#ccc697;fill-rule:nonzero;"/><path d="M71.25,329.167c-0.833,-0.834 -2.083,-0.834 -3.333,-0.834c-1.25,0 -2.5,0.417 -3.334,0.834c0.417,1.666 0.417,3.333 0.834,5c0.416,2.083 0.833,3.75 1.25,5.833l0.833,-0c1.25,-0 2.5,-0.417 3.333,-0.833c0.834,-0.417 1.667,-1.667 2.084,-2.5c0.416,-0.834 0.416,-1.667 0.416,-2.5c0,-1.25 -0.416,-2.5 -0.833,-3.334c0,-0.833 -0.833,-1.25 -1.25,-1.666Z" style="fill:#ccc697;fill-rule:nonzero;"/><path d="M71.25,269.167c-0.833,-0.834 -2.083,-0.834 -3.333,-0.834c-2.084,0 -3.75,0.834 -4.584,2.5l0,7.084c1.25,1.25 2.917,2.5 4.584,2.5c1.25,-0 2.5,-0.417 3.333,-0.834c1.667,-1.25 2.5,-2.916 2.5,-5c0,-2.5 -0.833,-4.166 -2.5,-5.416Z" style="fill:#ccc697;fill-rule:nonzero;"/><path d="M185.417,448.75c-0.417,-0 -0.834,0.417 -0.834,0.417l-1.25,1.25c1.667,-0.834 2.917,-1.25 4.584,-2.084l-1.25,0c-0.417,0 -0.834,0 -1.25,0.417Z" style="fill:#ccc697;fill-rule:nonzero;"/><circle cx="127.917" cy="394.167" r="5.833" style="fill:#ccc697;"/><path d="M157.917,418.333c-0.834,0 -1.667,0.417 -2.5,0.834l8.333,3.333c-1.25,-2.917 -3.333,-4.167 -5.833,-4.167Z" style="fill:#ccc697;fill-rule:nonzero;"/><circle cx="97.917" cy="364.167" r="5.833" style="fill:#ccc697;"/><path d="M153.333,368.333c0.834,0.834 1.667,1.667 2.917,1.667c-0.833,-0.833 -1.667,-1.25 -2.917,-1.667Z" style="fill:#ccc697;fill-rule:nonzero;"/><circle cx="37.917" cy="304.167" r="5.833" style="fill:#ccc697;"/></g></g><path d="M614.583,177.083l0,70c0,11.667 -6.666,22.084 -17.083,27.5l-35.833,17.917l-125.417,62.917c-11.667,5.833 -24.167,9.166 -36.667,9.583l0,-87.917l214.167,-107.083c0.417,2.083 0.833,4.583 0.833,7.083Z" style="fill:#fcba40;fill-rule:nonzero;"/><path d="M62.917,240l-33.334,-13.333c-11.666,-4.584 -19.166,-15.834 -19.166,-28.334l-0,-60.833c-0,-7.083 2.5,-14.167 7.083,-19.583c40.417,-2.917 242.917,-9.584 382.083,152.083l0,94.583c-12.916,0.834 -25.833,-1.666 -38.333,-6.25l-298.333,-118.333Z" style="fill:#fcd450;fill-rule:nonzero;"/><g><g><circle cx="388.75" cy="304.583" r="6.25" style="fill:#fcba40;"/><path d="M360,328.75l-1.25,-0c-0.833,-0 -1.667,-0 -2.5,0.417c-1.25,0.416 -2.083,1.25 -2.5,2.083c-0.833,0.833 -0.833,2.083 -0.833,3.333c-0,0.834 -0,1.667 0.416,2.5c0.417,1.25 1.667,2.5 3.334,3.334c0.833,0.416 1.666,0.416 2.5,0.416l1.25,0c2.083,-0.416 3.75,-1.666 4.166,-3.75c0.417,-0.833 0.417,-1.666 0.417,-2.5c0,-1.25 -0.417,-2.5 -0.833,-3.333c-1.25,-1.25 -2.5,-2.083 -4.167,-2.5Z" style="fill:#fcba40;fill-rule:nonzero;"/><path d="M360,268.333l-1.25,0c-0.833,0 -1.667,0 -2.5,0.417c-2.083,0.833 -3.75,2.917 -3.75,5.417c-0,2.5 1.667,4.583 3.75,5.416c0.833,0.417 1.667,0.417 2.5,0.417l1.25,0c2.917,-0.417 5,-2.917 5,-5.833c-0.417,-2.917 -2.083,-5.417 -5,-5.834Z" style="fill:#fcba40;fill-rule:nonzero;"/><path d="M388.75,358.75c-2.917,-0 -5.417,2.083 -5.833,5c4.166,0.417 7.916,0.833 12.083,0.833c0,-2.916 -2.917,-5.833 -6.25,-5.833Z" style="fill:#fcba40;fill-rule:nonzero;"/><path d="M298.333,207.917c-2.916,-0 -5.416,2.083 -5.833,5l0,1.25c0,3.333 2.5,5.833 5.833,5.833c3.334,-0 6.25,-2.5 6.25,-5.833l0,-1.25c-0.833,-2.917 -3.333,-5 -6.25,-5Z" style="fill:#fcba40;fill-rule:nonzero;"/><circle cx="267.917" cy="183.75" r="6.25" style="fill:#fcba40;"/><path d="M241.25,208.75c-0.833,-0.833 -2.083,-0.833 -3.333,-0.833c-0.834,-0 -1.667,-0 -2.5,0.416c-1.667,0.834 -3.334,2.5 -3.75,4.167l-0,1.25c-0,2.5 1.666,4.583 3.75,5.417c0.833,0.416 1.666,0.416 2.5,0.416c1.25,0 2.5,-0.416 3.333,-0.833c1.667,-1.25 2.5,-2.917 2.5,-5l0,-1.25c-0.417,-1.25 -1.25,-2.917 -2.5,-3.75Z" style="fill:#fcba40;fill-rule:nonzero;"/><path d="M298.333,328.75c-2.083,-0 -3.75,1.25 -5,2.5l8.334,3.333l2.916,1.25l0,-1.25c0,-1.25 -0.416,-2.5 -0.833,-3.333c-1.667,-1.667 -3.333,-2.5 -5.417,-2.5Z" style="fill:#fcba40;fill-rule:nonzero;"/><circle cx="298.333" cy="274.167" r="6.25" style="fill:#fcba40;"/><circle cx="267.917" cy="304.583" r="6.25" style="fill:#fcba40;"/><circle cx="328.333" cy="304.583" r="6.25" style="fill:#fcba40;"/><circle cx="267.917" cy="244.167" r="6.25" style="fill:#fcba40;"/><circle cx="328.333" cy="244.167" r="6.25" style="fill:#fcba40;"/><path d="M241.25,269.167c-0.833,-0.834 -2.083,-0.834 -3.333,-0.834c-0.834,0 -1.667,0 -2.5,0.417c-2.084,0.833 -3.75,2.917 -3.75,5.417c-0,2.5 1.666,4.583 3.75,5.416c0.833,0.417 1.666,0.417 2.5,0.417c1.25,0 2.5,-0.417 3.333,-0.833c1.667,-1.25 2.5,-2.917 2.5,-5c0,-2.084 -0.833,-3.75 -2.5,-5Z" style="fill:#fcba40;fill-rule:nonzero;"/><path d="M177.5,207.917c-2.917,-0 -5.417,2.083 -5.833,5l-0,1.25c-0,3.333 2.5,5.833 5.833,5.833c3.333,-0 6.25,-2.5 6.25,-5.833l0,-1.25c-0.833,-2.917 -3.333,-5 -6.25,-5Z" style="fill:#fcba40;fill-rule:nonzero;"/><path d="M235.417,159.167c0.833,0.416 1.666,0.416 2.5,0.416c1.25,0 2.5,-0.416 3.333,-0.833c0.833,-0.417 1.25,-1.25 2.083,-2.083c-1.666,-0.834 -3.333,-1.667 -5.416,-2.084c-2.084,-0.833 -3.75,-1.666 -5.834,-2.5c0,0.417 -0.416,1.25 -0.416,1.667c-0,2.083 1.666,4.583 3.75,5.417Z" style="fill:#fcba40;fill-rule:nonzero;"/><circle cx="177.5" cy="153.333" r="6.25" style="fill:#fcba40;"/><circle cx="147.5" cy="183.75" r="6.25" style="fill:#fcba40;"/><circle cx="207.917" cy="183.75" r="6.25" style="fill:#fcba40;"/><path d="M147.5,129.167c1.667,-0 2.917,-0.417 4.167,-1.667c-3.334,-0.833 -6.25,-1.25 -9.167,-1.667c0.417,2.084 2.5,3.334 5,3.334Z" style="fill:#fcba40;fill-rule:nonzero;"/><path d="M117.083,207.917c-2.916,-0 -5.416,2.083 -5.833,5l0,1.25c0,3.333 2.5,5.833 6.25,5.833c3.333,-0 5.833,-2.5 5.833,-5.833l0,-1.25c-0.833,-2.917 -3.333,-5 -6.25,-5Z" style="fill:#fcba40;fill-rule:nonzero;"/><circle cx="117.083" cy="153.333" r="6.25" style="fill:#fcba40;"/><circle cx="177.5" cy="274.167" r="6.25" style="fill:#fcba40;"/><circle cx="147.5" cy="244.167" r="6.25" style="fill:#fcba40;"/><circle cx="207.917" cy="244.167" r="6.25" style="fill:#fcba40;"/><path d="M56.667,207.917c-2.917,-0 -5.417,2.083 -5.834,5l0,1.25c0,3.333 2.5,5.833 5.834,5.833c3.333,-0 6.25,-2.5 6.25,-5.833l-0,-1.25c-0.834,-2.917 -3.334,-5 -6.25,-5Z" style="fill:#fcba40;fill-rule:nonzero;"/><circle cx="56.667" cy="153.333" r="6.25" style="fill:#fcba40;"/><circle cx="26.667" cy="183.75" r="6.25" style="fill:#fcba40;"/><circle cx="87.083" cy="183.75" r="6.25" style="fill:#fcba40;"/><path d="M27.917,117.5l-3.334,-0c-2.5,0.833 -4.166,2.917 -4.166,5.833c-0,3.334 2.5,5.834 5.833,5.834c3.333,-0 6.25,-2.5 6.25,-5.834c0,-2.916 -2.083,-5.416 -4.583,-5.833Z" style="fill:#fcba40;fill-rule:nonzero;"/><path d="M83.333,118.333c-1.666,1.25 -2.5,2.917 -2.5,5c0,3.334 2.5,5.834 6.25,5.834c3.334,-0 6.25,-2.5 6.25,-5.834c0,-1.666 -0.833,-3.333 -1.666,-4.166c-3.334,-0.417 -5.834,-0.417 -8.334,-0.834Z" style="fill:#fcba40;fill-rule:nonzero;"/><path d="M87.083,237.917c-3.333,-0 -6.25,2.5 -6.25,6.25c0,1.25 0.417,2.5 1.25,3.333l6.25,2.5c2.917,-0.417 4.584,-2.917 4.584,-5.833c-0,-3.334 -2.5,-6.25 -5.834,-6.25Z" style="fill:#fcba40;fill-rule:nonzero;"/></g></g><path d="M606.667,156.667c3.333,3.75 5.416,7.916 6.666,12.5l-214.166,107.083l-0,-6.25c-138.75,-161.667 -341.667,-155 -382.084,-152.083c2.5,-3.334 5.834,-5.834 10,-7.917l181.25,-90.417c12.084,-6.25 25.417,-9.583 39.167,-9.583c60.833,-1.25 233.75,8.333 359.167,146.667Z" style="fill:#fee172;fill-rule:nonzero;"/><path d="M481.667,186.667c41.25,-25.834 55.833,-58.75 59.166,-88.75c-114.166,-82.5 -242.5,-89.167 -293.333,-87.917c-13.75,0.417 -27.083,3.75 -39.167,9.583l-112.916,56.667c189.583,8.333 299.583,165 386.25,110.417Z" style="fill:#fdee99;fill-rule:nonzero;"/><g><path d="M376.25,503.75c-22.5,-0 -45.417,-4.167 -66.667,-12.917l-104.583,-41.666c-0.833,0.833 -2.083,1.666 -2.917,2.5c-21.666,15.416 -43.75,17.5 -52.916,4.583c-5.417,-7.5 -4.584,-17.917 1.666,-28.333l-26.25,-10.417c-37.5,-15 -64.166,-48.75 -70,-88.333c-21.666,-2.5 -36.25,-12.917 -36.25,-26.667c0,-13.75 14.167,-24.167 35,-26.667l0,-37.083l20.834,-0l-0,57.083l-10.417,0c-13.75,0 -22.083,4.167 -24.167,6.25c2.5,2.5 10.834,6.25 24.167,6.25l9.583,0l0.834,9.584c2.083,35.416 25,66.666 57.916,79.583l54.167,21.667l-11.25,11.25c-5.833,5.833 -8.333,10.833 -8.75,13.333c3.333,0.417 12.5,-1.25 23.333,-9.167c2.084,-1.25 3.75,-2.916 6.25,-5l5,-4.583l117.084,46.25c42.5,16.667 90,15 130.833,-5.417l42.917,-21.666l5,3.75c2.5,1.666 5,3.333 7.5,4.583c12.083,6.25 21.25,6.667 24.583,5.417c-0.833,-2.084 -3.75,-7.084 -11.25,-12.5l-11.25,-7.917l10.833,-8.333c16.667,-12.917 28.334,-31.667 32.917,-52.084l1.667,-6.666l6.666,-1.25c2.5,-0.417 4.584,-0.834 6.667,-1.667c12.917,-4.167 19.583,-10.417 21.25,-13.333c-2.5,-1.25 -9.583,-2.5 -20.833,-0l-12.917,2.916l0,-65.416l20.833,-0l0,40c17.084,-1.25 29.584,4.583 33.334,15.833c4.583,15 -10,31.667 -35.417,39.583c-0.833,0.417 -1.25,0.417 -2.083,0.417c-5.417,18.75 -15.417,35.833 -29.167,49.167c9.583,10.416 12.917,21.666 8.333,30.416c-7.5,14.167 -29.583,15.417 -52.916,2.917c-1.667,-0.833 -2.917,-1.667 -4.584,-2.5l-31.666,15.833c-27.5,14.167 -55.417,20.417 -82.917,20.417Z" style="fill:#282f39;fill-rule:nonzero;"/><path d="M403.75,285.833l-9.167,-18.333l215,-107.917l9.584,18.75l-0.834,0.417l-214.583,107.083Z" style="fill:#282f39;fill-rule:nonzero;"/><rect x="388.75" y="270" width="20.833" height="96.25" style="fill:#282f39;"/><path d="M395,375.417c-12.917,-0 -25.417,-2.5 -37.5,-7.084l-331.667,-131.666c-15.833,-6.25 -25.833,-21.25 -25.833,-37.917l0,-60.833c0,-9.584 3.333,-18.75 9.583,-26.25c3.75,-4.584 8.334,-7.917 13.334,-10.417l181.25,-90.417c13.333,-6.666 28.75,-10.416 43.75,-10.833l9.166,-0c66.667,-0 234.584,14.583 357.917,150.417c4.167,5 7.5,10.833 9.167,17.083c0.833,3.333 1.25,6.667 1.25,10l-0,70c-0,15.417 -8.75,29.583 -22.5,36.667l-161.667,80.833c-12.917,6.25 -26.667,10 -40.833,10.833c-2.084,-0.833 -3.75,-0.416 -5.417,-0.416Zm-138.333,-355l-8.75,-0c-12.084,0.416 -24.167,3.333 -34.584,8.75l-181.25,90.416c-2.5,1.25 -4.583,2.917 -6.666,5c-2.917,3.75 -4.584,8.334 -4.584,12.917l0,60.833c0,8.334 5,15.834 12.917,18.75l331.667,131.667c10.833,4.167 22.083,6.25 33.75,5.417c11.25,-0.417 22.5,-3.334 32.5,-8.334l161.666,-80.833c6.667,-3.333 11.25,-10.417 11.25,-17.917l0,-70c0,-1.666 -0.416,-3.333 -0.833,-5c-0.833,-2.916 -2.5,-5.833 -4.583,-8.333c-117.917,-129.583 -278.75,-143.333 -342.5,-143.333Z" style="fill:#282f39;fill-rule:nonzero;"/><path d="M391.25,277.083c-135.833,-157.916 -334.583,-151.666 -373.333,-148.75c-4.167,0.417 -6.667,0.417 -6.667,0.834l-2.5,-20.834c0,0 2.5,-0.416 7.5,-0.833c40.417,-2.917 248.333,-9.583 390.833,155.833l-15.833,13.75Z" style="fill:#282f39;fill-rule:nonzero;"/></g><path d="M312.5,193.75l212.917,-106.25c-62.5,-40.833 -127.917,-60.833 -181.667,-70l-212.5,106.25c0,-0 -45.417,140.833 0,285.833l35.833,14.167c-10,10 -14.583,20.833 -10,27.083c5.417,7.5 22.5,4.584 38.334,-7.083c2.5,-2.083 5,-3.75 7.083,-5.833l110.833,44.166c-46.666,-146.25 -0.833,-288.333 -0.833,-288.333Z" style="fill:#474952;fill-rule:nonzero;"/><path d="M343.75,17.5l-152.5,76.25c4.583,30.417 24.583,62.5 87.917,58.75c80.833,-5 166.666,-54.583 212.5,-85c-51.667,-27.917 -103.75,-42.5 -147.917,-50Z" style="fill:#616169;fill-rule:nonzero;"/><path d="M329.583,499.167l-125.416,-49.584c-0.834,0.834 -2.084,1.667 -3.334,2.5c-11.666,8.334 -24.166,12.917 -34.166,12.917c-7.917,-0 -14.584,-2.917 -18.75,-8.333c-5.417,-7.5 -4.584,-17.917 1.666,-28.334l-27.083,-10.833l-1.667,-4.583c-45.833,-146.25 -2.083,-286.25 0,-292.084l1.25,-4.166l219.167,-109.584l3.333,0.417c68.75,11.667 131.25,35.833 185.417,71.25l15,10l-225,112.5c-6.667,24.167 -38.75,150.417 2.083,277.5l7.5,20.417Zm-129.583,-73.75l97.083,38.333c-37.083,-139.167 3.75,-267.917 5.417,-273.333l1.25,-4.167l200,-100c-47.083,-28.333 -100.417,-47.5 -158.75,-57.917l-205.417,102.5c-6.666,23.75 -37.5,145.834 0,270.417l45.834,18.333l-11.25,11.25c-5.834,5.834 -8.334,10.834 -8.75,13.334l1.25,-0c4.583,-0 12.916,-2.5 22.083,-9.167c2.083,-1.25 3.75,-2.917 6.25,-5l5,-4.583Z" style="fill:#282f39;fill-rule:nonzero;"/><path d="M417.083,71.667c4.167,-0.417 5,-6.667 0.834,-7.917c-20.834,-7.917 -57.5,-19.583 -75.417,-15.417c-15.417,3.75 -27.083,10.417 -34.583,15.417c-2.917,2.083 -2.084,7.083 1.666,7.5c17.084,2.5 55.834,6.25 107.5,0.417Z" style="fill:#fff;fill-rule:nonzero;"/></g></g></svg>