<?xml version="1.0" encoding="UTF-8" standalone="no"?><!DOCTYPE svg PUBLIC "-//W3C//DTD SVG 1.1//EN" "http://www.w3.org/Graphics/SVG/1.1/DTD/svg11.dtd"><svg width="100%" height="100%" viewBox="0 0 467 583" version="1.1" xmlns="http://www.w3.org/2000/svg" xmlns:xlink="http://www.w3.org/1999/xlink" xml:space="preserve" xmlns:serif="http://www.serif.com/" style="fill-rule:evenodd;clip-rule:evenodd;stroke-linejoin:round;stroke-miterlimit:2;"><g><g><path d="M10.417,110l-0,387.083c-0,41.667 100,75 222.916,75c123.334,0 222.917,-33.75 222.917,-75l0,-387.083l-445.833,0Z" style="fill:#474952;fill-rule:nonzero;"/><g><path d="M452.083,162.917c-0.833,0.833 -0.833,2.083 -0.833,3.333c-0,0.833 -0,1.667 0.417,2.5c0.833,2.083 2.5,3.333 5,3.75l-0,-11.667c-2.084,-0.416 -3.75,0.417 -4.584,2.084Z" style="fill:#3c3b40;fill-rule:nonzero;"/><path d="M397.083,160c-2.083,0 -3.75,1.25 -5,2.5c-0.833,0.833 -0.833,2.083 -0.833,3.333c-0,0.834 -0,1.667 0.417,2.5c0.833,2.084 2.916,3.75 5.416,3.75c2.5,0 4.584,-1.666 5.417,-3.75c0.417,-0.833 0.417,-1.666 0.417,-2.5c-0,-1.25 -0.417,-2.5 -0.834,-3.333c-1.25,-1.25 -2.916,-2.5 -5,-2.5Z" style="fill:#3c3b40;fill-rule:nonzero;"/><path d="M452.5,110c0.833,0.833 2.083,1.667 3.75,2.083l0,-2.083l-3.75,0Z" style="fill:#3c3b40;fill-rule:nonzero;"/><path d="M401.667,110l-8.75,0c1.25,1.25 2.5,2.083 4.583,2.083c1.25,0 2.917,-0.833 4.167,-2.083Z" style="fill:#3c3b40;fill-rule:nonzero;"/><circle cx="367.083" cy="136.25" r="5.833" style="fill:#3c3b40;"/><circle cx="427.083" cy="136.25" r="5.833" style="fill:#3c3b40;"/><path d="M340.417,161.25c-0.834,-0.833 -2.084,-0.833 -3.334,-0.833c-2.083,-0 -3.75,1.25 -5,2.5c-0.833,0.833 -0.833,2.083 -0.833,3.333c-0,0.833 -0,1.667 0.417,2.5c0.833,2.083 2.916,3.75 5.416,3.75c1.25,0 2.5,-0.417 3.334,-0.833c0.833,-0.417 1.666,-1.667 2.083,-2.5c0.417,-0.834 0.417,-1.667 0.417,-2.5c-0,-1.25 -0.417,-2.5 -0.834,-3.334c-0.416,-1.25 -0.833,-1.666 -1.666,-2.083Z" style="fill:#3c3b40;fill-rule:nonzero;"/><path d="M340.417,111.25c0.416,-0.417 0.833,-0.417 1.25,-0.833l-9.167,-0c1.25,1.25 2.5,2.083 4.583,2.083c1.25,-0.417 2.5,-0.833 3.334,-1.25Z" style="fill:#3c3b40;fill-rule:nonzero;"/><path d="M453.75,281.25c-0.417,0.417 -0.417,0.417 -0.833,0.833c-0.834,0.834 -1.25,1.667 -1.667,2.917l-0,1.25c-0,2.917 2.5,5.417 5.417,5.833l-0,-11.666l-0.417,-0c-1.25,-0 -1.667,0.416 -2.5,0.833Z" style="fill:#3c3b40;fill-rule:nonzero;"/><path d="M401.25,282.083c-0.417,-0.416 -0.417,-0.416 -0.833,-0.833c-0.834,-0.417 -1.25,-0.833 -2.084,-0.833l-2.5,-0c-0.833,-0 -1.666,0.416 -2.083,0.833c-0.417,0.417 -0.417,0.417 -0.833,0.833c-0.834,0.834 -1.25,1.667 -1.667,2.917l-0,1.25c-0,3.333 2.5,5.833 5.833,5.833c3.334,0 5.834,-2.5 5.834,-5.833l-0,-1.25c-0,-1.25 -0.834,-2.083 -1.667,-2.917Z" style="fill:#3c3b40;fill-rule:nonzero;"/><path d="M451.25,226.25c-0,2.917 2.5,5.417 5.417,5.833l-0,-11.666c-3.334,-0 -5.417,2.5 -5.417,5.833Z" style="fill:#3c3b40;fill-rule:nonzero;"/><circle cx="397.083" cy="226.25" r="5.833" style="fill:#3c3b40;"/><circle cx="367.083" cy="256.25" r="5.833" style="fill:#3c3b40;"/><circle cx="427.083" cy="256.25" r="5.833" style="fill:#3c3b40;"/><circle cx="367.083" cy="196.25" r="5.833" style="fill:#3c3b40;"/><circle cx="427.083" cy="196.25" r="5.833" style="fill:#3c3b40;"/><path d="M341.25,282.083c-0.417,-0.416 -0.417,-0.416 -0.833,-0.833c-0.834,-0.417 -1.25,-0.833 -2.084,-0.833l-2.5,-0c-0.833,-0 -1.666,0.416 -2.083,0.833c-0.417,0.417 -0.417,0.417 -0.833,0.833c-0.834,0.834 -1.25,1.667 -1.667,2.917l0,1.25c0,3.333 2.5,5.833 5.833,5.833c1.25,0 2.5,-0.416 3.334,-0.833c1.666,-1.25 2.5,-2.917 2.5,-5l-0,-1.25c-0,-1.25 -0.834,-2.083 -1.667,-2.917Z" style="fill:#3c3b40;fill-rule:nonzero;"/><path d="M340.417,221.25c-0.834,-0.833 -2.084,-0.833 -3.334,-0.833c-3.333,-0 -5.833,2.5 -5.833,5.833c0,3.333 2.5,5.833 5.833,5.833c1.25,0 2.5,-0.416 3.334,-0.833c1.666,-1.25 2.5,-2.917 2.5,-5c-0,-2.083 -0.834,-4.167 -2.5,-5Z" style="fill:#3c3b40;fill-rule:nonzero;"/><path d="M452.083,402.917c-0.833,0.833 -0.833,2.083 -0.833,3.333c-0,0.833 -0,1.667 0.417,2.5c0.833,2.083 2.5,3.333 5,3.75l-0,-11.667c-2.084,-0.416 -3.75,0.417 -4.584,2.084Z" style="fill:#3c3b40;fill-rule:nonzero;"/><path d="M397.083,400c-2.083,0 -3.75,1.25 -5,2.5c-0.833,0.833 -0.833,2.083 -0.833,3.333c-0,0.834 -0,1.667 0.417,2.5c0.833,2.084 2.916,3.75 5.416,3.75c2.5,0 4.584,-1.666 5.417,-3.75c0.417,-0.833 0.417,-1.666 0.417,-2.5c-0,-1.25 -0.417,-2.5 -0.834,-3.333c-1.25,-1.25 -2.916,-2.5 -5,-2.5Z" style="fill:#3c3b40;fill-rule:nonzero;"/><path d="M451.25,346.25c-0,2.917 2.5,5.417 5.417,5.833l-0,-11.666c-3.334,-0 -5.417,2.5 -5.417,5.833Z" style="fill:#3c3b40;fill-rule:nonzero;"/><circle cx="397.083" cy="346.25" r="5.833" style="fill:#3c3b40;"/><circle cx="367.083" cy="376.25" r="5.833" style="fill:#3c3b40;"/><circle cx="427.083" cy="376.25" r="5.833" style="fill:#3c3b40;"/><circle cx="367.083" cy="316.25" r="5.833" style="fill:#3c3b40;"/><circle cx="427.083" cy="316.25" r="5.833" style="fill:#3c3b40;"/><path d="M340.417,401.25c-0.834,-0.833 -2.084,-0.833 -3.334,-0.833c-2.083,-0 -3.75,1.25 -5,2.5c-0.833,0.833 -0.833,2.083 -0.833,3.333c-0,0.833 -0,1.667 0.417,2.5c0.833,2.083 2.916,3.75 5.416,3.75c1.25,0 2.5,-0.417 3.334,-0.833c0.833,-0.417 1.666,-1.667 2.083,-2.5c0.417,-0.834 0.417,-1.667 0.417,-2.5c-0,-1.25 -0.417,-2.5 -0.834,-3.334c-0.416,-1.25 -0.833,-1.666 -1.666,-2.083Z" style="fill:#3c3b40;fill-rule:nonzero;"/><path d="M340.417,341.25c-0.834,-0.833 -2.084,-0.833 -3.334,-0.833c-3.333,-0 -5.833,2.5 -5.833,5.833c0,3.333 2.5,5.833 5.833,5.833c1.25,0 2.5,-0.416 3.334,-0.833c1.666,-1.25 2.5,-2.917 2.5,-5c-0,-2.083 -0.834,-4.167 -2.5,-5Z" style="fill:#3c3b40;fill-rule:nonzero;"/><path d="M401.25,522.083c-0.417,-0.416 -0.417,-0.416 -0.833,-0.833c-0.834,-0.417 -1.25,-0.833 -2.084,-0.833l-2.5,-0c-0.833,-0 -1.666,0.416 -2.083,0.833c-0.417,0.417 -0.417,0.417 -0.833,0.833c-0.834,0.834 -1.25,1.667 -1.667,2.917l-0,1.25c-0,3.333 2.5,5.833 5.833,5.833c3.334,0 5.834,-2.5 5.834,-5.833l-0,-1.25c-0,-1.25 -0.834,-2.083 -1.667,-2.917Z" style="fill:#3c3b40;fill-rule:nonzero;"/><path d="M451.25,466.25c-0,2.917 2.5,5.417 5.417,5.833l-0,-11.666c-3.334,-0 -5.417,2.5 -5.417,5.833Z" style="fill:#3c3b40;fill-rule:nonzero;"/><circle cx="397.083" cy="466.25" r="5.833" style="fill:#3c3b40;"/><circle cx="367.083" cy="496.25" r="5.833" style="fill:#3c3b40;"/><circle cx="427.083" cy="496.25" r="5.833" style="fill:#3c3b40;"/><circle cx="367.083" cy="436.25" r="5.833" style="fill:#3c3b40;"/><circle cx="427.083" cy="436.25" r="5.833" style="fill:#3c3b40;"/><path d="M341.25,522.083c-0.417,-0.416 -0.417,-0.416 -0.833,-0.833c-0.834,-0.417 -1.25,-0.833 -2.084,-0.833l-2.5,-0c-0.833,-0 -1.666,0.416 -2.083,0.833c-0.417,0.417 -0.417,0.417 -0.833,0.833c-0.834,0.834 -1.25,1.667 -1.667,2.917l0,1.25c0,3.333 2.5,5.833 5.833,5.833c1.25,0 2.5,-0.416 3.334,-0.833c1.666,-1.25 2.5,-2.917 2.5,-5l-0,-1.25c-0,-1.25 -0.834,-2.083 -1.667,-2.917Z" style="fill:#3c3b40;fill-rule:nonzero;"/><path d="M340.417,461.25c-0.834,-0.833 -2.084,-0.833 -3.334,-0.833c-3.333,-0 -5.833,2.5 -5.833,5.833c0,3.333 2.5,5.833 5.833,5.833c1.25,0 2.5,-0.416 3.334,-0.833c1.666,-1.25 2.5,-2.917 2.5,-5c-0,-2.083 -0.834,-4.167 -2.5,-5Z" style="fill:#3c3b40;fill-rule:nonzero;"/><path d="M367.083,550c-3.333,0 -5.833,2.5 -5.833,5.833c0,0.834 0.417,2.084 0.833,2.917c3.75,-0.833 7.5,-1.667 11.25,-2.917c-0.416,-2.916 -2.916,-5.833 -6.25,-5.833Z" style="fill:#3c3b40;fill-rule:nonzero;"/><path d="M277.083,160c-2.083,0 -3.75,1.25 -5,2.5c-0.833,0.833 -0.833,2.083 -0.833,3.333c-0,0.834 -0,1.667 0.417,2.5c0.833,2.084 2.916,3.75 5.416,3.75c2.5,0 4.584,-1.666 5.417,-3.75c0.417,-0.833 0.417,-1.666 0.417,-2.5c-0,-1.25 -0.417,-2.5 -0.834,-3.333c-1.25,-1.25 -2.916,-2.5 -5,-2.5Z" style="fill:#3c3b40;fill-rule:nonzero;"/><path d="M281.667,110l-9.167,0c1.25,1.25 2.5,2.083 4.583,2.083c1.667,0 3.334,-0.833 4.584,-2.083Z" style="fill:#3c3b40;fill-rule:nonzero;"/><circle cx="247.083" cy="136.25" r="5.833" style="fill:#3c3b40;"/><circle cx="307.083" cy="136.25" r="5.833" style="fill:#3c3b40;"/><path d="M218.333,160.417l-1.25,-0c-0.833,-0 -1.666,-0 -2.5,0.416c-1.25,0.417 -2.083,1.25 -2.5,2.084c-0.833,0.833 -0.833,2.083 -0.833,3.333c-0,0.833 -0,1.667 0.417,2.5c0.416,1.25 1.666,2.5 3.333,3.333c0.833,0.417 1.667,0.417 2.5,0.417l1.25,0c2.083,-0.417 3.75,-1.667 4.167,-3.333c0.416,-0.834 0.416,-1.667 0.416,-2.5c0,-1.25 -0.416,-2.5 -0.833,-3.334c-1.25,-1.666 -2.5,-2.916 -4.167,-2.916Z" style="fill:#3c3b40;fill-rule:nonzero;"/><path d="M281.25,282.083c-0.417,-0.416 -0.417,-0.416 -0.833,-0.833c-0.834,-0.417 -1.25,-0.833 -2.084,-0.833l-2.5,-0c-0.833,-0 -1.666,0.416 -2.083,0.833c-0.417,0.417 -0.417,0.417 -0.833,0.833c-0.834,0.834 -1.25,1.667 -1.667,2.917l0,1.25c0,3.333 2.5,5.833 5.833,5.833c3.334,0 5.834,-2.5 5.834,-5.833l-0,-1.25c-0,-1.25 -0.834,-2.083 -1.667,-2.917Z" style="fill:#3c3b40;fill-rule:nonzero;"/><circle cx="277.083" cy="226.25" r="5.833" style="fill:#3c3b40;"/><circle cx="247.083" cy="256.25" r="5.833" style="fill:#3c3b40;"/><circle cx="307.083" cy="256.25" r="5.833" style="fill:#3c3b40;"/><circle cx="247.083" cy="196.25" r="5.833" style="fill:#3c3b40;"/><circle cx="307.083" cy="196.25" r="5.833" style="fill:#3c3b40;"/><path d="M221.25,282.083c-0.417,-0.416 -0.417,-0.416 -0.833,-0.833c-0.834,-0.417 -1.25,-0.833 -2.084,-0.833l-2.5,-0c-0.416,-0 -0.833,-0 -1.25,0.416c-0.416,0 -0.833,0.417 -0.833,0.417c-0.417,0.417 -0.417,0.417 -0.833,0.833c-0.834,0.834 -1.25,1.667 -1.667,2.917l-0,1.25c-0,2.5 1.667,4.583 3.75,5.417c0.833,0.416 1.667,0.416 2.5,0.416l1.25,0c2.917,-0.416 4.583,-2.916 4.583,-5.833l0,-1.25c-0.416,-1.25 -1.25,-2.083 -2.083,-2.917Z" style="fill:#3c3b40;fill-rule:nonzero;"/><path d="M218.333,220.417l-1.25,-0c-0.833,-0 -1.666,-0 -2.5,0.416c-2.083,0.834 -3.75,2.917 -3.75,5.417c0,2.5 1.667,4.583 3.75,5.417c0.834,0.416 1.667,0.416 2.5,0.416l1.25,0c2.917,-0.416 4.584,-2.916 4.584,-5.833c-0,-2.917 -1.667,-5.417 -4.584,-5.833Z" style="fill:#3c3b40;fill-rule:nonzero;"/><path d="M277.083,400c-2.083,0 -3.75,1.25 -5,2.5c-0.833,0.833 -0.833,2.083 -0.833,3.333c-0,0.834 -0,1.667 0.417,2.5c0.833,2.084 2.916,3.75 5.416,3.75c2.5,0 4.584,-1.666 5.417,-3.75c0.417,-0.833 0.417,-1.666 0.417,-2.5c-0,-1.25 -0.417,-2.5 -0.834,-3.333c-1.25,-1.25 -2.916,-2.5 -5,-2.5Z" style="fill:#3c3b40;fill-rule:nonzero;"/><circle cx="277.083" cy="346.25" r="5.833" style="fill:#3c3b40;"/><circle cx="247.083" cy="376.25" r="5.833" style="fill:#3c3b40;"/><circle cx="307.083" cy="376.25" r="5.833" style="fill:#3c3b40;"/><circle cx="247.083" cy="316.25" r="5.833" style="fill:#3c3b40;"/><circle cx="307.083" cy="316.25" r="5.833" style="fill:#3c3b40;"/><path d="M218.333,400.417l-1.25,-0c-0.833,-0 -1.666,-0 -2.5,0.416c-1.25,0.417 -2.083,1.25 -2.5,2.084c-0.833,0.833 -0.833,2.083 -0.833,3.333c-0,0.833 -0,1.667 0.417,2.5c0.416,1.25 1.666,2.5 3.333,3.333c0.833,0.417 1.667,0.417 2.5,0.417l1.25,0c2.083,-0.417 3.75,-1.667 4.167,-3.333c0.416,-0.834 0.416,-1.667 0.416,-2.5c0,-1.25 -0.416,-2.5 -0.833,-3.334c-1.25,-1.666 -2.5,-2.916 -4.167,-2.916Z" style="fill:#3c3b40;fill-rule:nonzero;"/><path d="M218.333,340.417l-1.25,-0c-0.833,-0 -1.666,-0 -2.5,0.416c-2.083,0.834 -3.75,2.917 -3.75,5.417c0,2.5 1.667,4.583 3.75,5.417c0.834,0.416 1.667,0.416 2.5,0.416l1.25,0c2.917,-0.416 4.584,-2.916 4.584,-5.833c-0,-2.917 -1.667,-5.417 -4.584,-5.833Z" style="fill:#3c3b40;fill-rule:nonzero;"/><path d="M281.25,522.083c-0.417,-0.416 -0.417,-0.416 -0.833,-0.833c-0.834,-0.417 -1.25,-0.833 -2.084,-0.833l-2.5,-0c-0.833,-0 -1.666,0.416 -2.083,0.833c-0.417,0.417 -0.417,0.417 -0.833,0.833c-0.834,0.834 -1.25,1.667 -1.667,2.917l0,1.25c0,3.333 2.5,5.833 5.833,5.833c3.334,0 5.834,-2.5 5.834,-5.833l-0,-1.25c-0,-1.25 -0.834,-2.083 -1.667,-2.917Z" style="fill:#3c3b40;fill-rule:nonzero;"/><circle cx="277.083" cy="466.25" r="5.833" style="fill:#3c3b40;"/><circle cx="247.083" cy="496.25" r="5.833" style="fill:#3c3b40;"/><circle cx="307.083" cy="496.25" r="5.833" style="fill:#3c3b40;"/><circle cx="247.083" cy="436.25" r="5.833" style="fill:#3c3b40;"/><circle cx="307.083" cy="436.25" r="5.833" style="fill:#3c3b40;"/><path d="M221.25,522.083c-0.417,-0.416 -0.417,-0.416 -0.833,-0.833c-0.834,-0.417 -1.25,-0.833 -2.084,-0.833l-2.5,-0c-0.416,-0 -0.833,-0 -1.25,0.416c-0.416,0 -0.833,0.417 -0.833,0.417c-0.417,0.417 -0.417,0.417 -0.833,0.833c-0.834,0.834 -1.25,1.667 -1.667,2.917l-0,1.25c-0,2.5 1.667,4.583 3.75,5.417c0.833,0.416 1.667,0.416 2.5,0.416l1.25,0c2.917,-0.416 4.583,-2.916 4.583,-5.833l0,-1.25c-0.416,-1.25 -1.25,-2.083 -2.083,-2.917Z" style="fill:#3c3b40;fill-rule:nonzero;"/><path d="M218.333,460.417l-1.25,-0c-0.833,-0 -1.666,-0 -2.5,0.416c-2.083,0.834 -3.75,2.917 -3.75,5.417c0,2.5 1.667,4.583 3.75,5.417c0.834,0.416 1.667,0.416 2.5,0.416l1.25,0c2.917,-0.416 4.584,-2.916 4.584,-5.833c-0,-2.917 -1.667,-5.417 -4.584,-5.833Z" style="fill:#3c3b40;fill-rule:nonzero;"/><circle cx="247.083" cy="556.25" r="5.833" style="fill:#3c3b40;"/><circle cx="307.083" cy="556.25" r="5.833" style="fill:#3c3b40;"/><path d="M157.083,160c-2.083,0 -3.75,1.25 -5,2.5c-0.833,0.833 -0.833,2.083 -0.833,3.333c0,0.834 0,1.667 0.417,2.5c0.833,2.084 2.916,3.75 5.416,3.75c2.5,0 4.584,-1.666 5.417,-3.75c0.417,-0.833 0.417,-1.666 0.417,-2.5c-0,-1.25 -0.417,-2.5 -0.834,-3.333c-1.25,-1.25 -2.916,-2.5 -5,-2.5Z" style="fill:#3c3b40;fill-rule:nonzero;"/><path d="M214.583,112.083l3.75,0c1.25,-0.416 2.5,-0.833 3.334,-1.666l-9.167,-0c0.417,0.833 1.25,1.25 2.083,1.666Z" style="fill:#3c3b40;fill-rule:nonzero;"/><path d="M161.667,110l-8.75,0c1.25,1.25 2.5,2.083 4.583,2.083c1.25,0 2.917,-0.833 4.167,-2.083Z" style="fill:#3c3b40;fill-rule:nonzero;"/><circle cx="127.083" cy="136.25" r="5.833" style="fill:#3c3b40;"/><circle cx="187.083" cy="136.25" r="5.833" style="fill:#3c3b40;"/><path d="M100.417,161.25c-0.834,-0.833 -2.084,-0.833 -3.334,-0.833c-0.833,-0 -1.666,-0 -2.5,0.416c-1.25,0.417 -2.083,1.25 -2.5,2.084c-0.833,0.833 -0.833,2.083 -0.833,3.333c-0,0.833 -0,1.667 0.417,2.5c0.416,1.25 1.666,2.5 3.333,3.333c0.833,0.417 1.667,0.417 2.5,0.417c1.25,0 2.5,-0.417 3.333,-0.833c0.834,-0.417 1.667,-1.667 2.084,-2.5c0.416,-0.834 0.416,-1.667 0.416,-2.5c0,-1.25 -0.416,-2.5 -0.833,-3.334c-0.833,-1.25 -1.25,-1.666 -2.083,-2.083Z" style="fill:#3c3b40;fill-rule:nonzero;"/><path d="M161.25,282.083c-0.417,-0.416 -0.417,-0.416 -0.833,-0.833c-0.834,-0.417 -1.25,-0.833 -2.084,-0.833l-2.5,-0c-0.833,-0 -1.666,0.416 -2.083,0.833c-0.417,0.417 -0.417,0.417 -0.833,0.833c-0.834,0.834 -1.25,1.667 -1.667,2.917l0,1.25c0,3.333 2.5,5.833 5.833,5.833c3.334,0 5.834,-2.5 5.834,-5.833l-0,-1.25c-0,-1.25 -0.834,-2.083 -1.667,-2.917Z" style="fill:#3c3b40;fill-rule:nonzero;"/><circle cx="157.083" cy="226.25" r="5.833" style="fill:#3c3b40;"/><circle cx="127.083" cy="256.25" r="5.833" style="fill:#3c3b40;"/><circle cx="187.083" cy="256.25" r="5.833" style="fill:#3c3b40;"/><circle cx="127.083" cy="196.25" r="5.833" style="fill:#3c3b40;"/><circle cx="187.083" cy="196.25" r="5.833" style="fill:#3c3b40;"/><path d="M101.25,282.083c-0.417,-0.416 -0.417,-0.416 -0.833,-0.833c-0.834,-0.417 -1.25,-0.833 -2.084,-0.833l-2.5,-0c-0.416,-0 -0.833,-0 -1.25,0.416c-0.416,0 -0.833,0.417 -0.833,0.417c-0.417,0.417 -0.417,0.417 -0.833,0.833c-0.834,0.834 -1.25,1.667 -1.667,2.917l0,1.25c0,2.5 1.667,4.583 3.75,5.417c0.833,0.416 1.667,0.416 2.5,0.416c1.25,0 2.5,-0.416 3.333,-0.833c1.667,-1.25 2.5,-2.917 2.5,-5l0,-1.25c-0.416,-1.25 -1.25,-2.083 -2.083,-2.917Z" style="fill:#3c3b40;fill-rule:nonzero;"/><path d="M100.417,221.25c-0.834,-0.833 -2.084,-0.833 -3.334,-0.833c-0.833,-0 -1.666,-0 -2.5,0.416c-2.083,0.834 -3.75,2.917 -3.75,5.417c0,2.5 1.667,4.583 3.75,5.417c0.834,0.416 1.667,0.416 2.5,0.416c1.25,0 2.5,-0.416 3.334,-0.833c1.666,-1.25 2.5,-2.917 2.5,-5c-0,-2.083 -0.834,-4.167 -2.5,-5Z" style="fill:#3c3b40;fill-rule:nonzero;"/><path d="M157.083,400c-2.083,0 -3.75,1.25 -5,2.5c-0.833,0.833 -0.833,2.083 -0.833,3.333c0,0.834 0,1.667 0.417,2.5c0.833,2.084 2.916,3.75 5.416,3.75c2.5,0 4.584,-1.666 5.417,-3.75c0.417,-0.833 0.417,-1.666 0.417,-2.5c-0,-1.25 -0.417,-2.5 -0.834,-3.333c-1.25,-1.25 -2.916,-2.5 -5,-2.5Z" style="fill:#3c3b40;fill-rule:nonzero;"/><circle cx="157.083" cy="346.25" r="5.833" style="fill:#3c3b40;"/><circle cx="127.083" cy="376.25" r="5.833" style="fill:#3c3b40;"/><circle cx="187.083" cy="376.25" r="5.833" style="fill:#3c3b40;"/><circle cx="127.083" cy="316.25" r="5.833" style="fill:#3c3b40;"/><circle cx="187.083" cy="316.25" r="5.833" style="fill:#3c3b40;"/><path d="M100.417,401.25c-0.834,-0.833 -2.084,-0.833 -3.334,-0.833c-0.833,-0 -1.666,-0 -2.5,0.416c-1.25,0.417 -2.083,1.25 -2.5,2.084c-0.833,0.833 -0.833,2.083 -0.833,3.333c-0,0.833 -0,1.667 0.417,2.5c0.416,1.25 1.666,2.5 3.333,3.333c0.833,0.417 1.667,0.417 2.5,0.417c1.25,0 2.5,-0.417 3.333,-0.833c0.834,-0.417 1.667,-1.667 2.084,-2.5c0.416,-0.834 0.416,-1.667 0.416,-2.5c0,-1.25 -0.416,-2.5 -0.833,-3.334c-0.833,-1.25 -1.25,-1.666 -2.083,-2.083Z" style="fill:#3c3b40;fill-rule:nonzero;"/><path d="M100.417,341.25c-0.834,-0.833 -2.084,-0.833 -3.334,-0.833c-0.833,-0 -1.666,-0 -2.5,0.416c-2.083,0.834 -3.75,2.917 -3.75,5.417c0,2.5 1.667,4.583 3.75,5.417c0.834,0.416 1.667,0.416 2.5,0.416c1.25,0 2.5,-0.416 3.334,-0.833c1.666,-1.25 2.5,-2.917 2.5,-5c-0,-2.083 -0.834,-4.167 -2.5,-5Z" style="fill:#3c3b40;fill-rule:nonzero;"/><path d="M161.25,522.083c-0.417,-0.416 -0.417,-0.416 -0.833,-0.833c-0.834,-0.417 -1.25,-0.833 -2.084,-0.833l-2.5,-0c-0.833,-0 -1.666,0.416 -2.083,0.833c-0.417,0.417 -0.417,0.417 -0.833,0.833c-0.834,0.834 -1.25,1.667 -1.667,2.917l0,1.25c0,3.333 2.5,5.833 5.833,5.833c3.334,0 5.834,-2.5 5.834,-5.833l-0,-1.25c-0,-1.25 -0.834,-2.083 -1.667,-2.917Z" style="fill:#3c3b40;fill-rule:nonzero;"/><circle cx="157.083" cy="466.25" r="5.833" style="fill:#3c3b40;"/><circle cx="127.083" cy="496.25" r="5.833" style="fill:#3c3b40;"/><circle cx="187.083" cy="496.25" r="5.833" style="fill:#3c3b40;"/><circle cx="127.083" cy="436.25" r="5.833" style="fill:#3c3b40;"/><circle cx="187.083" cy="436.25" r="5.833" style="fill:#3c3b40;"/><path d="M101.25,522.083c-0.417,-0.416 -0.417,-0.416 -0.833,-0.833c-0.834,-0.417 -1.25,-0.833 -2.084,-0.833l-2.5,-0c-0.416,-0 -0.833,-0 -1.25,0.416c-0.416,0 -0.833,0.417 -0.833,0.417c-0.417,0.417 -0.417,0.417 -0.833,0.833c-0.834,0.834 -1.25,1.667 -1.667,2.917l0,1.25c0,2.5 1.667,4.583 3.75,5.417c0.833,0.416 1.667,0.416 2.5,0.416c1.25,0 2.5,-0.416 3.333,-0.833c1.667,-1.25 2.5,-2.917 2.5,-5l0,-1.25c-0.416,-1.25 -1.25,-2.083 -2.083,-2.917Z" style="fill:#3c3b40;fill-rule:nonzero;"/><path d="M100.417,461.25c-0.834,-0.833 -2.084,-0.833 -3.334,-0.833c-0.833,-0 -1.666,-0 -2.5,0.416c-2.083,0.834 -3.75,2.917 -3.75,5.417c0,2.5 1.667,4.583 3.75,5.417c0.834,0.416 1.667,0.416 2.5,0.416c1.25,0 2.5,-0.416 3.334,-0.833c1.666,-1.25 2.5,-2.917 2.5,-5c-0,-2.083 -0.834,-4.167 -2.5,-5Z" style="fill:#3c3b40;fill-rule:nonzero;"/><circle cx="127.083" cy="556.25" r="5.833" style="fill:#3c3b40;"/><circle cx="187.083" cy="556.25" r="5.833" style="fill:#3c3b40;"/><path d="M37.083,160c-2.083,0 -3.75,1.25 -5,2.5c-0.833,0.833 -0.833,2.083 -0.833,3.333c0,0.834 0,1.667 0.417,2.5c0.833,2.084 2.916,3.75 5.416,3.75c2.5,0 4.584,-1.666 5.417,-3.75c0.417,-0.833 0.417,-1.666 0.417,-2.5c-0,-1.25 -0.417,-2.5 -0.834,-3.333c-1.25,-1.25 -2.916,-2.5 -5,-2.5Z" style="fill:#3c3b40;fill-rule:nonzero;"/><path d="M97.083,112.083c1.25,0 2.5,-0.416 3.334,-0.833c0.416,-0.417 0.833,-0.417 1.25,-0.833l-9.167,-0c0.417,0.833 1.25,1.25 2.083,1.666l2.5,0Z" style="fill:#3c3b40;fill-rule:nonzero;"/><path d="M41.667,110l-8.75,0c1.25,1.25 2.5,2.083 4.583,2.083c1.25,0 2.917,-0.833 4.167,-2.083Z" style="fill:#3c3b40;fill-rule:nonzero;"/><path d="M10.417,131.25l-0,10c1.666,-1.25 2.5,-2.917 2.5,-5c-0,-2.083 -0.834,-3.75 -2.5,-5Z" style="fill:#3c3b40;fill-rule:nonzero;"/><circle cx="67.083" cy="136.25" r="5.833" style="fill:#3c3b40;"/><path d="M41.25,282.083c-0.417,-0.416 -0.417,-0.416 -0.833,-0.833c-0.834,-0.417 -1.25,-0.833 -2.084,-0.833l-2.5,-0c-0.833,-0 -1.666,0.416 -2.083,0.833c-0.417,0.417 -0.417,0.417 -0.833,0.833c-0.834,0.834 -1.25,1.667 -1.667,2.917l0,1.25c0,3.333 2.5,5.833 5.833,5.833c3.334,0 5.834,-2.5 5.834,-5.833l-0,-1.25c-0,-1.25 -0.834,-2.083 -1.667,-2.917Z" style="fill:#3c3b40;fill-rule:nonzero;"/><circle cx="37.083" cy="226.25" r="5.833" style="fill:#3c3b40;"/><path d="M10.417,251.25l-0,10c1.666,-1.25 2.5,-2.917 2.5,-5c-0,-2.083 -0.834,-3.75 -2.5,-5Z" style="fill:#3c3b40;fill-rule:nonzero;"/><circle cx="67.083" cy="256.25" r="5.833" style="fill:#3c3b40;"/><path d="M10.417,191.25l-0,10c1.666,-1.25 2.5,-2.917 2.5,-5c-0,-2.083 -0.834,-3.75 -2.5,-5Z" style="fill:#3c3b40;fill-rule:nonzero;"/><circle cx="67.083" cy="196.25" r="5.833" style="fill:#3c3b40;"/><path d="M37.083,400c-2.083,0 -3.75,1.25 -5,2.5c-0.833,0.833 -0.833,2.083 -0.833,3.333c0,0.834 0,1.667 0.417,2.5c0.833,2.084 2.916,3.75 5.416,3.75c2.5,0 4.584,-1.666 5.417,-3.75c0.417,-0.833 0.417,-1.666 0.417,-2.5c-0,-1.25 -0.417,-2.5 -0.834,-3.333c-1.25,-1.25 -2.916,-2.5 -5,-2.5Z" style="fill:#3c3b40;fill-rule:nonzero;"/><circle cx="37.083" cy="346.25" r="5.833" style="fill:#3c3b40;"/><path d="M10.417,371.25l-0,10c1.666,-1.25 2.5,-2.917 2.5,-5c-0,-2.083 -0.834,-3.75 -2.5,-5Z" style="fill:#3c3b40;fill-rule:nonzero;"/><circle cx="67.083" cy="376.25" r="5.833" style="fill:#3c3b40;"/><path d="M10.417,311.25l-0,10c1.666,-1.25 2.5,-2.917 2.5,-5c-0,-2.083 -0.834,-3.75 -2.5,-5Z" style="fill:#3c3b40;fill-rule:nonzero;"/><circle cx="67.083" cy="316.25" r="5.833" style="fill:#3c3b40;"/><path d="M41.25,522.083c-0.417,-0.416 -0.417,-0.416 -0.833,-0.833c-0.834,-0.417 -1.25,-0.833 -2.084,-0.833l-2.5,-0c-0.833,-0 -1.666,0.416 -2.083,0.833c-0.417,0.417 -0.417,0.417 -0.833,0.833c-0.834,0.834 -1.25,1.667 -1.667,2.917l0,1.25c0,1.667 0.417,2.917 1.667,4.167c0.833,0.416 1.666,1.25 2.5,1.666c0.416,0.417 1.25,0.417 2.083,0.417c3.333,0 5.833,-2.5 5.833,-5.833l0,-1.25c-0.416,-1.667 -1.25,-2.5 -2.083,-3.334Z" style="fill:#3c3b40;fill-rule:nonzero;"/><circle cx="37.083" cy="466.25" r="5.833" style="fill:#3c3b40;"/><path d="M10.417,491.25l-0,6.25c-0,1.25 -0,2.5 0.416,3.333c1.25,-1.25 2.5,-2.916 2.5,-4.583c-0.416,-2.083 -1.25,-3.75 -2.916,-5Z" style="fill:#3c3b40;fill-rule:nonzero;"/><circle cx="67.083" cy="496.25" r="5.833" style="fill:#3c3b40;"/><path d="M10.417,431.25l-0,10c1.666,-1.25 2.5,-2.917 2.5,-5c-0,-2.083 -0.834,-3.75 -2.5,-5Z" style="fill:#3c3b40;fill-rule:nonzero;"/><circle cx="67.083" cy="436.25" r="5.833" style="fill:#3c3b40;"/></g><path d="M10.417,449.167c29.583,85.833 198.333,75 277.5,-6.25c82.5,-85 134.583,-179.167 105.833,-332.917l-383.333,0l-0,339.167Z" style="fill:#616169;fill-rule:nonzero;"/><path d="M233.333,582.917c-113.333,-0 -233.333,-30 -233.333,-85.417l0,-397.5l466.667,0l-0,397.5c-0,55.417 -120,85.417 -233.334,85.417Zm-212.5,-462.5l0,376.666c0,30.834 87.084,64.584 212.5,64.584c125.417,-0 212.5,-34.167 212.5,-64.584l0,-376.666l-425,-0Z" style="fill:#282f39;fill-rule:nonzero;"/><path d="M406.25,62.917c5,-15.417 4.583,-29.167 -1.25,-31.25c-6.25,-2.084 -15.417,7.916 -21.667,22.916c-39.583,-12.083 -92.083,-19.583 -149.583,-19.583c-30.833,0 -60.417,2.083 -87.083,5.833c-0,-0.833 -0.417,-1.25 -0.417,-2.083c-3.333,-17.083 -11.667,-30 -18.333,-28.75c-6.667,1.25 -9.167,16.25 -5.834,33.75c0,0.417 0,0.833 0.417,1.25c-18.75,3.75 -35.417,8.333 -50.417,13.333c-2.5,-2.083 -5,-4.166 -7.916,-5.833c-14.584,-9.583 -29.584,-13.333 -33.334,-7.5c-3.333,5 3.334,15.417 15,24.583c-22.083,11.667 -35.416,25.417 -35.416,40.417c-0,41.667 100,75 222.916,75c123.334,0 222.917,-33.75 222.917,-75c0,-17.917 -18.75,-34.167 -50,-47.083Z" style="fill:#fbfbe8;fill-rule:nonzero;"/><path d="M406.25,62.917c5,-15.417 4.583,-29.167 -1.25,-31.25c-6.25,-2.084 -15.417,7.916 -21.667,22.916c-0.416,0 -0.833,-0.416 -1.25,-0.416c2.084,4.166 3.334,8.333 3.334,12.916c-0,41.667 -100,75 -222.917,75c-57.083,0 -109.167,-7.083 -148.333,-19.166c18.333,35.416 109.583,62.083 219.583,62.083c123.333,0 222.917,-33.75 222.917,-75c-0.417,-17.917 -19.167,-34.167 -50.417,-47.083Z" style="fill:#ece3ac;fill-rule:nonzero;"/><g><path d="M401.25,42.083c-0.417,-0.416 -0.417,-0.416 -0.833,-0.833c-0.834,-0.417 -1.25,-0.833 -2.084,-0.833l-2.5,-0c-0.833,-0 -1.666,0.416 -2.083,0.833c-0.417,0.417 -0.417,0.417 -0.833,0.833c-0.834,0.834 -1.25,1.667 -1.667,2.917l-0,1.25c-0,3.333 2.5,5.833 5.833,5.833c3.334,0 5.834,-2.5 5.834,-5.833l-0,-1.25c-0,-1.25 -0.834,-2.083 -1.667,-2.917Z" style="fill:#ccc697;fill-rule:nonzero;"/><path d="M392.083,162.917c2.084,-0.417 4.584,-1.25 7.084,-2.084c-0.417,-0.416 -1.25,-0.416 -2.084,-0.416c-2.083,-0.417 -3.75,0.833 -5,2.5Z" style="fill:#ccc697;fill-rule:nonzero;"/><path d="M454.583,100.833c-2.083,0.834 -3.333,2.917 -3.333,5.417c0,2.917 2.083,5.417 5,5.833l0,-2.083c0,-2.917 -0.417,-6.25 -1.667,-9.167Z" style="fill:#ccc697;fill-rule:nonzero;"/><circle cx="397.083" cy="106.25" r="5.833" style="fill:#ccc697;"/><circle cx="367.083" cy="136.25" r="5.833" style="fill:#ccc697;"/><circle cx="427.083" cy="136.25" r="5.833" style="fill:#ccc697;"/><path d="M427.083,82.083c3.334,0 5.834,-2.5 5.834,-5.416c-2.917,-2.084 -5.834,-3.75 -9.167,-5.417c-1.667,1.25 -2.917,2.917 -2.917,5c0.417,3.333 2.917,5.833 6.25,5.833Z" style="fill:#ccc697;fill-rule:nonzero;"/><path d="M340.417,161.25c-0.834,-0.833 -2.084,-0.833 -3.334,-0.833c-2.083,-0 -3.75,1.25 -5,2.5c-0.833,0.833 -0.833,2.083 -0.833,3.333c-0,0.833 -0,1.667 0.417,2.5c0.833,2.083 2.916,3.75 5.416,3.75c1.25,0 2.5,-0.417 3.334,-0.833c0.833,-0.417 1.666,-1.667 2.083,-2.5c0.417,-0.834 0.417,-1.667 0.417,-2.5c-0,-1.25 -0.417,-2.5 -0.834,-3.334c-0.416,-1.25 -0.833,-1.666 -1.666,-2.083Z" style="fill:#ccc697;fill-rule:nonzero;"/><path d="M277.083,160c-2.083,0 -3.75,1.25 -5,2.5c-0.833,0.833 -0.833,2.083 -0.833,3.333c-0,0.834 -0,1.667 0.417,2.5c0.833,2.084 2.916,3.75 5.416,3.75c2.5,0 4.584,-1.666 5.417,-3.75c0.417,-0.833 0.417,-1.666 0.417,-2.5c-0,-1.25 -0.417,-2.5 -0.834,-3.333c-1.25,-1.25 -2.916,-2.5 -5,-2.5Z" style="fill:#ccc697;fill-rule:nonzero;"/><path d="M241.25,137.5c0.417,2.917 2.917,5 5.833,5c3.334,0 5.834,-2.5 5.834,-5.833l-0,-0.417c-3.75,0 -7.5,0.417 -11.667,1.25Z" style="fill:#ccc697;fill-rule:nonzero;"/><circle cx="307.083" cy="136.25" r="5.833" style="fill:#ccc697;"/><path d="M218.333,160.417l-1.25,-0c-0.833,-0 -1.666,-0 -2.5,0.416c-1.25,0.417 -2.083,1.25 -2.5,2.084c-0.833,0.833 -0.833,2.083 -0.833,3.333c-0,0.833 -0,1.667 0.417,2.5c0.416,1.25 1.666,2.5 3.333,3.333c0.833,0.417 1.667,0.417 2.5,0.417l1.25,0c2.083,-0.417 3.75,-1.667 4.167,-3.333c0.416,-0.834 0.416,-1.667 0.416,-2.5c0,-1.25 -0.416,-2.5 -0.833,-3.334c-1.25,-1.666 -2.5,-2.916 -4.167,-2.916Z" style="fill:#ccc697;fill-rule:nonzero;"/><path d="M157.083,160c-2.083,0 -3.75,1.25 -5,2.5c-0.833,0.833 -0.833,2.083 -0.833,3.333c0,0.834 0,1.667 0.417,2.5c0.833,2.084 2.916,3.75 5.416,3.75c2.5,0 4.584,-1.666 5.417,-3.75c0.417,-0.833 0.417,-1.666 0.417,-2.5c-0,-1.25 -0.417,-2.5 -0.834,-3.333c-1.25,-1.25 -2.916,-2.5 -5,-2.5Z" style="fill:#ccc697;fill-rule:nonzero;"/><path d="M127.083,142.083c0.834,0 2.084,-0.416 2.917,-0.833c-2.083,0 -4.167,-0.417 -6.25,-0.417c0.833,0.834 2.083,1.25 3.333,1.25Z" style="fill:#ccc697;fill-rule:nonzero;"/><path d="M187.083,142.083c0.834,0 1.667,0 2.5,-0.416l-4.166,-0c0.416,0.416 0.833,0.416 1.666,0.416Z" style="fill:#ccc697;fill-rule:nonzero;"/><path d="M100.417,161.25c-0.834,-0.833 -2.084,-0.833 -3.334,-0.833c-0.833,-0 -1.666,-0 -2.5,0.416c-1.25,0.417 -2.083,1.25 -2.5,2.084c-0.833,0.833 -0.833,2.083 -0.833,3.333c-0,0.833 -0,1.25 0.417,2.083c1.666,0.417 3.75,0.834 5.833,1.667c1.25,0.417 2.5,0.833 3.75,0.833c0.833,-0.416 1.25,-1.25 1.667,-2.083c0.416,-0.833 0.416,-1.667 0.416,-2.5c0,-1.25 -0.416,-2.5 -0.833,-3.333c-0.833,-0.834 -1.25,-1.25 -2.083,-1.667Z" style="fill:#ccc697;fill-rule:nonzero;"/><path d="M61.667,134.167c-0.417,0.833 -0.417,1.25 -0.417,2.083c-0,3.333 2.5,5.833 5.833,5.833c3.334,0 5.834,-2.5 5.834,-5.833c-3.75,-0.833 -7.5,-1.667 -11.25,-2.083Z" style="fill:#ccc697;fill-rule:nonzero;"/></g><path d="M233.333,195.833c-113.333,0 -233.333,-30 -233.333,-85.416c0,-11.25 5.417,-27.084 28.333,-42.5c-9.166,-10.417 -11.666,-20.834 -6.25,-28.334c1.667,-2.916 6.25,-7.5 15.417,-7.5c9.167,0 20.833,4.584 32.083,12.084c1.25,0.833 2.5,1.666 4.167,2.916c11.25,-3.75 23.333,-7.083 36.25,-10c-0.833,-6.25 -0.417,-12.5 0.417,-17.5c2.5,-14.583 10.416,-18.333 15,-19.166c0.833,-0 2.083,-0.417 2.916,-0.417c12.917,0 21.25,14.583 25.834,29.583c25.416,-3.333 51.666,-4.583 79.166,-4.583c52.917,0 103.334,6.25 144.167,17.5c5,-9.167 13.75,-21.25 25.417,-21.25c2.083,-0 3.75,0.417 5.416,0.833c10.417,3.75 14.167,17.084 10.417,35c39.583,18.334 47.917,39.167 47.917,53.334c-0,55.416 -120,85.416 -233.334,85.416Zm-189.166,-141.666c1.666,2.083 4.583,4.583 7.916,7.5l12.917,10l-14.167,7.5c-19.166,10 -29.583,21.25 -29.583,31.25c-0,30.833 87.083,64.583 212.5,64.583c125.417,0 212.5,-34.167 212.5,-64.583c0,-12.5 -15.833,-26.25 -43.75,-37.917l-9.167,-3.75l2.917,-9.167c1.667,-5.416 2.5,-9.583 2.917,-12.916c-2.084,2.916 -4.167,6.666 -6.667,12.083l-3.75,8.75l-9.167,-2.917c-40,-12.083 -92.083,-19.166 -146.666,-19.166c-29.584,-0 -58.334,2.083 -85.417,5.833l-10,1.25l-1.667,-10c0,-0.833 -0.416,-1.25 -0.416,-1.667c-1.25,-6.666 -3.334,-11.666 -5,-15c-0.417,3.75 -0,9.167 1.25,15.834l2.5,11.666l-10.417,2.084c-17.917,3.333 -34.583,7.916 -48.75,12.916l-5.833,2.084l-4.584,-4.167c-2.083,-1.667 -4.166,-3.333 -6.666,-5c-5,-3.75 -9.584,-5.833 -13.75,-7.083Z" style="fill:#282f39;fill-rule:nonzero;"/><path d="M52.5,370.833c-7.917,-55.416 -9.167,-185.416 18.333,-165.833c32.084,22.917 -2.5,275.833 -18.333,165.833Z" style="fill:#fff;fill-rule:nonzero;"/><g><path d="M334.583,72.917c0,-0 -28.333,45.833 -70,81.25c0,-0 72.084,1.25 95.834,-33.334c23.75,-34.583 -25.834,-47.916 -25.834,-47.916Z" style="fill:#55682f;fill-rule:nonzero;"/><path d="M327.917,83.75c-8.75,12.917 -25.417,35 -47.084,56.25c17.5,-1.667 45,-7.5 56.667,-24.167c11.667,-17.083 0,-27.083 -9.583,-32.083Z" style="fill:#96b93d;fill-rule:nonzero;"/><path d="M265.833,164.583l-0.833,0c-4.167,0 -8.333,-2.916 -9.583,-7.083c-1.667,-4.167 -0.417,-8.75 2.916,-11.25c40,-33.75 67.5,-78.333 67.5,-78.75c2.5,-3.75 7.084,-5.833 11.667,-4.583c3.333,0.833 30.833,8.75 38.333,29.583c2.917,7.5 3.75,19.583 -6.666,34.167c-25,36.25 -90.417,37.916 -103.334,37.916Zm73.334,-78.75c-7.5,11.25 -23.75,33.75 -45.417,56.25c22.5,-3.333 47.917,-11.25 58.75,-26.666c6.25,-9.167 4.583,-13.75 4.167,-15c-2.5,-6.667 -10.834,-11.667 -17.5,-14.584Z" style="fill:#282f39;fill-rule:nonzero;"/></g><g><path d="M265,110c0,0 -90.833,-8.75 -147.917,-12.5c-29.166,-1.667 -51.25,32.5 -51.25,32.5c0,0 85,30.417 167.917,24.167l31.25,-44.167Z" style="fill:#f2685d;fill-rule:nonzero;"/><path d="M234.167,107.083l-19.167,27.084c-53.333,4.166 -107.917,-7.084 -139.583,-15.417c-5.834,6.25 -9.167,11.667 -9.167,11.667c-0,-0 85,30.416 167.917,24.166l31.666,-44.166c-0.833,-0.417 -13.333,-1.25 -31.666,-3.334Z" style="fill:#ea4736;fill-rule:nonzero;"/><g><path d="M225.833,130.417c5.417,-7.917 11.25,-15 17.5,-22.5c-7.083,-0.834 -15,-1.25 -24.166,-2.084c-2.5,3.334 -5.417,7.084 -7.5,10.417c-8.75,12.5 -17.084,25 -24.167,38.333c7.5,0.417 15,0.834 22.5,0.834c5,-8.334 10.417,-16.667 15.833,-25Z" style="fill:#f6968c;fill-rule:nonzero;"/><path d="M180,123.75c3.75,-6.667 7.5,-13.333 11.25,-20c-5.417,-0.417 -11.25,-0.833 -16.667,-1.25c-0.833,1.667 -2.083,2.917 -2.916,4.583c-8.75,14.167 -15.834,28.75 -22.5,43.75c5.416,0.834 11.25,1.667 16.666,2.084c4.584,-10 9.167,-20 14.167,-29.167Z" style="fill:#f6968c;fill-rule:nonzero;"/><path d="M135,120.417c3.75,-7.084 7.083,-13.75 10.833,-20.834c-9.583,-0.833 -18.75,-1.25 -27.083,-2.083c-2.083,3.333 -4.167,6.667 -5.833,9.583c-6.25,10.417 -12.084,20.834 -17.084,31.667c7.917,2.083 17.084,4.167 27.5,6.25c3.334,-7.917 7.5,-16.25 11.667,-24.583Z" style="fill:#f6968c;fill-rule:nonzero;"/><path d="M75.833,133.75c2.5,-7.917 5.417,-15.417 7.917,-23.333c-11.25,9.166 -18.333,20 -18.333,20c-0,-0 3.75,1.25 10.416,3.333Z" style="fill:#f6968c;fill-rule:nonzero;"/></g><path d="M209.583,165.833c-75.416,0 -144.166,-24.583 -147.083,-25.416c-2.917,-1.25 -5.417,-3.334 -6.25,-6.25c-0.833,-2.917 -0.417,-6.25 1.25,-9.167c0.833,-1.667 25.833,-39.583 60.833,-37.5c56.667,3.333 147.5,12.5 148.334,12.5c3.75,0.417 7.083,2.5 8.333,6.25c1.667,3.333 1.25,7.5 -0.833,10.417l-31.667,44.166c-1.667,2.5 -4.583,4.167 -7.5,4.167c-8.75,0.417 -17.083,0.833 -25.417,0.833Zm-126.25,-40.833c23.75,7.083 73.75,19.583 125.834,19.583c6.25,0 12.5,0 18.333,-0.416l18.333,-25.417c-29.166,-2.917 -88.333,-8.333 -129.583,-10.833c-12.5,-0.417 -24.583,8.75 -32.917,17.083Z" style="fill:#282f39;fill-rule:nonzero;"/></g><g><path d="M150.833,72.917c0,-0 120.834,16.666 129.584,16.666c8.75,0 22.5,-29.166 22.5,-29.166c-0,-0 -89.167,-17.084 -152.084,12.5Z" style="fill:#fde471;fill-rule:nonzero;"/><path d="M280.417,100c-9.167,0 -110.834,-14.167 -131.25,-16.667c-4.584,-0.833 -8.334,-4.166 -8.75,-8.75c-0.834,-4.583 1.666,-9.166 5.833,-10.833c25.833,-12.083 58.75,-18.333 97.5,-18.333c34.167,-0 60,5 61.25,5c3.333,0.416 5.833,2.5 7.5,5.416c1.667,2.917 1.667,6.25 -0,9.167c-10.833,23.333 -21.667,35 -32.083,35Zm-80.417,-30.833c35.417,4.583 70.417,9.166 78.75,10c2.083,-1.667 4.583,-5.417 7.917,-10.417c-10.417,-1.25 -25.834,-2.5 -42.917,-2.5c-15.833,0 -30.417,0.833 -43.75,2.917Z" style="fill:#282f39;fill-rule:nonzero;"/></g></g></g></svg>