<?xml version="1.0" encoding="UTF-8" standalone="no"?><!DOCTYPE svg PUBLIC "-//W3C//DTD SVG 1.1//EN" "http://www.w3.org/Graphics/SVG/1.1/DTD/svg11.dtd"><svg width="100%" height="100%" viewBox="0 0 427 626" version="1.1" xmlns="http://www.w3.org/2000/svg" xmlns:xlink="http://www.w3.org/1999/xlink" xml:space="preserve" xmlns:serif="http://www.serif.com/" style="fill-rule:evenodd;clip-rule:evenodd;stroke-linejoin:round;stroke-miterlimit:2;"><g><path d="M378.386,86.683c-167.083,-31.667 -300.416,55.416 -303.333,89.166c-12.5,37.917 50.833,93.334 141.667,123.334c90.833,30 174.583,23.75 187.5,-14.584c37.916,-115 -25.834,-197.916 -25.834,-197.916Z" style="fill:#474952;fill-rule:nonzero;"/><path d="M213.386,309.183c-97.083,-32.084 -161.666,-91.25 -148.75,-135.417c2.084,-15.417 18.75,-31.25 32.084,-41.667c57.083,-43.75 167.083,-77.916 283.333,-55.833l3.75,0.833l2.5,3.334c2.917,3.75 66.667,88.75 27.083,207.916c-14.166,44.167 -102.083,53.334 -200,20.834Zm159.167,-213.334c-123.75,-22.083 -222.917,22.5 -262.5,52.917c-18.75,14.167 -24.167,24.583 -24.167,27.917l0,1.25l-0.416,1.25c-9.167,27.916 43.75,80 135,110.416c91.25,30 165,20 174.166,-7.916c31.25,-96.25 -11.666,-170 -22.083,-185.834Z" style="fill:#282f39;fill-rule:nonzero;"/><path d="M216.72,299.599c-90.834,-30 -154.167,-85.416 -141.667,-123.333c-92.083,233.333 -71.667,411.667 -24.167,434.167c80.834,38.333 280.834,-167.917 350.417,-320c-18.333,32.916 -98.333,37.5 -184.583,9.166Z" style="fill:#474952;fill-rule:nonzero;"/><g><path d="M342.136,330.016c-2.083,-0.833 -4.166,-0.417 -5.416,0.833c-0.834,0.834 -1.667,1.667 -2.084,2.917c-0.416,0.833 -0.416,1.667 -0.416,2.5c-0,2.5 1.666,4.583 4.166,5.417c2.5,0.833 5,-0 6.25,-1.667c0.417,-0.417 0.834,-1.25 1.25,-2.083c0.417,-1.25 0.417,-2.5 0,-3.334c-0.416,-2.083 -2.083,-3.75 -3.75,-4.583Z" style="fill:#3c3b40;fill-rule:nonzero;"/><circle cx="377.97" cy="316.683" r="5.833" style="fill:#3c3b40;"/><path d="M283.803,315.433c-2.083,-0.417 -3.75,-0.417 -5.833,-0.834c-0,0.417 -0.417,0.417 -0.417,0.834c-0.417,0.833 -0.417,1.666 -0.417,2.5c0,2.5 1.667,4.583 4.167,5.416c1.25,0.417 2.5,0.417 3.333,0c1.25,-0.416 2.084,-0.833 2.917,-1.666c0.417,-0.417 0.833,-1.25 1.25,-2.084c0.417,-0.833 0.417,-2.083 0,-2.916c-1.667,-0.834 -3.333,-1.25 -5,-1.25Z" style="fill:#3c3b40;fill-rule:nonzero;"/><path d="M297.136,446.683c0,0.416 -0.416,0.833 -0.416,1.25c-0.417,0.833 -0.417,2.083 -0,2.916c0.833,-0.833 1.25,-1.666 2.083,-2.5c1.25,-1.666 2.5,-2.916 3.75,-4.583c-2.5,0 -4.167,1.25 -5.417,2.917Z" style="fill:#3c3b40;fill-rule:nonzero;"/><circle cx="321.303" cy="392.933" r="5.833" style="fill:#3c3b40;"/><circle cx="283.386" cy="411.683" r="5.833" style="fill:#3c3b40;"/><circle cx="302.136" cy="355.016" r="5.833" style="fill:#3c3b40;"/><path d="M353.386,372.099c-0.416,1.25 -0.416,2.084 0,3.334c1.667,-2.5 3.334,-5 4.584,-7.084c-2.084,0 -3.75,1.25 -4.584,3.75Z" style="fill:#3c3b40;fill-rule:nonzero;"/><path d="M250.053,427.099c-0.833,-0.833 -1.667,-1.666 -2.917,-2.083c-2.916,-0.833 -5.833,0.417 -7.083,2.5c0,0.417 -0.417,0.833 -0.417,1.25c-1.25,3.333 0.834,6.667 3.75,7.5c1.25,0.417 2.5,0.417 3.334,0c1.666,-0.417 3.333,-2.083 4.166,-3.75c0,-0.417 0.417,-0.833 0.417,-1.25c0.417,-1.25 -0.417,-2.917 -1.25,-4.167Z" style="fill:#3c3b40;fill-rule:nonzero;"/><path d="M268.803,370.433c-0.833,-0.834 -1.667,-1.667 -2.917,-2.084c-3.333,-1.25 -6.666,0.834 -7.5,3.75c-1.25,3.334 0.834,6.667 3.75,7.5c1.25,0.417 2.5,0.417 3.334,0c1.666,-0.416 3.333,-2.083 4.166,-3.75c0.834,-2.083 0.417,-4.166 -0.833,-5.416Z" style="fill:#3c3b40;fill-rule:nonzero;"/><circle cx="264.22" cy="468.766" r="5.833" style="fill:#3c3b40;"/><path d="M231.303,484.183c-0.833,-0.834 -1.667,-1.667 -2.917,-2.084c-3.333,-1.25 -6.666,0.834 -7.5,3.75c-1.25,3.334 0.834,6.667 3.75,7.5c1.25,0.417 2.5,0.417 3.334,0c1.666,-0.416 3.333,-2.083 4.166,-3.75c0.834,-1.666 0.417,-3.75 -0.833,-5.416Z" style="fill:#3c3b40;fill-rule:nonzero;"/><path d="M190.47,406.266c-2.917,-0.833 -5.834,0.417 -7.084,2.5c0,0.417 -0.416,0.833 -0.416,1.25c-1.25,3.333 0.833,6.667 3.75,7.5c3.333,1.25 6.666,-0.833 7.5,-3.75c-0,-0.417 0.416,-0.833 0.416,-1.25c0,-2.5 -1.666,-5.417 -4.166,-6.25Z" style="fill:#3c3b40;fill-rule:nonzero;"/><circle cx="207.136" cy="355.016" r="5.833" style="fill:#3c3b40;"/><circle cx="169.22" cy="374.183" r="5.833" style="fill:#3c3b40;"/><circle cx="226.303" cy="392.933" r="5.833" style="fill:#3c3b40;"/><circle cx="188.386" cy="317.099" r="5.833" style="fill:#3c3b40;"/><circle cx="245.053" cy="335.849" r="5.833" style="fill:#3c3b40;"/><path d="M134.636,387.933c-0.416,-0 -0.833,-0.417 -1.25,-0.417c-0.833,-0.417 -1.666,-0.417 -2.5,-0.417c-2.083,0 -3.75,1.25 -4.583,2.917c0,0.417 -0.417,0.833 -0.417,1.25c-0.833,2.5 0,5 1.667,6.25c0.417,0.417 1.25,0.833 2.083,1.25c0.417,0 0.834,0.417 1.25,0.417c2.917,0.416 5.417,-1.25 6.25,-4.167c0,-0.417 0.417,-0.833 0.417,-1.25c0,-2.083 -0.833,-4.583 -2.917,-5.833Z" style="fill:#3c3b40;fill-rule:nonzero;"/><path d="M153.386,330.849c-0.416,0 -0.833,-0.416 -1.25,-0.416c-0.833,-0.417 -1.666,-0.417 -2.5,-0.417c-2.5,0 -4.583,1.667 -5.416,4.167c-0.834,2.5 -0,5 1.666,6.25c0.417,0.416 1.25,0.833 2.084,1.25c0.416,-0 0.833,0.416 1.25,0.416c2.916,0.417 5.416,-1.25 6.25,-4.166c1.666,-2.5 0.416,-5.417 -2.084,-7.084Z" style="fill:#3c3b40;fill-rule:nonzero;"/><path d="M229.22,303.349c-2.917,-0.833 -5.834,-1.666 -8.334,-2.5c0.834,1.25 2.084,2.5 3.75,3.334c1.25,0.416 3.334,-0 4.584,-0.834Z" style="fill:#3c3b40;fill-rule:nonzero;"/><path d="M203.803,540.016c-0.833,0.833 -1.667,1.667 -2.083,2.917c-0.417,0.833 -0.417,1.666 -0.417,2.5c0,0.833 0.417,1.25 0.417,2.083c1.25,-0.833 2.5,-2.083 3.75,-2.917c0.833,-0.833 2.083,-1.666 2.916,-2.5c0.834,-0.833 1.25,-1.25 2.084,-2.083c-0.417,-0.417 -0.834,-0.417 -1.25,-0.833c-1.667,-0.834 -3.75,-0.417 -5.417,0.833Z" style="fill:#3c3b40;fill-rule:nonzero;"/><path d="M152.553,520.433c-2.083,-0.834 -4.167,-0.417 -5.417,0.833c-0.833,0.833 -1.666,1.667 -2.083,2.917c-0.417,0.833 -0.417,1.666 -0.417,2.5c0,2.5 1.667,4.583 4.167,5.416c2.5,0.834 5,0 6.25,-1.666c0.417,-0.417 0.833,-1.25 1.25,-2.084c0.417,-1.25 0.417,-2.5 0,-3.333c-0.417,-2.5 -1.667,-4.167 -3.75,-4.583Z" style="fill:#3c3b40;fill-rule:nonzero;"/><circle cx="169.636" cy="469.183" r="5.833" style="fill:#3c3b40;"/><circle cx="131.72" cy="487.933" r="5.833" style="fill:#3c3b40;"/><circle cx="188.803" cy="507.099" r="5.833" style="fill:#3c3b40;"/><circle cx="150.47" cy="431.266" r="5.833" style="fill:#3c3b40;"/><circle cx="207.553" cy="450.016" r="5.833" style="fill:#3c3b40;"/><path d="M96.72,502.099c-0.417,0 -0.834,-0.416 -1.25,-0.416c-0.834,-0.417 -1.667,-0.417 -2.5,-0.417c-1.25,0 -2.084,0.417 -3.334,1.25c-1.25,0.833 -1.666,1.667 -2.083,2.917c-0.417,0.833 -0.417,1.666 -0.417,2.5c0,1.666 0.834,2.916 2.084,4.166c0.416,0.417 1.25,0.834 2.083,1.25c0.417,0 0.833,0.417 1.25,0.417c2.083,0.417 3.75,-0.417 5.417,-2.083c0.416,-0.417 0.833,-1.25 1.25,-2.084c0.416,-1.25 0.416,-2.5 -0,-3.333c-0,-2.083 -1.25,-3.75 -2.5,-4.167Z" style="fill:#3c3b40;fill-rule:nonzero;"/><path d="M115.47,445.016c-0.417,0 -0.834,-0.417 -1.25,-0.417c-0.834,-0.416 -1.667,-0.416 -2.5,-0.416c-2.5,-0 -4.584,1.666 -5.417,4.166c-0.833,2.5 0,5 1.667,6.25c0.416,0.417 1.25,0.834 2.083,1.25c0.417,0 0.833,0.417 1.25,0.417c2.917,0.417 5.417,-1.25 6.25,-4.167c1.667,-2.916 0.417,-5.833 -2.083,-7.083Z" style="fill:#3c3b40;fill-rule:nonzero;"/><circle cx="131.72" cy="582.933" r="5.833" style="fill:#3c3b40;"/><circle cx="93.803" cy="602.099" r="5.833" style="fill:#3c3b40;"/><circle cx="112.97" cy="545.016" r="5.833" style="fill:#3c3b40;"/><circle cx="169.636" cy="563.766" r="5.833" style="fill:#3c3b40;"/><path d="M77.97,558.766c-0.417,0 -0.834,-0.417 -1.25,-0.417c-0.834,-0.416 -1.667,-0.416 -2.5,-0.416c-2.5,-0 -4.584,1.666 -5.417,4.166c-0.833,2.5 0,5 1.667,6.25c0.416,0.417 1.25,0.834 2.083,1.25c0.417,0 0.833,0.417 1.25,0.417c2.917,0.417 5.417,-1.25 6.25,-4.167c1.25,-2.5 0.417,-5.416 -2.083,-7.083Z" style="fill:#3c3b40;fill-rule:nonzero;"/><path d="M114.22,254.599c-2.084,-0.833 -4.167,-0.416 -5.417,0.834c-0.833,0.833 -1.667,1.666 -2.083,2.916c-0.417,0.834 -0.417,1.667 -0.417,2.5c0,2.5 1.667,4.584 4.167,5.417c2.5,0.833 5,0 6.25,-1.667c0.416,-0.416 0.833,-1.25 1.25,-2.083c0.416,-1.25 0.416,-2.5 -0,-3.333c-0.417,-2.084 -1.667,-3.75 -3.75,-4.584Z" style="fill:#3c3b40;fill-rule:nonzero;"/><path d="M91.303,228.349c1.25,0.417 2.083,0.417 3.333,0c-2.5,-2.5 -4.583,-5.416 -6.666,-7.916l-0,0.416c-1.667,2.917 0.416,6.25 3.333,7.5Z" style="fill:#3c3b40;fill-rule:nonzero;"/><path d="M60.053,237.933c-0.833,-0.834 -1.667,-1.667 -2.917,-2.084c-1.25,-0.416 -2.5,-0.416 -3.75,0c-0.416,1.667 -1.25,3.334 -1.666,4.584c-0.417,1.666 -0.834,3.333 -1.667,4.583c0.833,0.833 1.667,1.667 2.917,2.083c1.25,0.417 2.5,0.417 3.333,0c1.25,-0.416 2.083,-0.833 2.917,-1.666c0.416,-0.417 0.833,-1.25 1.25,-2.084c0.416,-1.25 0.416,-2.5 -0,-3.333c0.416,-0.833 -0,-1.667 -0.417,-2.083Z" style="fill:#3c3b40;fill-rule:nonzero;"/><path d="M73.803,190.433c0,-1.667 -0.417,-2.917 -0.417,-4.584c0,-2.5 0.417,-5 0.834,-7.5l-0.417,0c-1.25,3.334 -2.5,7.084 -4.167,10.417c0.417,0.417 1.25,0.833 2.084,1.25c1.25,0.417 1.666,0.417 2.083,0.417Z" style="fill:#3c3b40;fill-rule:nonzero;"/><path d="M76.303,368.766c-2.917,-0.833 -5.833,0.417 -7.083,2.5c-0,0.417 -0.417,0.833 -0.417,1.25c-1.25,3.333 0.833,6.667 3.75,7.5c3.333,1.25 6.667,-0.833 7.5,-3.75c0,-0.417 0.417,-0.833 0.417,-1.25c0.416,-2.917 -1.25,-5.417 -4.167,-6.25Z" style="fill:#3c3b40;fill-rule:nonzero;"/><circle cx="93.386" cy="317.516" r="5.833" style="fill:#3c3b40;"/><circle cx="55.47" cy="336.266" r="5.833" style="fill:#3c3b40;"/><circle cx="112.553" cy="355.433" r="5.833" style="fill:#3c3b40;"/><circle cx="74.22" cy="279.599" r="5.833" style="fill:#3c3b40;"/><circle cx="131.303" cy="298.349" r="5.833" style="fill:#3c3b40;"/><path d="M22.97,353.349c-0.417,1.25 -0.417,2.5 -0.834,3.75c0,0.834 -0.416,1.667 -0.416,2.5c0.416,-0.416 0.833,-1.25 1.25,-2.083c-0,-0.417 0.416,-0.833 0.416,-1.25c0.417,-1.25 0,-2.083 -0.416,-2.917Z" style="fill:#3c3b40;fill-rule:nonzero;"/><path d="M41.303,295.016c-0.833,-0.833 -1.667,-1.667 -2.917,-2.083c-0.416,-0 -0.833,-0.417 -1.25,-0.417c-0.833,3.75 -2.083,7.5 -2.916,11.25c-0,0 0.416,0 0.416,0.417c1.25,0.416 2.5,0.416 3.334,-0c1.666,-0.417 3.333,-2.084 4.166,-3.75c0.834,-2.084 0.417,-4.167 -0.833,-5.417Z" style="fill:#3c3b40;fill-rule:nonzero;"/><path d="M165.053,283.766c0.417,0.417 1.25,0.833 2.083,1.25c0.417,0 0.834,0.417 1.25,0.417c2.084,0.416 3.75,-0.417 5.417,-2.084c0,0 0.417,-0.416 0.417,-0.833c-1.667,-0.833 -3.334,-1.667 -5.417,-2.5c-1.667,-0.833 -3.75,-1.667 -5.417,-2.5c-0.416,0.833 -0.416,1.667 -0.416,2.5c0.416,1.25 1.25,2.917 2.083,3.75Z" style="fill:#3c3b40;fill-rule:nonzero;"/><path d="M38.803,482.516c-2.083,-0.833 -4.167,-0.417 -5.417,0.833c-0.833,0.834 -1.666,1.667 -2.083,2.917c-0.417,0.833 -0.417,1.667 -0.417,2.5c0,2.5 1.667,4.583 4.167,5.417c2.5,0.833 5,-0 6.25,-1.667c0.417,-0.417 0.833,-1.25 1.25,-2.083c0.417,-1.25 0.417,-2.5 0,-3.334c-0.417,-2.5 -2.083,-3.75 -3.75,-4.583Z" style="fill:#3c3b40;fill-rule:nonzero;"/><circle cx="55.47" cy="431.266" r="5.833" style="fill:#3c3b40;"/><circle cx="17.553" cy="450.433" r="5.833" style="fill:#3c3b40;"/><circle cx="74.636" cy="469.183" r="5.833" style="fill:#3c3b40;"/><circle cx="36.72" cy="393.349" r="5.833" style="fill:#3c3b40;"/><circle cx="93.386" cy="412.099" r="5.833" style="fill:#3c3b40;"/><path d="M19.636,539.599c-1.25,-0.416 -2.916,-0.416 -4.166,0c0.833,4.167 1.666,7.917 2.5,11.667c2.5,0 4.583,-1.667 5.416,-4.167c1.25,-3.333 -0.416,-6.666 -3.75,-7.5Z" style="fill:#3c3b40;fill-rule:nonzero;"/><circle cx="37.136" cy="582.933" r="5.833" style="fill:#3c3b40;"/><circle cx="55.886" cy="526.266" r="5.833" style="fill:#3c3b40;"/></g><path d="M331.72,317.933c-32.5,1.25 -72.917,-5 -114.584,-18.75c-90.833,-30 -154.166,-85.417 -141.666,-123.334c-49.584,125.417 -66.667,235 -64.167,312.917c75.417,102.5 244.167,-78.333 320.417,-170.833Z" style="fill:#616169;fill-rule:nonzero;"/><path d="M52.97,622.099c-2.084,-0.833 -4.167,-1.666 -6.25,-2.5c-55.417,-26.25 -75.417,-209.166 18.75,-447.5l19.583,7.084c-9.167,27.916 43.75,80 135,110.416c88.333,29.167 158.333,20.834 172.5,-4.166l18.333,9.583c-33.75,73.75 -98.75,162.083 -169.166,230.417c-45.417,44.166 -130.834,115.833 -188.75,96.666Zm18.75,-407.5c-74.584,210 -54.584,367.917 -16.25,386.25c1.25,0.417 2.5,1.25 4.166,1.667c69.167,22.917 235.834,-140.417 314.167,-280.417c-37.917,12.084 -96.667,8.334 -160,-12.916c-69.167,-22.917 -122.083,-59.584 -142.083,-94.584Z" style="fill:#282f39;fill-rule:nonzero;"/><path d="M343.386,174.599c7.917,-13.333 8.75,-26.666 2.5,-30.833c-6.666,-4.167 -18.333,3.75 -26.666,17.083c-25,-11.25 -54.167,-16.666 -85,-14.583c-1.25,-14.167 -7.5,-25 -14.584,-24.583c-7.5,0.416 -13.333,12.916 -12.916,28.333c-32.5,7.083 -57.084,22.5 -74.167,37.5c-7.083,-11.667 -17.083,-17.917 -22.917,-15c-6.666,3.333 -6.25,17.917 0.834,31.667c0.833,1.666 1.666,2.916 2.5,4.166c-10.417,13.334 -15,23.334 -15,23.334c25,25.416 67.5,50.416 118.75,67.083c80.833,26.667 156.25,24.583 180.416,-3.333c7.5,-51.25 -15.416,-94.167 -53.75,-120.834Z" style="fill:#fbfbe8;fill-rule:nonzero;"/><g><g><path d="M395.886,297.516c-0.833,-0.833 -1.666,-1.667 -2.916,-2.083c-3.334,-1.25 -6.667,0.833 -7.5,3.75c-0.834,2.083 -0,4.166 1.25,5.833c1.666,-0.833 2.916,-2.083 4.166,-2.917c1.667,-1.25 3.334,-2.916 5,-4.583Z" style="fill:#ece3ac;fill-rule:nonzero;"/><path d="M355.053,219.599c-2.083,-0.833 -4.167,-0.416 -5.417,0.834c-0.833,0.833 -1.666,1.666 -2.083,2.916c-0.417,0.834 -0.417,1.667 -0.417,2.5c0,2.5 1.667,4.584 4.167,5.417c2.5,0.833 5,0 6.25,-1.667c0.417,-0.416 0.833,-1.25 1.25,-2.083c0.417,-1.25 0.417,-2.5 0,-3.333c-0.417,-2.084 -2.083,-3.75 -3.75,-4.584Z" style="fill:#ece3ac;fill-rule:nonzero;"/><circle cx="333.803" cy="187.516" r="5.833" style="fill:#ece3ac;"/><path d="M299.22,201.266c-0.417,0 -0.834,-0.417 -1.25,-0.417c-0.834,-0.416 -1.667,-0.416 -2.5,-0.416c-1.25,-0 -2.084,0.416 -3.334,1.25c-0.833,0.833 -1.666,1.666 -2.083,2.916c-0.417,0.834 -0.417,1.667 -0.417,2.5c0,1.667 0.834,2.917 2.084,4.167c0.416,0.417 1.25,0.833 2.083,1.25c0.417,0 0.833,0.417 1.25,0.417c2.083,0.416 3.75,-0.417 5.417,-2.084c0.416,-0.416 0.833,-1.25 1.25,-2.083c0.416,-1.25 0.416,-2.5 -0,-3.333c-0.417,-2.084 -1.25,-3.334 -2.5,-4.167Z" style="fill:#ece3ac;fill-rule:nonzero;"/><circle cx="334.22" cy="282.516" r="5.833" style="fill:#ece3ac;"/><circle cx="296.303" cy="301.266" r="5.833" style="fill:#ece3ac;"/><path d="M348.386,316.683c2.917,-0.417 5.834,-0.834 8.334,-1.25c-0.417,-0.417 -0.834,-0.834 -1.667,-0.834c-2.5,-0.833 -5,0 -6.667,2.084Z" style="fill:#ece3ac;fill-rule:nonzero;"/><circle cx="315.053" cy="244.599" r="5.833" style="fill:#ece3ac;"/><circle cx="372.136" cy="263.349" r="5.833" style="fill:#ece3ac;"/><path d="M280.053,258.349c-0.417,0 -0.833,-0.416 -1.25,-0.416c-0.833,-0.417 -1.667,-0.417 -2.5,-0.417c-2.5,0 -4.583,1.667 -5.417,4.167c-0.833,2.5 0,5 1.667,6.25c0.417,0.416 1.25,0.833 2.083,1.25c0.417,-0 0.834,0.416 1.25,0.416c2.917,0.417 5.417,-1.25 6.25,-4.166c1.667,-2.917 0.417,-5.834 -2.083,-7.084Z" style="fill:#ece3ac;fill-rule:nonzero;"/><path d="M240.886,182.099c-2.083,-0.833 -4.166,-0.416 -5.416,0.834c-0.834,0.833 -1.667,1.666 -2.084,2.916c-0.416,0.834 -0.416,1.667 -0.416,2.5c-0,2.5 1.666,4.584 4.166,5.417c2.5,0.833 5,0 6.25,-1.667c0.417,-0.416 0.834,-1.25 1.25,-2.083c0.417,-1.25 0.417,-2.5 0,-3.333c-0.416,-2.5 -1.666,-4.167 -3.75,-4.584Z" style="fill:#ece3ac;fill-rule:nonzero;"/><circle cx="220.053" cy="149.599" r="5.833" style="fill:#ece3ac;"/><circle cx="277.136" cy="168.766" r="5.833" style="fill:#ece3ac;"/><path d="M186.72,165.016c-0.834,-0.833 -1.667,-1.667 -2.917,-2.083c-0.833,-0.417 -1.667,-0.417 -2.5,-0.417c-1.25,0 -2.083,0.417 -3.333,1.25c-0.834,0.833 -1.667,1.667 -2.084,2.917c-0.416,0.833 -0.416,1.666 -0.416,2.5c-0,1.666 0.833,2.916 2.083,4.166c0.417,0.417 1.25,0.834 2.083,1.25c1.25,0.417 2.5,0.417 3.334,0c1.25,-0.416 2.083,-0.833 2.916,-1.666c0.417,-0.417 0.834,-1.25 1.25,-2.084c0.417,-1.25 0.417,-2.5 0,-3.333c0.417,-0.833 0.417,-1.667 -0.416,-2.5Z" style="fill:#ece3ac;fill-rule:nonzero;"/><circle cx="220.053" cy="244.599" r="5.833" style="fill:#ece3ac;"/><circle cx="182.136" cy="263.766" r="5.833" style="fill:#ece3ac;"/><circle cx="239.22" cy="282.516" r="5.833" style="fill:#ece3ac;"/><circle cx="201.303" cy="206.683" r="5.833" style="fill:#ece3ac;"/><circle cx="257.97" cy="225.433" r="5.833" style="fill:#ece3ac;"/><path d="M167.97,222.099c-0.834,-0.833 -1.667,-1.666 -2.917,-2.083c-0.833,-0.417 -1.667,-0.417 -2.5,-0.417c-2.5,0 -4.583,1.667 -5.417,4.167c-0.833,2.5 0,5 1.667,6.25c0.417,0.417 1.25,0.833 2.083,1.25c1.25,0.417 2.5,0.417 3.334,0c1.666,-0.417 3.333,-2.083 4.166,-3.75c1.25,-1.667 0.834,-3.75 -0.416,-5.417Z" style="fill:#ece3ac;fill-rule:nonzero;"/><path d="M109.22,201.683c0.416,0.833 0.833,2.083 1.666,3.333c0.417,1.25 1.25,2.083 1.667,2.917c0,-2.917 -1.25,-5 -3.333,-6.25Z" style="fill:#ece3ac;fill-rule:nonzero;"/><circle cx="125.47" cy="245.016" r="5.833" style="fill:#ece3ac;"/><circle cx="144.22" cy="187.933" r="5.833" style="fill:#ece3ac;"/></g></g><path d="M213.386,309.183c-50.833,-16.667 -95.416,-42.084 -122.916,-70l-5,-5l2.916,-6.667c0,-0.417 3.75,-8.333 12.084,-19.583c-3.75,-7.917 -5.834,-15.834 -6.25,-22.917c-0.417,-10 3.75,-17.917 10.416,-21.667c2.917,-1.666 8.334,-2.916 15,-0.833c5,1.667 10,5 14.584,10c18.333,-14.583 39.166,-25 62.5,-30.833c1.666,-17.5 10.833,-30 22.5,-30.417c2.083,0 4.166,0.417 6.25,0.833c8.333,2.5 14.583,11.25 17.5,23.334c25.416,-0.417 50,3.75 72.5,12.5c8.75,-10.834 20.833,-18.334 32.083,-14.584c1.25,0.417 2.5,0.834 3.75,1.667c10,6.25 11.667,20.417 5,36.25c39.167,30.833 57.917,76.25 50.833,126.25l-0.416,2.917l-2.084,2.5c-27.5,32.083 -106.25,34.583 -191.25,6.25Zm-102.083,-79.167c25.417,23.333 64.583,44.583 109.167,59.167c82.083,27.083 146.25,21.25 167.5,2.083c5,-43.75 -13.334,-82.917 -50,-108.333l-7.917,-5.417l5,-8.333c3.75,-6.667 5,-12.084 5.417,-15c-2.917,1.666 -7.5,5.416 -11.667,12.083l-5,7.917l-8.333,-3.75c-4.584,-2.084 -9.584,-4.167 -14.584,-5.834c-20.416,-6.666 -42.5,-9.583 -65.416,-7.916l-10,0.833l-0.834,-10c-0.833,-6.667 -2.5,-11.25 -3.75,-13.333c-1.25,2.916 -2.916,8.333 -2.916,16.25l-0,8.75l-8.334,1.666c-26.25,5.834 -49.583,17.5 -69.166,35.417l-9.167,8.333l-6.667,-10.416c-2.916,-4.584 -6.25,-7.917 -8.75,-9.584c0,3.334 0.834,9.167 4.584,16.25c0.833,1.25 1.25,2.5 2.083,3.334l3.75,6.25l-4.583,5.833c-5,5 -8.334,10 -10.417,13.75Z" style="fill:#282f39;fill-rule:nonzero;"/><g><path d="M127.553,230.849c0,0 12.083,-114.583 11.25,-194.583c-0.833,-80 77.917,31.667 6.667,202.917l-17.917,-8.334Z" style="fill:#39b54a;fill-rule:nonzero;"/><path d="M150.886,253.349l-34.583,-15.833l0.833,-7.5c0,-1.25 12.084,-115 11.25,-193.333c-0.416,-17.5 3.334,-28.75 10.417,-33.75c4.167,-2.917 9.167,-3.75 14.167,-2.084c7.083,2.5 13.75,9.584 19.166,21.667c14.584,32.083 27.5,114.583 -16.666,221.25l-4.584,9.583Zm-12.5,-28.75l1.25,0.417c40,-104.167 22.917,-181.25 10,-200.833c-0.416,2.5 -0.833,6.666 -0.833,11.666c0.833,67.917 -7.5,161.667 -10.417,188.75Z" style="fill:#282f39;fill-rule:nonzero;"/><path d="M106.303,220.849c0,0 -8.75,-97.5 -22.5,-163.75c-13.75,-66.25 82.917,20.417 45.833,174.584l-23.333,-10.834Z" style="fill:#39b54a;fill-rule:nonzero;"/><path d="M136.303,246.683l-40,-18.75l-0.417,-5.834c0,-0.833 -8.75,-97.5 -22.5,-162.5c-3.333,-15 -1.666,-25.416 5,-31.25c4.167,-3.75 10.417,-5 16.667,-2.916c26.25,8.75 73.333,90.416 44.583,208.75l-3.333,12.5Zm-20.417,-32.5l5.834,2.916c18.333,-92.083 -13.334,-154.166 -29.167,-168.75c0,1.667 0.417,4.167 1.25,7.084c11.667,56.25 20,136.25 22.083,158.75Z" style="fill:#282f39;fill-rule:nonzero;"/><path d="M98.803,219.183c0,-0 -32.5,-81.25 -62.5,-134.167c-30,-53.333 82.917,4.583 85,143.333l-22.5,-9.166Z" style="fill:#39b54a;fill-rule:nonzero;"/><path d="M132.136,243.766l-41.25,-16.667l-1.666,-4.166c-0.417,-0.834 -32.5,-81.25 -61.667,-132.917c-2.917,-5 -11.25,-19.583 -2.917,-29.583c2.084,-2.5 8.334,-7.917 20,-4.167c28.75,9.583 85.834,71.667 87.084,171.667l0.416,15.833Zm-25.416,-32.917l3.333,1.25c-5.833,-71.666 -42.917,-118.333 -64.583,-132.5c26.666,47.084 54.166,114.167 61.25,131.25Z" style="fill:#282f39;fill-rule:nonzero;"/></g><path d="M216.72,299.599c31.25,10.417 62.083,16.25 89.166,18.334c0,-0 7.084,-64.584 -24.583,-141.25c-31.667,-76.667 -86.25,-122.917 -101.25,-122.084c-15,0.834 -46.667,101.25 -81.667,177.5c25,25.417 67.084,50.417 118.334,67.5Z" style="fill:#ea4736;fill-rule:nonzero;"/><g><path d="M306.303,289.599c-1.25,-25.833 -6.25,-67.5 -25,-112.916c-31.667,-76.667 -86.25,-122.917 -101.25,-122.084c-7.5,0.417 -19.583,26.25 -33.75,61.667c10,25 23.75,64.583 30,102.083c7.917,47.5 80,87.917 130,71.25Z" style="fill:#f2685d;fill-rule:nonzero;"/><g><path d="M218.803,299.183c26.667,2.083 52.917,6.666 78.75,14.583c2.917,0.833 5.417,1.667 8.333,2.917c0.417,-3.334 0.834,-14.167 0,-30.417c-26.666,-7.5 -55,-11.25 -80.833,-13.75c-24.167,-2.083 -48.75,-2.917 -72.917,-1.25c18.75,10.417 40.417,20 63.75,27.5c1.25,0.417 2.084,0.417 2.917,0.417Z" style="fill:#f6968c;fill-rule:nonzero;"/><path d="M121.303,250.433c24.583,-5 49.583,-7.5 74.583,-8.75c23.334,-1.25 47.5,-0.834 70.834,1.25c12.083,1.25 23.75,3.333 35.416,6.25c-0.833,-6.25 -2.083,-12.5 -3.75,-19.167c-2.5,-0.833 -5.416,-1.25 -8.333,-1.667c-26.25,-4.583 -53.333,-7.5 -80,-7.916c-27.083,-0.417 -53.75,2.083 -80.417,5.416c-9.583,1.25 -19.166,2.5 -29.166,4.584c0.416,1.666 0.833,3.333 1.666,5c5.417,5 11.25,10 17.917,15l1.25,-0Z" style="fill:#f6968c;fill-rule:nonzero;"/><path d="M168.386,187.516c39.167,-2.083 77.917,-3.75 116.667,-1.25c-1.25,-3.333 -2.5,-6.667 -3.75,-10c-2.083,-5.417 -4.583,-10.833 -7.083,-15.833c-35,-7.5 -73.334,-7.084 -105.834,-7.917c-12.5,0 -25,0 -37.5,0.833c-5,12.917 -10.416,26.25 -15.833,39.167c17.5,-2.5 35.417,-4.167 53.333,-5Z" style="fill:#f6968c;fill-rule:nonzero;"/><path d="M165.886,117.099c22.084,-4.166 43.75,-6.25 66.25,-7.916c3.75,-0.417 7.084,-0.417 10.834,-0.417c-5.417,-7.083 -10.834,-13.75 -15.834,-19.583c-21.666,-0 -42.5,4.166 -64.166,7.083c-3.334,0.417 -6.25,0.833 -9.584,1.25c-3.333,7.5 -6.25,15.417 -10,23.75c7.917,-1.25 15,-2.5 22.5,-4.167Z" style="fill:#f6968c;fill-rule:nonzero;"/></g><path d="M213.386,309.183c-50.833,-16.667 -95.416,-42.084 -122.916,-70l-5,-5l2.916,-6.667c12.5,-27.083 24.584,-57.5 35.417,-84.583c31.25,-78.334 40.417,-98.334 55.417,-99.167c2.5,0 5.416,0.417 8.75,1.25c24.583,8.333 74.166,56.667 102.916,127.083c32.084,78.334 25.417,143.75 25.417,146.25l-1.25,10l-10,-0.833c-28.75,-1.25 -60.417,-7.917 -91.667,-18.333Zm-102.916,-79.584c25.416,23.334 64.583,45 109.583,59.584c25.833,8.333 51.667,14.166 75.833,16.666c0.417,-20.833 -1.25,-70 -24.166,-125.833c-28.75,-69.583 -74.584,-109.583 -90,-115c-8.334,9.167 -25,51.25 -38.334,85.417c-10,25.416 -21.25,53.75 -32.916,79.166Z" style="fill:#282f39;fill-rule:nonzero;"/></g><path d="M210.886,110.016c0,0 19.584,17.5 36.25,51.667c16.667,34.166 16.667,58.75 -11.25,20.416c-28.333,-38.333 -42.916,-90 -25,-72.083Z" style="fill:#fff;fill-rule:nonzero;"/></g></svg>